<mxfile host="65bd71144e">
    <diagram id="fswploS4z9RA6LMf68iP" name="第 1 页">
        <mxGraphModel dx="1104" dy="633" grid="1" gridSize="10" guides="1" tooltips="1" connect="1" arrows="1" fold="1" page="1" pageScale="1" pageWidth="1654" pageHeight="2336" math="0" shadow="0">
            <root>
                <mxCell id="0"/>
                <mxCell id="1" parent="0"/>
                <mxCell id="3" value="以上代码进行new" style="text;html=1;align=center;verticalAlign=middle;resizable=0;points=[];autosize=1;strokeColor=none;fillColor=none;" vertex="1" parent="1">
                    <mxGeometry x="75" y="180" width="110" height="20" as="geometry"/>
                </mxCell>
                <mxCell id="9" value="&lt;span style=&quot;background-color: rgb(30 , 30 , 30) ; font-family: &amp;#34;consolas&amp;#34; , &amp;#34;courier new&amp;#34; , monospace ; font-size: 16px ; color: rgb(78 , 201 , 176)&quot;&gt;foo&lt;/span&gt;&lt;span style=&quot;background-color: rgb(30 , 30 , 30) ; color: rgb(212 , 212 , 212) ; font-family: &amp;#34;consolas&amp;#34; , &amp;#34;courier new&amp;#34; , monospace ; font-size: 16px&quot;&gt;.&lt;/span&gt;&lt;span style=&quot;background-color: rgb(30 , 30 , 30) ; font-family: &amp;#34;consolas&amp;#34; , &amp;#34;courier new&amp;#34; , monospace ; font-size: 16px ; color: rgb(156 , 220 , 254)&quot;&gt;prototype&lt;/span&gt;&lt;span style=&quot;background-color: rgb(30 , 30 , 30) ; color: rgb(212 , 212 , 212) ; font-family: &amp;#34;consolas&amp;#34; , &amp;#34;courier new&amp;#34; , monospace ; font-size: 16px&quot;&gt; = {&lt;/span&gt;&lt;div style=&quot;color: rgb(212 , 212 , 212) ; background-color: rgb(30 , 30 , 30) ; font-family: &amp;#34;consolas&amp;#34; , &amp;#34;courier new&amp;#34; , monospace ; line-height: 22px&quot;&gt;&lt;div style=&quot;font-size: 16px&quot;&gt;&amp;nbsp; &lt;span style=&quot;color: #6a9955&quot;&gt;// constructor: foo,&lt;/span&gt;&lt;/div&gt;&lt;div style=&quot;font-size: 16px&quot;&gt;&amp;nbsp; &lt;span style=&quot;color: #9cdcfe&quot;&gt;name&lt;/span&gt;&lt;span style=&quot;color: #9cdcfe&quot;&gt;:&lt;/span&gt; &lt;span style=&quot;color: #ce9178&quot;&gt;&quot;why&quot;&lt;/span&gt;,&lt;/div&gt;&lt;div style=&quot;font-size: 16px&quot;&gt;&amp;nbsp; &lt;span style=&quot;color: #9cdcfe&quot;&gt;age&lt;/span&gt;&lt;span style=&quot;color: #9cdcfe&quot;&gt;:&lt;/span&gt; &lt;span style=&quot;color: #b5cea8&quot;&gt;18&lt;/span&gt;,&lt;/div&gt;&lt;div style=&quot;font-size: 16px&quot;&gt;&amp;nbsp; &lt;span style=&quot;color: #9cdcfe&quot;&gt;height&lt;/span&gt;&lt;span style=&quot;color: #9cdcfe&quot;&gt;:&lt;/span&gt; &lt;span style=&quot;color: #b5cea8&quot;&gt;1.88&lt;/span&gt;&lt;/div&gt;&lt;div style=&quot;font-size: 16px&quot;&gt;}&lt;/div&gt;&lt;div style=&quot;font-size: 16px&quot;&gt;之后的&lt;/div&gt;&lt;div style=&quot;font-size: 16px&quot;&gt;&lt;div style=&quot;font-family: &amp;#34;consolas&amp;#34; , &amp;#34;courier new&amp;#34; , monospace ; line-height: 22px&quot;&gt;&lt;span style=&quot;color: #569cd6&quot;&gt;var&lt;/span&gt; &lt;span style=&quot;color: #9cdcfe&quot;&gt;f1&lt;/span&gt; = &lt;span style=&quot;color: #569cd6&quot;&gt;new&lt;/span&gt; &lt;span style=&quot;color: #4ec9b0&quot;&gt;foo&lt;/span&gt;()&lt;/div&gt;&lt;/div&gt;&lt;div style=&quot;font-family: &amp;#34;consolas&amp;#34; , &amp;#34;courier new&amp;#34; , monospace ; line-height: 22px&quot;&gt;&lt;font style=&quot;font-size: 15px&quot;&gt;&lt;b&gt;哪怕是使用构造函数新生成的对象，其内部的__proto__也是指向新对象的&lt;/b&gt;&lt;/font&gt;&lt;/div&gt;&lt;div style=&quot;font-family: &amp;#34;consolas&amp;#34; , &amp;#34;courier new&amp;#34; , monospace ; line-height: 22px&quot;&gt;&lt;span style=&quot;color: rgb(240 , 240 , 240) ; font-family: &amp;#34;helvetica&amp;#34; ; background-color: rgb(42 , 42 , 42)&quot;&gt;&lt;font style=&quot;font-size: 16px&quot;&gt;注意，此时函数的原型对象指向了新的对象，但这个对象没有construct,&lt;/font&gt;&lt;/span&gt;&lt;br&gt;&lt;/div&gt;&lt;div style=&quot;font-size: 16px ; font-family: &amp;#34;consolas&amp;#34; , &amp;#34;courier new&amp;#34; , monospace ; line-height: 22px&quot;&gt;&lt;span style=&quot;color: rgb(240 , 240 , 240) ; font-family: &amp;#34;helvetica&amp;#34; ; font-size: 12px ; background-color: rgb(42 , 42 , 42)&quot;&gt;&lt;br&gt;&lt;/span&gt;&lt;/div&gt;&lt;div style=&quot;font-size: 16px ; font-family: &amp;#34;consolas&amp;#34; , &amp;#34;courier new&amp;#34; , monospace ; line-height: 22px&quot;&gt;&lt;div style=&quot;line-height: 22px&quot;&gt;&lt;div&gt;&lt;span style=&quot;color: #6a9955&quot;&gt;// 真实开发中我们可以通过Object.defineProperty方式添加constructor&lt;/span&gt;&lt;/div&gt;&lt;div&gt;&lt;span style=&quot;color: #4ec9b0&quot;&gt;Object&lt;/span&gt;.&lt;span style=&quot;color: #dcdcaa&quot;&gt;defineProperty&lt;/span&gt;(&lt;span style=&quot;color: #4ec9b0&quot;&gt;foo&lt;/span&gt;.&lt;span style=&quot;color: #9cdcfe&quot;&gt;prototype&lt;/span&gt;, &lt;span style=&quot;color: #ce9178&quot;&gt;&quot;constructor&quot;&lt;/span&gt;, {&lt;/div&gt;&lt;div&gt;&amp;nbsp; &lt;span style=&quot;color: #9cdcfe&quot;&gt;enumerable&lt;/span&gt;&lt;span style=&quot;color: #9cdcfe&quot;&gt;:&lt;/span&gt; &lt;span style=&quot;color: #569cd6&quot;&gt;false&lt;/span&gt;,&lt;/div&gt;&lt;div&gt;&amp;nbsp; &lt;span style=&quot;color: #9cdcfe&quot;&gt;configurable&lt;/span&gt;&lt;span style=&quot;color: #9cdcfe&quot;&gt;:&lt;/span&gt; &lt;span style=&quot;color: #569cd6&quot;&gt;true&lt;/span&gt;,&lt;/div&gt;&lt;div&gt;&amp;nbsp; &lt;span style=&quot;color: #9cdcfe&quot;&gt;writable&lt;/span&gt;&lt;span style=&quot;color: #9cdcfe&quot;&gt;:&lt;/span&gt; &lt;span style=&quot;color: #569cd6&quot;&gt;true&lt;/span&gt;,&lt;/div&gt;&lt;div&gt;&amp;nbsp; &lt;span style=&quot;color: #4ec9b0&quot;&gt;value&lt;/span&gt;&lt;span style=&quot;color: #9cdcfe&quot;&gt;:&lt;/span&gt; &lt;span style=&quot;color: #4ec9b0&quot;&gt;foo&lt;/span&gt;&lt;/div&gt;&lt;div&gt;})&lt;/div&gt;&lt;/div&gt;&lt;/div&gt;&lt;/div&gt;" style="text;html=1;align=left;verticalAlign=top;resizable=0;points=[];autosize=1;strokeColor=none;fillColor=none;" vertex="1" parent="1">
                    <mxGeometry x="380" y="560" width="570" height="400" as="geometry"/>
                </mxCell>
                <mxCell id="10" value="" style="shape=image;verticalLabelPosition=bottom;labelBackgroundColor=#ffffff;verticalAlign=top;aspect=fixed;imageAspect=0;image=data:image/png,iVBORw0KGgoAAAANSUhEUgAAAYsAAAECCAYAAAAPX/ubAAAgAElEQVR4nO3df3RU5b3v8XevvVJlmEQMJhSRhCb8ljKVgMSrDcGg4QSqNZIrp9geamKNwsJ7Klms0bhIzWKB9ugCjEewnLa2WBSFo7lBDQSuHkEMNogCIpEEwSaBCMkQpHiO69w/5teeyczsmWQmmcDntRaLzN7PfvYze/Y83/382LO/c9111/03IiIiIfyPvi6AiIjEPwULERExpWAhIiKmFCxERMSUgkUI+fapPU4fSR493T6SfCNN251yRKPsEh3hfBb6vCSU7/Z1AS52VRV7yLdPpapiT18XRSQod6AIFjB0/oqCBaGvqLr75fHfzv91OF++YF9g47Zm5TMLVOG0Zox5BStHoDwUKPuH7pwjcunppWAxgIyHJjHss33sfPtCkDRWJtvHQvUe9tb3Tqncgn1RelLRRbpdsH35LwunwjYLVMZtA+VvtiycysW9XgEjtnraEjBrUfin0+d46eqdYGEbyuiEVvYGDRRgmTmclI4mdkYUKJwBJsW4qPEQVRsc3SpmJFfZwdYbv1ThVLyB9mfc1pg+0ko33P2H0woKd9+B0sVXwAjnwiUMtlTyZ8HeiiZaole4iIW6WAj1uQY7x4xpzc4TubT0SrBIGZtMZ92+EF+qAQwdZaHlvQN0RpSzg70+J7QzeGTP7H5FEGlzPNQVd7iVfaAvtf+VuVnZeipQGaMRnIz5x0/AuDSYtQZj0aKWi1fsg8XQZMakdfLljhCVt7vl0ePuJwcnGmFy0gCgB1eNPRTqii7U1Z1xuTFtsNdmZYi0RRCs/IHyDWe5WfCU6OhJgDfmEeq1SMyDheX6JCyNxznSHDyNecsjTEOTGZMGLdXd64aC6HxJIul6CtXSCHZlGCyImOUbqryhur/805iVNZx9ebfxdgt9mjSJyWmuhB1N7FzT6mlppsybymQOUbXjCrIXpGIBoNW3G2hosmEdQCeH1x9wnXt+XZaZk8jPdL/wy8eWSv6sZEOpvestM8eTnendw2S7N11nnbNF60yDYd+G95DmysvdjbX+PGMMZW7xH7Pzf09+x8V4TCPt8jRub9zGf5kIxDxYWBmTaQldeYfT8jDZh7ES6Kzb16MWSk9nhUTjytnsyxvOQHgkwhlnCBVEIhVoG0vmJCY3HqKqwoH7M508s923OzFtLPlpreyt2EOLK8hMnnfaOUblqlQ7q/d4xr0sM8eTvWA8rD/AkWZ3l6XJmIUtlfxZAzm8fo+nok+ZN5XJdtf4xNsHqHqbkGMWnW8fpyVzLMOuH8CRZvc+rFybBi3VxvTJTF7Q6dmXZeZ4smelklLvShPgPaXMm0r2Q4QVMLrTsgzWQlGLUGIbLGyDSSF095Ll+iQsHW00h2h5hGYct3BWBPmjul59hau7LQv/ge1w8g0nMPX0C9udgUz/8vXKGIrPxAQHn9Z1kj0qEcvbxs/R2AK4QPNnnYwedQUWHFimp2LpaPI51zrfbuDwqEl+lXYoA8i4KRkaD/m0CFo2HKLFPpZrbU20hHUhEqD8tsEBJnB0+rQ+3EHGvZ+U6alYGg/5bNOyo4nOBUkMHdoasrUerlDnmaY/i1EMg4Xzixe6e8nd8oh0YDuYCxx5tYlhPfgyRdqyCBQkQlXw3ekaiGS7SIUz6BnuwGjUJVyBBbznRsd5n/Ok032VD85umtPnA55HlgjHsDrbAqe1DAk/H3fFP8bWyt5613fhs31hnec++0kbS769S+5dtuluy8+sFatAIW6xCxZDExmW0MmXH4ca2DZveUQs5QosnONsN6+6Im1ZhDMNtifMugfC2a/Z1WF3WlO9UoF0BK78IxWs8o84n1OR5OOabDHWCi1XMCyhlU/DnKHns58Ip4JH2hIINLHCuFwtC3GLWbBwN6GDX92H0/KIlJXJs5zdCP55egYmAwwQGvV0zMI/r+7OVOnOVV6w7iGz7oS4m0I5NJnJEbY4Ww61wqyxTLZ5B4gtM9MD3N9zgbOnwdKli8u5rvmzTkZnppPx8QHDmMXYrl1ILefpJDVk15Szy2g42YMtEMZ57r+fQO8pkJ58TqEmLChgiFGMgoV7MC/UwHYYLQ8zXWa/OGeTVPXyHeChRNrHbxwbcAtn+3CmtIbTwghWeQQqY1T5dLd0+gwwh6W+iSogf9ZU8me5F7YGHIB2j0Fk21O7pOt8+wA7GU/2gqmMdm8Q6AKjuZW9dUlkG/bnng1lTPNpY6pzBlTAVoWF0cb9NB6iao3hOxPwPfmWJ5L7J0IxO8cUMCQmwSKcu7HNWx5haG5lZ0VrWEmN/dtGkc4vD3Y/RDhTYCMdGO5OkPHf3myWU3fyjQmT7paWDXuoMsujvomq+qYwduZ/M6evYOdKd9PReDpIq6Kzy/TaLkzeU6Rdkv7rAuUTqgWqqbWXru9E/xnc8f07ULES6j6IUGm7s32k5Qm1vif3lfSkovJyni+jT3f/Z1rilbPr81zgnwTxTNE1CRZR0J0WgVoR4i8GwUIkEhdfsHDefAfBusGAXg0WItGgYCEiIqb0pDwRETGlYCEiIqYULERExJSChYiImFKwEBERUwoWIiJiSsFCRERMxf5JeU+uIj3V+7qtahEn/hDrvUr/9S0vvfwlWQlAx9U8MXcg6/q6SCIS22BxeekTpKc20nD301F6XkW8KyJvs52MgxWssvekilvB/NpC2JTKi5VRK1y/ULTsDFlczRO3KUiIxJMYdkONwjrayrm9//cSCRQSDRlDvsZx6HsKFCJxRmMWIiJiKvq/DfXzh5mUnxZ43dm9HFzwR74BYBRJ6x/i2kHe1ef2ruHIis+8C265l4yFkxnoWeDgxOpHaXsn/OKkVOyneNwnrK25huKCdE8+dcsnsrXGL82dx8mtLSQtQBp3F1Nmgjfv9t3u7iZnt1Hgd93AGzm34vlx3dwNLFqaRaLhPXn202WdQccu1t45j5aSbZQVpNPo10WVUrGf4mm48nJ3Y1XQlmsoc8NGyotLDZn6l9uvrH1gZeUX5J0axvWPX9aHpRARfzH8IUFnMLjqsF8AMKy79qsq9j3ieiCAKzDgDhiu1+cNA+KXlz7BuMlEFDCclagVY0VoW9vE7CGuytcnjbfi9k3jChSnDJWtq2Jnt3F8wmTMwrXNGUNF71vJuxOGGrMIUJYu+/UGAU9A67JvZ5qrDOV3luVkRAHjvjXV/HRkoDWd1D01l8drw8wIgAtsf6sVXruOGc9Hsp2IxFrfdEP9/B+4dpCDE28Ynhzzzh85ttfBwNE3cjlgmT2ZgWf3ctIwc+qbFX/kxFkrV00bFeEOfa+Y61/ZRXvCBGy5xjS+LYn6fQ2QcA1DAUoKyUxwUPeK4aq8Zh4v73aQOG46KWGWwnZ3Fokdu6gxBIAW+2rqOqxkZBeFmcs6ttY0QPoN2NyLcqeTkdDAu34Bqt0YyGrm8W4DpE1aAUBKRR5pHbt42bBNi30rjaQzoSTMogAvPDSLWbMC/YskUFxg+1tfcOytC3x4mwKFSDyK+dTZ4L7i74FaB4Ou5nJPkhZXl5WvgUmpgH9rJVJWkjIAz9X8SVpqDKsrb6Xc56reb72bK6CE/RzxU8cDpk0ckh5gaRCVG6nLtXNzRRH19nXOINSwMbzWwJDh3uCWkEVxbdensDWGX5IoGcCM267DHTS2q2UhEnf6MFgEcfYrvgFvwAjgXFs4j84046DtSBSy6ThJNJ5d036qIYLU66g/uJDMcdNJIZ0J6Q7qlpeabwaeYJUC3nGQyIvrEd1uqAF8+Dnkff9bQGMWIvGkb7qh/nCANtJIf3Kmd9kt9zJispW2/+ccAO/8pBFS87n2594kl5fey7WDGmn2HwMpWk11dTXV1au5z3TnReSVZJHYsNUwRmCi8kMaSWf22hXeZbkbmDvNSmONsbJdR8spgnZN1e9rgPRC5hu6eVIqFpLZpQupgbYOb5dRIC32rTQmZDF3cx5p4byXkm3MTvd2pbXs/IT2hCzmVoTb/RVYdLqhRCTe9VHL4m1O3A28ks+kV/I9S33u7v7D0+zjYSblryLJk6S7N/ilM7u2idmuV+27KyiP6Ka5Ul7Mgfm1hZTVFnqW+s9IAqgv3siE2kJD945hvKTyVsrZRllBE2UFdF3vsY6tldPJWGrYX5dWQCk1u/Ocg+OVgVsVidPslNXaDfuZ6N1PzTxWsYFFS41pgpVHRC51F/1jVbszw6e/8E759e9K6jrTqb/Q1FmR+KSb8vqrkm2uVkXPxhzizZFTV2K98Rwr+7ogIuIj/ga4JaRA94RcTNY9nkRG5RcUvtVOoX5IUCRuXPTdUCIi0nPqhhIREVMKFiIiYirqwWLkyIB3aImISD+mloWIiJhSsBAREVMKFiIiYkrBQkRETPWvm/JsqeTPgr0VTcHvWg4njVz8bKnkz0r2vm48RNUGR9+VR6Sf60fBYgAZNyXTWbcvRBAIJ01/YGWyfSxU72Fvn/+gVTyVJUxDk8melUxLfyqzSJzrP91QQxMZltDKp29f6FkauehZrk/C0tHEpwoUIlHTb4JFyvRULI2nQ7YYwkkjIiKRi/pvQ40cOZKjR49GM0ucXSHD6Vh/gCNBH0sXThqzfYz1eWiRbzfGADIemsToBO/6zrp97HS3YtxjJevPM2ZBKpaAeQTejyefoclkG7b10dHEzjWtdAKWmePJHtXGzjXnGePJq5PDnvfu3IfFWL4g3UmWmePJzrR03U+YZfG+d8P4AK0+Y0bm5XVzH+NA68x0Pa5efvmZlBcgZd5UJqcZFmjMQy5x/WLMwjJzOCkdbXwaovIIJ01Q7ooxaIXgqsROH6JqjcOwzSSyMVbIyUxe0Mreij204KokZ6WSUu+uiAaQ8ZCzEq8K1FXW3MrOilbCGidISCXb3snh9XvY2+yq3O5KptlYiZtwVojOPLpUzOGWxZZK/qyBPnmkzJvKZLvfJIMolDc0B3sr9gDG4BQg7zDKmzJvKpMHN7Gzwr298xjkz1PAkEtXP+iGGsDQURY6P2sPUamEkya4lOmpWDqa2BmsIrANdV7t7jCsb25lb10nllGJhqvvTg6v91aQnafOBczOd5vu8r1abjnUCglXhJ/v0GTGpEFLdXdbYuCeUEDjcZ88WjYcooVkrrVFWt4LHFmzh6qKnpSph+V1H5f3jIHGwd7qVkgbHKTlInLxi/+WhW0ooxNa2Rtq0DqcNGZOnzcJNOc4G6gCc1V44QWpCxxZsw8emkS2PdW5yL9LJ2x+5alvoiriAd1OOqIwwNPZFvi4W4YMANzrolHe6AhZ3hYIflwGMmgotMQkkInEt7gPFiljk6HxUOiB7TDSxEyHWZDx57x6PgK4u7eyH6KbASO+dZ7qX7PSzMsb5IJB5BIQ391QQ5MZk+bX/dOdNCZaDrVC2liyZw4InKD+NC0kM3me1We/kzMtft0VkbpA82eBtr5ARwekjLUGWBdevh0dYElyv58Ag7/N7XzZYWH0glSTrpVQZXGW35KZTsZQ79KUeWNJ6dbU1QFkPDSVfPt4n/yiJ4zyuo/LXcmGLjIrk2cl01nX7HdBEuvyisSPuG5ZOOfLt9EcamA7jDSm6puoajlP9oJJ5Gd6F3tnMjnYW3HIOchpD7Q+XIFm7LSyt8I/4FzgyKtNDFtg2F9E3VVdt2+p3sfhmyaRYEyzZg9n501lst0wM6jLfkKXpfPtA+xkPNkLpjI6aB7xw7y8AboK8Zv55nGBs6eBBAujp1s5osFvuYjF8dTZcO4c7od3F8vFxTWTjoDBROTiEb/dULbBpNDKiVBBIJw0IjGUMj0VC518+bEChVzc4rhlIRLHPDf2db2hT+RiFNdjFiJxq76Jqvqmvi6FSK+J324oERGJGwoWIiJiSsFCRERMKViIiIgpBQsRETGlYCEiIqYULERExJSCRS/7p4J5bPnnfB5LBibezJZ/nse/TIwkByuPFc1jS8HwOCiLiFwqFCx62een4+fH5uKpLCIS3xQsRETElIJFL3unrQPo4EQr0Hqaczg406qyiEh8i98fEizZRlkBvLH8JDcvzSLRtbhxUyovVhoTrmB+bSFpntcO6pZPZGuNe10ebZs+IaMgi0Qc1Bn/9qSDlIr9FE/zPuCnfXcFq+zr/ApVRN5mO5kJvttGTfJ4/vyzwWz77bv8m9+qW3Ly+T8/aORf1h3nx0X53HDmXf6dm/nJCPfb/oh/WXeAd9xpbfDhn6r4jaHy/6eCefxkxHH+PUD+IiKhxHnLIp3ZS6/h3ZxUynNSWbvbQVrBNmye9UXkbb6BT1zry3NSeaPBSuZSYxormQXX8G5OBXUdVjILJnBkufPvjOwiwB0oTvKGJ5+NnJlmZ1FFUe++3VYHrSRwbXLXVT8YbIUzDt5xLxhxM7eeruKO327gjt++y1HrD7nDNTj9Tu1HHMXKmPHGp9sN5/oRcLRGgUJEIhfnwcJB3fJbcT+uouXLk37r17H1Tu96gPp9DV1yad+90ZOmffdqvxbBCnKnWWncZMynlJrdDhLHTfd7qt06tt6ZSnlODFoVHlauSnb+/1jRPP6c463wz53u8CY79i7/WOseoO7gjAOSk9xpj7Ol3sHAHwznFnf6iamMdHzElv2xKreIXMz6/U+U+3cfOXUNGGbSCpooK/Bb2BEwaQw5K/0xSVZIHs4YHPCD4dxSe5xrr4LWzxxAeM/lfqf2I+6w3cwdEw/wzn4rj00dzrnPP/K2TEREItC/g0XJNoqnQd3yVO+VvmusI1Jdx0L6goMTZ2AMcMv4NFr3vMOZqbfw42QHV1kjHXw+zsfH4CejhkOrlTHW42yr1VRZEemeOO+GitQK5hekR7hNKZ804DcWEkwReZubKKvdT15u90po5vPTDgYOHs6Pf9DBx/sd/GZPh2vswTVrKQL/9u5HnBvxQ/4854dQ/1H3xyqKVlNdXU31mvu6m4OI9HP9O1hUbnQOWi9toqy2ibLaPNo27aI9wmzqi1N5oyGd2bXufJz/en2AG9d01hE/ZMznrsp9fxOtth8y0nGazyPNrPUA245ZGdjTVsXnp+kEGDmTZTndz0ZE+q/4nTorUfFPBfP4Ce9yx6bjPcrnvjXV/HTk57w2ayEvRKlsItJ/9O+WhYR0S06+876KHgYKcpYxcyRw9CMFCpFLVP8e4JaAnDffAfT0Brxslv1lCZlW6NyzklnLdkatjCLSv6gbSkRETKkbSkRETClYiIiIKQULERExpWAhIiKmFCxERMSUgoWIiJhSsBAREVMKFiIiYkp3cEfdDB7ZchsjOcbrdzzLVv/V2fewYrHN56kUR19fwpPre7GIIiIRUssiivKeXslzW8bwVd3ZwAlcgaLt9SU8cIfz3zN1Zxk55zEWZPduWUVEIqFgES0LHmQOb/HAHc/yXrA0Iwdj5SxfGX4N5fB7DeiRRCIS7+K8G2oF82sLSfO8dlC33O/517kbWLQ0i0T/TRs2Ul5cGjhNxy7W3jmPFr9NbGubmJ3ezafmrX+WB0zTvEVddjGZix+keeezbGUGjyy2YW18i/X6jT4RiWNx3LIoIm/zDXySk0q5698bDVYylxqfaLeC+UuzYHeFK00FdR0EDBRnNhnyOZVF8eYNpPT6e2pg/b1LeKZuMHO2rOS5LbfB60t44OHtvV4SEZFIxHGwWMfWO2+l3rCkfl+Db5Lc4VyFgyM713m2qT/ogCHDPYHAdncWiQ0bfVoK9a/soj1hAja/R6PWFzuDSeyexZ3Ogj+uZHHmaV6/YwkPvH6MkXNW8tzTM2K1QxGRqIjrbqiUiv0UT7P6LTUEjJrjnFmaRUZ2EVtr1gFF2MZZ4dRx3y6m9ELKagv98umDkYIFt5FpNcySWv8sD/Agz825jUcWbNeMKBGJW/EbLEq2UTwN6panescoSrZRVtA1aeI0O2W1ducLYxeUW6BlfWD00MHgaMDnaR/rP+XonBF9VSQRkbDEcTeUvxXML0j3WZJSkUdaxy7WGsY1/INC/b4GSC9kfon5HmxrmyirbQorbXccbj4NVhtzFniXjbZnMdJvhhQARauprq6mes19sSmMiEgE4vhJeUXkbbaTmeB+7aBu0ydkFFzDuznusQz/NG4NvJFjGO8o2UaZX6AJNCOqR7OhAtxs5+Zz092CB3nOpyUR5Oa9nGW8/OtMLHRS99RcHq+NsDwiIlEUx8HCnG1tE7OH+Ff6rgByKj66nnrivjXV/HTk57w2ayEv9HVhROSS1o+6ocKUO52MBGg/1WCeNp7lLGPmSODoRwoUItLn4neAOwz1xRuZUFtIcW2Tz/JudSPFjWyW/WUJmVbo3LOSWct0t56I9L1+3Q0lIiK94+LrhhIRkahTsBAREVMKFiIiYkrBQkRETClYiIiIKQULERExpWAhIiKm4jdYlGyjrHY/ebnmScOSu4FFtU2UdeuhRyuYX9vEooqiKBVGRKR/6dd3cMcf5+9SZRysYJV9nXnyHhptf4zFmYNw1K2ltKIbP28S4McPfX70EAL88OFZ6p75jR4DK3KJuXSCRc08VtWYJ+sXXJU8dfUcxUZSD/Joe30Jpa7gMNr+GIvnPMaCo65gsOBBnpszmLpnlniCQ97TK5njeYa4iFwq4rcbSoJIZ8GCdA4/s4TSipPdz2bkYKx+z9E4/F6Dz/MDRw8dDJym2dCK2Prxse7vU0T6rfhvWWRsYNHSLBJdL7v+SOAK5tcWkuZ57fcsC//1QZ6a536WhS8Hdcsnep/URzp5m5u8z8/w5OW3D+OT+7qUB+f4ydIsEgM8U8NcA+vv/U1EWwS0/i3qsovJ9LQSZvDIYhvWxrc8rYjDFbs4uuU25vzxHo7e+xKHs+9hxZwROOrWqlUhcomJ82BhJbPgGt7ISaUe1zO5czeQUumuYJ2V9FW7Kyh3jRGkVOynuHYbeCroUl7McQYH29omZgfYS0rFfmanGyr1km2UFVzjFyggcVohSZtSKa/EVeHnkZdbytYa9z56d8yiZxpYf+8S3rM/xuItK5mDc7ziAZ/ngG/nyTu2k/f0ShZvseEcr1ii8QqRS1Ccd0M5qFvuvSpv+fIkJFzDUNdr92NVXzZUzC32rTSSzoQIHo06dIgVGj70Xv1XfkgjVpIyfNO1767wtmpqjnMmQJqw1MxjVU4q5RG3KqIpnQV/XMnizNO8fscSHnj9GCPnrOS5p2cY0szgkS0rmXN1Pc/csYRn6iBz8UpW2Ls0wUTkIhfnwSIMCVkU1zqfne38Z+ySCk/zKQek34DNvaDkBtJw0HYkymWNJwtuI9NqeKTr+md54PVjkHYbj7ieET7ansVIRz3P3PsSh4HDFb/hmbqzWDPvYUF2H5ZdRHpdnHdDhaFb/f6BpDO71t1N5T9WcfEZPXQwOBrwefLI+k85apgmOzJpEHx1ksOGJIffa8CRqZaFyKWmX7csWnZ+QntCFnN7dLPcCnKnWWnclEp5jvtfdwPFOlpOQeK46aFv/OvRDYKRcHYjPbdlpae14Ha4+TRYbcwxLB9tz2KkYYbU0bazkJbl04rI+4kNq98MKRG5+PXvlkXNPFaxgUVLjbOPwGcGUsk2ygqMV8KFlNUWGtKU8uKmGygraKKswDf79t2RD1R3fdRrgNlQPZT39ErmGPvaMot5bgtg6DIytf5ZHuBBnpuzkufmuBcauqVwdTvZH2Px4pVkLnYtdNTzzB1h7kNELhp6rKprGusZ/ym5QWZEiYhcivp1N1Qs2SalAydpUaAQEVHLAlz3Zkyz+i6M2sC5iEj/p2AhIiKm1A0lIiKmFCxERMRU1LuhRETk4qOWhYiImFKwEBERUwoWIiJiSsFCRERMxSZYzDjHx299wbG3vuDjZd/GZBciItJ7YhMstg/k+tuuY8RriVhvPMNLM8w3ERGR+BXbbqjnB7Kr42uu0eMPRET6NY1ZiIiIKQULERExFeNgcRnH2yD9hxdiuxsREYmp3vm5j/sdHPtpO473h3H945fFfHciIhJdMX+s6srKLygkmRG3XRfrXYmISIzEuBvqW4YnQcNHA2K7GxERiSkNcIuIiCkFCxERMaVgISIipmIbLO4/R1bClZxsiOleREQkxmIzG2rGOT5e8hVWoOG167hne0z2IiIivUSPVRUREVMasxAREVMKFiIiYkrBQkRETClYiIiIKQULERExpWAhIiKmFCxERMSUgoWIiJhSsBAREVMKFiIiYkrBQkRETClYiIiIKQULERExpWAhIiKmFCxERMSUgoWIiJhSsBAREVMKFiIiYkrBQkRETClYiIiIKQULERExpWAhIiKmFCxERMSUgoWIiJj6brQzvPLKK6OdpVzkfvGLX0Qln9///vdRyUdEuop6sBDpjhc2vNCj7e+bd1+USiIigcQsWHz99dexylouQufPn+9xHjrnRGJHYxYiImJKwULi0pPPfMnBR7/1XfjLs5z409fc3zdFErmkXVpjFiXbKCtI975u2Eh5cWnflac/+fnDTMpP875uqmLfI2/HZFf3P3qae0ZaeWnxZb4rfncl701v4bFnvsvziy+Pyb5FJLBLJ1jkbmBRQTqNm1J5sTJwkpSK/RRPs9K+u4JV9nW9W754dsu9ZOSn0Va1iBN/iPG+fnmWx6bAe08P4pEuKy+j8GdD2PH6KQ4+msK4Jy4LkIGIxMIl0w2Vkj2BxI5d1AQKFLkbWFTbxFw+obHXSxb/Lp82ioFn93Iy1oGCb9k43QFHLRTuCFoa/vLBFVinfM2TsS6OiHhcMsEiuCLySiZwZHkqq+zH+7owl7Zffs1N1it4799DdzE9/4SFIzj4B/8xDRGJmeh3Q038LRNnptFSdTtNf/UuHnD7JmxTWjlY/iAO1zLrz95k3EhvmrMfrODAm+5LyiJSy+6CqttpvmYTtikW5+Kjr/L+n8LtIlrB/NpCvD3tWRTXNrn+dlC3fCJba9ax9c746XIacPsmbKMOUv8fV2PL/4FraSeNLxTQ+je/dO5jgu+xs/7sTYa3GWaenu8AAA8kSURBVI+lm/eYGj+bwGZy7Sv5JHleT2bcK5Ndfzs4sfpR2t5xvfQfz6CRhrufptOwxPLkKtJTDQsCjHncP/Q/wfE9aoO2KtwuZ+9RuCfpW0BdUSK9IfrBYv8Wvpz6MMPGFdH0V3clPJ3EURbOfvCsJ1AMuH0Tgw/ezvt/ci340bPcmF9K6skdPhVZSv6bpBx9lffL18H3yxl/312k/mhdGJUdQCkv5jgHsFMq9lM87hPW3jmPlui8Ux/Zj7/MkqmWgOs+3zyLhZHEo8Qp2P7XB9SXP8gFXEG1oJz2VWVcwBh4C1zHs4jUslLGAwfe3MGFtk4GJaUDfrXu94czkE7awjoAb3Pi7rc5AVxe+gTjRn/GwQV/5Bv/ZD9/mEn5V3Ni9SJP8LA8uYr0Vx72BAzLk6tIv3ovB+92b+8MRJOexCdgpCedhzYLz4dRuoa2K2DMf3E/l4eVXkR6JgYD3O/y1Z47GDZzElZwVmbfn05SYidt+72V14U3C2gybvbXfbR4rqQNjC2Jv+2grX0KSddMp0tF2Md2LpvLzqjl9jkHXYEB4EJbJwx2ryti6BQLLVUFnsAL62j+4DZso6YzwN2aGDycAcCFHz3LjfkYWnStnDe0UHpmFEk/ToOmKm8rA+h8pIq2V/JJ/Dl0Nt7L0FRoqzIGmrc5UTWepPzxWHAHi2+5Lgloi2D31m9JN08lIlEQm9lQ+z+mZeYcht8+nQNv7sCaM4VBR1/lgLGS+n454++bwiC/Tf0ves+2NRhe7aB11Q5aY1Lo/iUl/01S8v0Wtjv/u3CyFaZczQBgwLhkzrZbGPwjcHA1g9q/8gShaDnX1hRw+RUpo3DOGHDw94AzB67me7e4/76ML9rgpkh27LiMBvNUIhIFMZo6+3uaP8hxXemmM3gktFQZ+2GKSL1vCnywgvf9xyj6qah2Q4XBf0zId+VXnOVqoIjBgw/S8B9XYxtXRHNbMpzeF/VgEcz5ls+AG0Ok+Iq/vwNMcL6KpGspki4rEem5mN1nceHNt2iZchuJt19NSvsH1JuMMVh/dhcpdG1Z9BfR7YYKZR2nj97FuPxnOf3XBw1dUQZ/O845xnHF7ZMY+NkmLvwVGv9XAYlt/i21nvoMx2EH106+l6RbHjWMWeSTdHYvB/8A8D5nfjGZa39xL453DGMW+Wmc27vGZxD8+eb/yWNT/k7O9Ct5PmQv4zdMHglHTGZNiUj0xPCmPFelNsVCS9WDflezrj72KaXcOMU5AH32g1dpHHwXV8SuQEHZ1jYx29j5Pc1OWa0dOnbFbEC8Jxx/up2DP3uTcWVv+iz3zohq4Hz7XaRNaeVgubPWbf/sQWxTLLRURXes55sVj3Kw9AnGLVzFtQvdBdlrGAz/jLYFa2D9Q4bZVHBu7xqOrPjMNzPXHdo3/eQb2BEiEPzyAhlYeel3UX0rIhLCd6677rr/jmaG7udZ6BdAJVwlJSWs/t1q54tfnuXET/6T954eHOTGvG/Y8fopkj/wvYN74S8XUlkZ5NZ8Eekx3ZQn8eV3g/jNB3DTw2cD3KH9LRv/dIqMo0P0Ux8ivUzBQuLO808M5qWjAe7Q/uXX3MRV/EY/IijS6y6dHxKUfuWRxcO6/pDg7wZxrcYpRPpEzIKFnsUtkbjiip5PbdA5JxI7allIXNAztEXiW9RnQ4mIyMVHA9wiImJKwUJEREwpWIiIiCkFCxERMaVgISIiphQsRETElIKFiIiYUrAQERFTChYiImJKwUJEREwpWIiIiCkFCxERMaVgISIiphQsRETElIKFiIiYUrAQERFTChYiImJKwUJEREwpWIiIiCkFCxERMaVgISIiphQsRETElIKFiIiYUrAQERFTChYiImJKweISsbLyCz5e9m1fF0NEQiha1saxygt9XYyAvnPdddf9d18Xos+VbKOsIN3zsnFTKi9WxmJH6Szf/CumJrhedtRTceef2R6LXRkULWvj0RsvZ+NtVpYESpC7gUVLs0h0v+7Yxdo759ES43JdHIrI22wn0/2Z4qBu+US21vRlmeKDbW0Ts71fq+h+r0q2UVZwTdSOdUrFfoqnWWnfXcEq+7oIt17B/NpCrurWtv4usP2tVq55fxjXP35ZD/OKru/2dQHiQuWtlFeC+0OPnQaW3vlrAGZUPI59XAx35Xa/g0dvhF0rgwQKVjB/aRbsrqA82InuDiYKIl3Y1trJZBdrc4IdF+c5lUYDb+TcSn0vl6+vpFTsZ3Z66Pfcswq6P3JeWGQcDPV+BzBj5dV8vORLtt9/HTOe79UChqRuqIvat7w0ox0+H8Q9wZovJTeQRgPvBjx5i8jb3ERZCRxpiGU5+6sVTEiHxprAgcK2tomy2hto2+3o9ZL1rSJs46y0794YOFDkbmBRbRNz+YTG3i5aEC32iZTnpMZH0No+kK2fQ/qMcxT1dVkMFCwuZvefIyvhSna9OqBbm6dULCTjYAXlak1ErmQbs9lI+SXUmghPEXklEziyPJVV9uN9XZi4teTVq3EkfMX/vr+vS+IVw24od/Pby7fP0r+vF9/maMk2ygrgjeUnudnQn96137Prfro0a/3GJOhml0BM+2CNShZSWzDCsOAYL+es5l8NS3619inmpvtveJY9y5ex1NWHW/T9b6DjCmq7tCq6HvvZtU3Mdv3tfl8t9oms6vGb8Ta93x1i9x6/AF1a/sfX+zk680iq2QgFzs+6cZPxb8Pn0AvjL+7uE4+CJsoKXH83bKS8uNTZtRmtHfq/pwDnr/+xc/IdP4n5+ev/PZtmp6zW7vzb8zmsY+udUbx6z/A9Nl3ek9n5EOZ4ZTjHF9LJ29zk/V65zwX/Osp4XILVRdu/xyf3w4TvfwvEx9hFbIKF+wPyHCx/rsrq1EbK7yw1bGNnUQWGij6d2UvhjZxU6nF9SQu2Yat0H9wi8jY7B5aC9rd7BsJSfb80tdsggoBhW9vE7CGGvuncDSxa2sR8ov2FW0htwWD2LP+1p9L/1dqnmFu7EFwBY0bF48xNNwQQzzbeQAGQMeRraBtE1yPj/MJuBW9QjvEVcOI0OzfvrqC8eB3uL8/ciiLPZ51SsZ8J+1IpL3ZtULKNsgI780vWeY5vWkEedctT+eTuJmYXFNK4KZU3JjUxe9IKoNRz3p3ZlMoq1za2tU0Ub94Q1YDRYp/oCgSuMa6YTYhw7aMEXs5JdZXf+d2ZvXkDza731GV8IMDgb6+cv56xv3D65qPBSmbBNb71Q+4GUiqN79HkfAhjvDKc4wuQOK2QpE2pzvxyN7BoaR55uaVsrSnlxZxSIjsul3G8DbKG/BfxEixi0g1lu9s1GBowUAAlhWQmOKh7xbC+Zh4v73aQOG46KZ6FDuqWeyuxli9PBszOdxujIvJy06Fhq8+HWl+8kUbSmVAS5hvK3cDN6Q7qKg0VTs083m2AtEkrwswkHOkszx0BDe/5VPr/WvwmRxiBzVXejCGDoOGQt6VReYgjDGJwhjGvbxmeFMWi9VTDRsMXpIG2Dt/VLfaJvpVW5Ydd+7ONn2PDxi6VnO1u5wWKcXn9K7toT5iALbfH76CPlPKiT6BbR/1B3zGQoUOs0PChN9hXfkgjVpLc50Ovnb+9LUD9kHANQ12vo3U+mB5fl/bdFd591RznTIA0EUv6r7gZt4hdN9Sp4yZXcidpCTTlzfVhh3cVuI6tdwKb7RTXNjkXBeh2aD8VeHT2qmFFEOC6OzArmUubyFzqtzgGA7+dp5oCLh86LB1o4MipszBtLL9im6tlMZYMzrLniDG188qk3+jS1eIU8QBoeiFlXa4Q+/cAc8AuEEOwbT7lgGk3YAPXle8NpOGgzud86L3zN65E4XwI7/jGSNt3w66hYi3+ps52nKQ5og0MXSquZl643Q5nvozkY+j7+fPNXxq/2SOYW/sUcwH/sQq3I6euhLH/RRED4uaECyzQ9N1uTmMO2vXZPwWagppSsZ/iLtOu0w3jToHO1b4/f/tE1M4Hs+Mbbc6eAceh+KmiY9INVb+vAdILWVQRpAFV+SGNpDN7raEJnLuBudOsQachhse/ie58nThtIXmGZqdtbSFpHbuoCbevtmYHRzqsZJZsCNLdZVC0murqaqqrV3NfZIUHGth28CyWaf/IckN5f7X2djI66nm5EuBW5k4bxJFNvyYnx/2va6AAWPe3yyHhPDkzIi5IxLIff9n5vv+yjOwo5Gdb6ztpIRzu825+ON2L7s9pTeSfUrRFdOxc3xOvFeROs9K4KZXyHPc/v4oskvM3ZxkvR/Fz7Jn7WF1dTXV1Nau70RcT0fkQVBjHN2zraDkVqtvcYMbfmZBwJZ+8Ex/jFRCrlkXlrZQfcQ5Ye0f9jTMNSnkxB+bX+jYRI5+d0XUmlHN2gTfgtNgnsrZiP8XGJrhfV1WXZr57dovnqiRAd1d3ypz7j7y+1IbFs8CGvdaG3dAy2G5fBhWPY1/6FLWe8hrv9N7G/ZvGUlvwFLUFvtl37v5X5tgNrY/nB7JrRjtZd12A7d2YPttlFlmW6/1H+8qqlJrdeRQbZom0795I3ZBCIhp2qbyVcrZRZpydBIFnRH1+mk5+gGXkTJblvMDjtT1/Fz66dKtZPVemkZwzLfatNNYWGq5qG3hjUwOzPRcTpby46Yau7xnjbLIIzt/a47T+OhOLNZO7imBnDJqkXb5v7s892jPXwjgfzL/74Rzf8NUXb2RCbaHhcwg8G6rolvNYA85k7Dv6uY/+xhVwmjf9mvuNX/IgM6K438Gxn37DrpVJwW/Mu0Tdt6aan478nNdmLeSFvi5Mdxlm/PhU+j34OYzsx19myVSoe2pu9INofxOD42tqxjk+XvIVJ1/THdwSA7+aNAI4zTH/E/d5K0+8D1lLHKzsi4LFq5xlzBwJHP2o/waKEGyT0gk6iSSk+7hrqgUch9hxqQeKELp/fM1cYPuSr+D9YXEVKEAti35pRsXj2KcN8l1o8qOEKyu/IO9U/P04We/LZtlflpBphc49K5m7bGdfF6jHutwkCN3q0nG2tICjrzHroYsxhHZPtI5vOIqWtfHokEGMKOnery7EkoKFiIiYUjeUiIiYUrAQERFTChYiImJKwUJEREwpWIiIiCkFCxERMaVgISIiphQsRETElIKFiIiYUrAQERFTChYiImJKwUJEREwpWIiIiCkFCxERMaVgISIipv4/Cw+nu5J50/IAAAAASUVORK5CYII=;" vertex="1" parent="1">
                    <mxGeometry x="442.5" y="42" width="395" height="258" as="geometry"/>
                </mxCell>
                <mxCell id="11" value="" style="shape=image;verticalLabelPosition=bottom;labelBackgroundColor=#ffffff;verticalAlign=top;aspect=fixed;imageAspect=0;image=data:image/png,iVBORw0KGgoAAAANSUhEUgAAAggAAAD8CAYAAAASYFxFAAAAAXNSR0IArs4c6QAAIABJREFUeF7sXQWcHdX1/maersY27iQQEoK3BIJbi1vREGiRQnH+FHeXFm8LFC/ulBYtDknQFCch7m6rT2fm//vOnfvevLfv7W5WyCadx29Jsm/mzp1z7z3nO27YjuM4UB/9pwHAdH+X/UZ/m/OF/w+fAj4FfAr4FPAp4FOg01GAktxwBTvltwOHv4Ih/3llfrGpGx580Olez5+QTwGfAj4FfAr4FPApsG4o4AOEdUN3/6k+BXwK+BTwKeBTYB1RgBYFZUVo6uMDhOYo5H/vU8CngE8BnwI+BTYoCngDCoq/mA8QNqhF91/Gp4BPAZ8CPgV8CrQPBXyA0D509EfxKeBTwKeATwGfAhsUBXyAsEEtp/8yPgV8CvgU8CngU6B9KOADhPahoz+KTwGfAj4FfAr4FNigKOADhA1qOf2X8SngU8CngE8BnwLtQwEfILQPHf1RfAr4FPAp4FPAp8AGRQEfIGxQy+m/jE8BnwI+BXwK+BRoHwr4AKF96OiP4lPAp4BPAZ8CPgU2KAr4AGGDWk7/ZXwK+BTwKeBTwKdA+1DABwjtQ0d/FJ8CnZYCbMdmGM2XVe20L+BPzKeAT4F1QgEfIKwTsvsP9SngU2BDokDHgbCW1czfkGjpv0vnoYAPEDrPWvgz+V+kQCH+32KZoFq4qqYrroXA25VdGw0cafTaBivC2rR6L3KtnmrRNV6bZ6zFRvEaTgo+ooBlpZixpUkrDNvqOoC+pmWl7pt4EQeOY2eGa3yhXvO8yRZa/7Ugl3+pTwEvBXyA4O+H9ZQChSSOR1Cuo7cSQQzbFdycBOcUUHK8oICiUPEI+ULXFPUO2IDBZ5lu33e393vmeiIDCho+g7LLgOMYAhb4MWVu6jv5yBwdwLaUoOOPY7k/fI7GIhyH13HsNByZg35n/pkCHFv96Je2bcC2RejxPnnlzEffz3v4XQEi6Pdoal0NwxWoWYI5XtrJO3FG7j4xTcAIqPXR78vv+HuT1OF3JuCYMEhiRUS5nrSUvzr8PgggJLQ1THWNegZBGW9Tz80QMPN+7jzkO66Vohm/zuwI/VxNe70IfK68jOcF3eVs8daXx2va810Lb7SmoFv7Oa7c/dXk5Nf9+W4xbTeQC32AsIEs5P/Ea+RoR/yHladBk4EIR/3ZPyIwORvKFzJ6Ybz8mHBcgCDy0v2NEqi8zhUeDkFEHrPXb+dl/DmaaRow0lnwIXNwf0wHSMWBAKVNGrDSQCqphDSFWDoFA7w3DdhJpNNJWOk07LQFO5WEY1mwbRsGtVjwTwUkbPf3/M4RgZ9GMh2DZSVhiNTn8wgqvAxfadekkdBJhvIspvyb2rKBQMCAaZgIcI5egSX3NWWGcGnnuU+e4GIm3pu2LaRsW96LIMkxuDbcLwQKerkMIECAYID/BWDCdAyEAkEETBNmgMCBfxoIhYKAEQIQAYwojEAICBBsKOHNpTVDIYSjJYDp/t4MASFeHwDMsPt7d5IEUWkCrhBvhMFreZ3MTYMMvceVQHcEoGQNF7l0V/dpQKgBinpVdzyDtCDtCXIai3u9SsVAQvuIbL2u2T2jAVL2IOv3bj9I8rMzifXwgT5AWA8X7X92yo0AgldTV6J3XQIE8UMr0ZAzDVG2CQeodcKGCQumk1TCme9kU0C4cxcBx19q4U3hToHLf1MoU3CnleaOGGAnRNg7yQRSsQYk4g1IJhNK4CcbBKg4dhqGYyHgWDD5fD7CSsF2UjDsNAKGg0CQgjEAiwLUUnQ1jADCoTKEQ6UwKUCUOqwARiAIBAMwgkH5t+N+BzMIIxABzAgMU93jEPxQ0PEejwDNWi747mEAQZgEGS4dc/Y5SWqYyk1SQEZo8OHYecDD/SfnR0FoE6QIOHCEBgrMcC0INgXiwUFa0SxNQJWCiRRM/puAKZ0C+Hu5l9fyPtKMQCmJVCqlBDKFvRiHSJuAaxUwYZshdUcGIJgIBMIIBkIwzaACIsEwgqUVCJR3hREKK6uE+9IGQQrBQyAMg/QUEEGakIZBQANN/ptAwwjRYCPXaGsGAY5CTq6FRBO0iAulOVjWdpHdGCA05nE+QFgXfN8HCOuC6v4zW0eBggDBO5RXn9FsK0flbmTlbxFz06byDANtfJdo2yJf0q5wd03z8jv+nUKJjJyCIwXHSgDxWiDWACvRgHQ6gZSVQkK0/ASMdAymFYeZisNJNcBK1cKx4rCtONKplPvS1LgDiEQiCISiQCgMywzDCgThBCIIRisQjJQDgajSlI2gEtrBMMLhUhiBKAwzDNMoQYCCSDRd77vx7xTc1JKb0hW9IkSDNK81R1CQ+1No6XmPFlaFt4bSgnN14fwrlc7f3Ip6rCwCCrS1h7/nPPiu2grlnXfWIpQLQt0xCOi0RYt7gEAimZB1JlizkRZB7aQTSMdWwEklYQvIU88wHAKQJJxkHE6yHkjVw0jWw0nFYaXSSNG6Y1kwCRCCYRi0QtBiwT+DITjBMByjDI5ZAjMYQigUQTjSDdGSKpiyN0JyHQGdcoPQYuWCCtKeYxlhAYXKopK1xOVaD5QTzWuNaI7iCnY1/TFcoJVrMcg/2y6waR338O9qBQV8gNAKovm3rAsKuI5ZebSrZXtN7672l2VFjZlJlt0rtkwlkrxSriykPYlPOAXYMWXK54fmacsSTZ7+dP5YaQtWOgUrmYSdisGwG+Qei1p8ihq+0jgtKy2mc4eCgJo/BQTHoKnbDMB2NXHDCMMMRBE0IwiGQgiGwgiElHAPBCNKq6RwN8pEU6fQMKiZB8nYyfxJK5f5i+av/csum5Zr+DualU3xnWflqpeVZ8FVjksgZ/m1oMkLu8jj7Uo/z46duzp6IZsWI80Lmdx9yeu1XUDvGjoVvCDCGzGi9kMRiKHxQVGc5AVJeq+q95JbtXVJXDoumNCbUBOfpiZtQeLeoJVCLEYWQKuOlYZDcJhOwE7VIW01wLZiYjFKWgmxjvCNDe5ZWp1oaaJrSdwqllhg6BZRb8iNH4ZZUg4jzD1VAsMpQTBYApPgMRSBSdBgBmDIDy0X3IN0fYThEGhq0CngLs+y09hHkFmcQutIC5darTyAmnMufYDwc3NeHyD83BT3n9cKCqjANuWjdzU9ic+i/1SF2mWEjzcATLSgLDsiLHC9z24gHE3vyuRPRizC2k7CtlKi4TmpBKzUGiRTK5FK0UefgkEhn26AYyXFn06tjr/ncwKGKaZ404zCNEvgGEFYZKShChjBCjG9R0tKYASoBRoIBIMw+RPgj+uj1uZi8T27Wrj4h7VW5zW15mvdXiGV1fIaEzyfeyutsLEmqCGV1YQGaMCQIL1CemQWkOSHoDWOFMl3FxXbJk3pq/m6rrJb6I+W7WoEFUgoP57bFFjMe3a+RNNxDc3sZL1bxcTvxnAQgGiwooNC1WromIACg4rXxY3BkJoWfCttuXDjcMTK5f6OwaMSK5KCQ2uVbcHiPk0mkYrH5e8KS8RgxJfCSNfDkZiVhLjA6H7hD+ft2sVU0KZYnCphBvgTUa6RUBlCkVIYtE5wH9NCQfeHxFEwzoLxHASp/PGueh5R9SLwNdyzrXCM3qv8R6AFFqJWsBf/lqIU8AGCvzk6PwVEk6fP2OPbN2iUtOkdhikBZUo4yp/CjJXZVnz52rztJGEgATsdR7K+Ful4LRKxWtg05SbiwjDtVC2QqlOmXduBTUZY2gUIRsUMS81emefDCAbD4i+mRm8GaeYPI2hSs4/AYOCaMEYK8RAcOyi+eGpi4i83DZghgommgiq9grwlhtyOWkrCquKfjEbapsc3Zx9o0+Cem7NWERXkt/bpn83NVAMDvWIqLlPdpS1V2e+yozVVzEoHwaoxMhDDA4w9IDkD1vLcOhJUqkGkm6Fi1bsWDQaQKreYhC1yj9JikayD07AG6WQ90rSSWTyHBBNJmATJqXqkEjWAHUcwaMAIRuAESuEEK+AwdiVaDjNUjvLKXgiKtYLnSJ2DrNuKYFhlguiAUduw5Xxr6CqBoaIMaIWgvfaDP05TFPABgr8/1hEFmrBB6hlleKfrz6fZlBqFq1nTbEoLguI1tDIkALseiUQ9UqkaIL4MTsMKpGJrkErEYSfoz4/DoU/YovAPwQ6VCOOKREsRDkVQ0qUPAuXdXeFOv2wpzECZmFUNugIYcIaguAWURmrDMHU2Bf8dhAPl89fTZxS8KH2eTAd5RQIbv8LhOtp/+ZvM669al2CsHckhVgWPDUWQik5XJdimEOYZ4m4NwZQgR5UKq2wabrAlXSI6XsK1LgiYoOuD7jIrJvExRjImMRRWsg511UsRq10DKxmDYcUQRhJBpr9KpkopwuFyBKJdgJJKoLQLzLIuMEu6IBAqFxcHz5ACDATYnA4DVF0XmpdEXrRWdNmahrdNU7yA+agdl6izD+UDhM6+QuvN/Jo6SPmmb/1vpUXkanHudxL6r1KwGLHPSHPHbpAALpuugDQDuZZLoF9DzRqkkjEk4mRUDApLgUl89JMGzRBKolGUlVYgVNoNZklXBEIlCARDMINRGKEyIBhxA9MYFc4UNB2Up4O4VCpZJmXOo6wpcy/n53InMT9TG1IODaXxuPfnKq/rzcpu2BP1Lor37+v7W2swUMSUL9uVKZUKIBDY8kcEsu3u10IYSgAC7+P4QRHaqm6Fa7kjaOB5Nd3UWpsxE3GA5zZRD4sZNvGEuO+SiTjq6+uQTMVghhKIBBIIMKaH8wiUwQwxyLYC0a7dYES6IBDtASOozq4ABmoGUnvCtUYIgMiNU1C8hfNzfReNlrWpuAYv39I3Fg1CWd83TMH5+wBhg1zW1r1UC3T6RgOrpLGspkJWQ3emIfnZPLAclQyDfnodhKRjA8JyjUMmwnNnp0XjSCcZfFUDK12NZKoBqURMcvrtVANC1FDoT2XQVsBEKBBAqIQmf/pAyTxKESkpgRkpA8JlMAgCmG8uGlEYCISzAECEepapZFmpDl3z+vvzXj1HlhQSMtqnvu5SL1u3C/y7NhwKqFTLwh8t/PQ+1fUb8sBs/s26sJJk43gEMs+SwzRSBZSVzHatMlo+y1zcOhliuaACoKwQdmI1nMQa2C7QTyYbkEjGkUzxJym1RUoYt+PYCEUjkrUh7oxwFMGSUomFCAe7IRTqCiNYqmImCBakGJaO13BjdphWnPm4GTQegJ/9zi0iJpcXOuP697nRLRvO/iH79jq3NqQ389+l4yngBmvrFDSlNbseacECNKHzYBEAxBWKp/ZvWUjHa2BbCTFHpuuXIxWPwUg1wE42SC552rCQpuk+FEZJtByBYDnMYBmiwQhCobBo/Ua0i6R0BZgPLjnf1P7dIjRydl13hM7RzzBLzSC0yTJfi/BqDk3FCHQ8if0n+BToOAq0cJ8XNKzoez0adSbWQle0LDBzXfabX3nltJxV90GMg2CApZ2CZSdhMSU4VQckVsJJVYu10ErFkaIVIp2UH6QsRA0DkUAAZiiAQDgqLgyjpAcC4QqEol0QCJdL5oYULhNLgwIMDlgrgtUxHQQ0UNBBk/J6bmaQzp7Sxcgyr6crWq4Fr1hPvFg+QOi407fhjyyagWvKdDe8QzBA06WVUJYBmhPSNUDdPNh1q5CINSBtWaipXo2UZUsEf7Q0gpLKbgiGAwgwwj9QCiNcDidYBjNYiiA1ggBT+uibVOZ7ia+WOAC3Zr0c+oDEBhSOqBc0nK00KKujC8z46VMb/mb133C9oYCnaKYoGOK2o6UjAQcNEkjJAGTyF9tOwE4yWDIOO0kLxBpYDTWS+kkr4+o1q8RFGY1EECmJSDpwaWkVSsoGwqwYBES6K9cKszAMVVdT4jTEVUL8wEwMb6qwthp4TTPaJeMDhPVmj/kTbQkFdMS/16im8wGUUV5Z1zzGd0cnFmqnvAoMhKEqA6ZrlyNZvwLx6iVI1KxErL4OqVg1SgMGIuEgzLIKlPXoj1B5FRDuBrO8J8xIJWBG1WPcWvfSKUDS59w4BakB6JmnHF63IoI2FDTxygq/sM6/Nje6mo9OJWy2wE5L6Olf41PAp0B7UMAbS5lV1JU7QsUTuO4NXd1TLlJuC6YuK/jPQlXVsOqXI163DIn6VahbMh+ot5CKBRC3AwiUlaOqdx9Eu3dDIBpFuLQbggyelJoiVDpKVLEwm7xIl0bXzlid76oqiWZdtEz9LWIiyE9xaQ9ideAYvgWhA4nbqYfW/sCcxkKM+WGFfgUI3PA6KTGrCgQRtetgwdWwUzXiEohVr5FApOpVK2GySIsZghmKoKKyHJHyLnCi3REIdZPgQCnCEqCpL6QKBEmFQR49Bghm08A0FqcBIvPx/F1cnu759FpACx9LZTlQkECrJxqM+NaDTr1P/cn5FPBSwKusuEJZQX/1UU7OTDsut4yC6wuVUKmUpDSn0jWwEsuRql2IWC0znRropZDEactIIBwpR5ceVQhEKxAIlSEY6QYzUCEpm2agRMUz0VopqMCEbZiwDJZQZ12VAAwpY+1hXbq2gwsjsjU/O7evwQcIG/Dxa5zjrX183k2pcqNVMT1VdpYlYPlj2hYM1gRoWA2roRYp1g5I1yOZqoaTqEXISMKyWd63EqUVPVQJ37KuCJT3g1naEw4rsbnhgcp0R+udiiZWtfvVh1HIKmQhN+0v/+hIQKQL06XqnW7547nQ61XNXVoPQMg+2S+8sgHvf//VNmwKFDrr+cpCDg/JKBjKRalSPqkOpeGkLZVZEZuDZP102HU1iMcZD8WqqUDaDMIJlqK0pBIl0QqEw10RKq1EoKSLgAZaQG0WSXNbfEmcgwYthgNL5Tm7ikrALfmkg6A77zr5AKHzrk0HzEwfKa+vzILlxKVISgAM9qlD/YqFsBMNiDfUIl2/ElGrDkHmTLNSYEkZzIruMEv7IBztA4CZAkEY7GxHfx1YJyCsLAKu2d50eFzcoreuBqADiVUdANUilzXii9XSZ9VEFk7RY9KEx057jVD6WlLtfytpaS2J41/uU2A9o0DWzN944jpmOSezI6fdNUufM5g6AScdl4ZdjuUgHUsi1rAMlrUKVmwxrPoVMFlEzWLBsxKUVPRApKwXAuEqRCr6wiiphG2wNwbLkKuW32kWbstwNwIETzvxTkxjHyB04sVpr6np6mluAlIm9dCx62CnVyBVvxj1q1agetUyhFJpROwkoiVRGJEKOJGuiFT2Qqi0q1QSZLlVBEphMWYgY+JjcSDlXDNsVe2en4zx3mFoYW6x3ZzOxhokiDmhkMlNlX5VAMG1OrAVbyEz3loSzQcIa0kw/3KfAus7BbxuywxAUPxLded0YDEQ0mVHLHSmrA1shV4HJ70GTqoG6fgapFcvg1NfjVSMPTEMWGYZUN4NZd37oKRrDwSjEXGr2mY5HCm2xlEJD1g22u1j4pbhbtTPQujcFOTp+IXwAULH07hDnuAJG9TtYFRRnkaNd4h0UzAMtw5B2kEquQb1NQsQr12A2PIpSFWvRjRahmD3fijtvgm69NxImrjACQEOg3RY1YybWddGVxUN5TBJcKJuAMO85ihoi3BjCOXdmT2QrSuoyJFzRjUoKFpV0K0NnwcQTB8gdMje8gf1KbBBU6AgQHC5klSbZGwBAxR1KZdMipbbdp1t1hvEYmozrdotO22la7F61VzUrp6H+Kp5SFcvR5du5Qh174+KXtsi2rUvjAj7tERhOGVw2D2TplQ35lKlU+ZTnm5fBRKykRVaSer4VfIBQsfTuN2fkPW96RJFSvgHnYjS4GnOMi0YdkyKj6QbViPRUINYwxrE1iyCwX4DLDJU3gMVVYMQrugtLWQDIaYTlgPsI6A7tEl/+Xwgmw0JykT2ZoIemWroOVAZp4D3VOaRpCXlhgWQZD8qZTrvNOU10WniiZmBfAtCu29Pf0CfAusRBQpwCS9v8bIYzeNYKZJl39lXhanVrtvUdJtosaW3lahFKr4a8YbliNUsARoWA8k6RMIlMMr7INxlOCLl/RCMqMJODjO2WNxJqswxxdKt08AxpZMseT0ttdmg6p8jvNoHCOvRVvZOVTWAYUqPVALI9qK34rDjzAVm8aElSK1ZhFRNLWyUwiqpQrSyCmVduyNUVoFApEQVFsoE+7F0qqfSoFfVzzjwOjHB8vBC8YBFD9AoWjWhE7+nPzWfAj4F1iEFpM2l22vKTaB2QYLEUDEQm/8O8Du23q6FE2f6dzViNctRVzsfSK1CJFqGUKgnUFKFULg3ohW9ECgpA1j4jUqapHnzOQQJgC1KEm2xKvZKN3HvSEL4AKEjqdvGsQtpwLId3f3JDROw6fdvEL8Yaw/EVs2CtWoOApYFo7IXAl16IhTpgVBJLxhlVRJtyw2oNGcCDPrciFClYbFq05rpRZDnC2jj+3T47T5A6HAS+w/wKeBToBkKaIAgnVxdt6zwWWZhsZU8O8kuE56drl2K+Ip5sGqXw45EYHQbhGifUSjvMgimWalqwfDHCMA26cKlQqgAgjcHoqOSJX2A0Il3u7IM6H71Ci5IKqC0P7Zhsyth3UIkVk7GmgVfIG12hVFaha5d+6O0+xAEyntKao7qRKiCY8SUJRGCbhMTMYvRRcHx3VrlngyENpOnJXb+Nj/EHcAHCO1FSX8cnwI+BVpLATHvurEMWpLrzppup0zlmk3AcVhLZjXs2CLEahZj1bKFiDckESztiS49BqC8+yBES6tghCrhmBFJpVRWhKzLVXF2FRTulo4rzBBb8T4+QGgF0X6WW1wQIIEyghNE35eyoUZqJVLV0xCf+z1iq1YBoTKUdu+D0l7DEOo2GIh0AyTNRsXlcjOqSgPcRgQInjdwo3g1GJHIWo9vX1/aJoS6jkFCU+vVpvf6WTaC/xCfAj4F1isK5PM7YeDe1tuM62JAompWxY6aBn+oqKUbkKxdg9o1S7Fy8dewrNUo71aBHv23QLRsNIxAVwEKTDmni5m1IxVAII8PggmUuQx+Lco/FyCyDxA6686TTaZSayS9xkkjFVuJ2MqpiC35CamGenSt6IZotyEIVm0O0IXAiFipHc6aAtyDemPqKANvZ0G1i3XioN7TqtBH9tMoPrGd6NWsYG4PUNHsQ9rpZfxhfAr4FPAp4KVADv9yuWgOY80KbsWnPWqZbcFx2B57IWKrZmP1imlI1q9E93A3hLsPR6RqOIzyfrADJUg7zBhj50ogxK4SAjxyNMA2RVn5AKGTbmvxNjG+wEnBji9C/ZJvUL9qDhKpOMrLe6Oyz2gEKwYCBoNaonCkNzozCFzflIS4esP09O5U7gWvbcFLAh0Zq5wb2QSG9iSTdyZFx/UBQnuS3B/Lp4BPgfWFAtIsKqUaRtkOLGsN0vFFSC6didpVy2EGTZR37wGz5yYIVA6GgwqJHQsaTHR3K+Jm3rVteVo+QFhnmyZfAurUQPV7KX+crEVi2RTULfoSVkM1yvtsjFCfUQiX94cRKlG5upJHq7oVOfRPucOofuwcSYoYe370CxOCKOdDIYCgf9eSTIDWkLDZbesDhNaQ1b/Hp4BPgfWdAsJ03f4Rug02MxjsGBK1S5BaPRsNS6cjZtWi+4BhKO27Dcxwf8lIU71r3KZSGbtE602pPkBoxWZqidD0Lknj5cmtKqim4IpMRrvaDpzUMlTP+wjLZk9BVdVgdB02FmbpYCAQhiMljdVGoJVBbSbV7CgTA5MpSlgsikC3Ncl6rAoJ7faQ060gcat6KxY6Bo3cgZ7JNAtSWjPx/8l71ImwuW9ZVjuQ7wdtntKFToSXlM2P8D9JeP+lN1QKaMYlwY3u7hfpr1pR28laVM+eiNqlXyNU1QdVw3ZFKDrUjTNLSn0GaRhFX3OruKkrlRxd5WFDJXQ7v5cGB00xtPywkFzmpuMCtBFfT1CV86xf8S0Qq0Zq5bdoaFiMLoN2Q7RqO5gh1vdmGiKDUtgFkWuvixprgLH2eyEbpZAlVL4Hq51J2GHDFToK+QAhf91ye6512NQ28IFVI5o0G96wrDZ7c+SgtUIWrNz9plvZFCMUR2gbq9vAl8B/vQ2PAkWMzEo3ZHfdFJK107Fy4WdIxupRNXB7lPUcAYP1FwQYhFVQep6VeG0I5VsQ1oZark++OWbWLEAgKmS1rMxHZSiYSGH6pD/DWPEtooig2+hDEBn0a9hmGYJ0Obg9wAQOCM9lqmLrzUccpxBAWEuSdJrLmwMIhSw/PkBoj+VTOd62bcMwGDClo1e8Yxcv6+KFzD5AaI/18MfY4ClAecAf20YqvhBr5ryHZN0ydB+4A0p7b+WCBLfgUocDBE8PbtfwkEf/dWWIXjfbQHciLPp0p3FPwqwY1+kuiqnqD0sVBRDHko+uR2TRlzBL+yI48hCEN9oXyUA5IjTdioRjngEBohuNmBOxmj+j5ozuLLqRmxSzbijaPk9tzgxd6F3blgTUPvNe/0dhaVjVNpzmTLbvlo9uQiPbvOm6bwK6m8G6LbIgdBQr8s6tET9sjxXMf/mOepGm5qpPSHMnqTPMtT1o3hQczf9OxXl1lg/VxRTSsBFA0EnDTC7G6rkTUT33J/Tfan9EqjYGwH46Ki6ttYpk8xYE8W+TAWjztWfzZPYwiVdMOLk+8pzk+xaQWToFegRtpuNVC+7t6Eu83QcLPUvOmYcgmb+6BJOqWqrhkUo0dKSMpmklsfT9v6O8einCQ7eDOfyXMMoHIm2wuYeNoG2pZkz8SB3w4i4FdVXLAEJHk+vnGr+545tluQpcye5q7qafa/Lr83NkP9PkacNmYy6p1Ome+4wxISvei4q+Amuhr21OZClA0joitug2mZsKHFOwusBHz1++dv+RD+C932WG0Dd6CdCcnbKl75o718Yzz0E+HiIqihdXdTpiri19p468ju/l7lUhgXpPAb9uM6XOwDIYYh6TEHNDlEfJdkvOw6pvXoQZKUX3zY+CgZ5w6GroMIAgARKkjoWl8+dh9erVMCUAiS4QFUxHmpmSh6l1MX18dP8+F2DYquFEThGeopTqzQ4NAAAgAElEQVQ2YEshCPcCh8+ggV0HbGQ3SIsOdzvtJ5mPacrcivIHFysFtLPbbSAk/xR5pGasmnLQsUCypOXHTKXQMPtHlFV0hdmtLywjCMssgYOwFNQwpCSyyj4gRSz2JJfshcaEpHGJbNo0uTruMnIunqZH3POWZcP6OYnYTmuRP4wc6zycqsqSZmnD17TEPWeiS9cuGDh0SKfSCjqINB07rIBhKhAOalevxpzp0xGKhMVHarv8Q3ULyW4yvQ5e4Z/hHnl7MYOHubbF9BDPPY2amRbaKPo8aBdbls3kXO3VpxXnYdtynrwAzEwH0iwuyeVuxfCKA9NmNVQtetUeVUXNsntVfutW32utQFIQQwE1r86Sy0VdjqQBkIdH8zwJb5f/Kwbmnat6XwemQz5WOCorBzN17E5s2+hcT5dI1MqNQABmJIyefXqjons3T2t7tlhoDJva9vC1v5tFktJalrjFl00kEVv6IZZP/xx9R49DsGyY1MTh4nWQBcFNtbATePvllxGNRlFZyfrQjmgKCjyoDcjfqQNlqop/7qbn7xl1abACYAafuqbtIhqD6NWsPe2KU47BApNBbkTXkqAPU3NmybUnff4dmk3wNUlpE5bU2M4VPN5XkYPlmRhdEhRMmgVk4gdMRxhNwLFg2hYCVhoB20aazzHDQED1ReBQajuoqltqpAAsVlyWo5sLWBT2V30aSDf1aIKJbF0DzZAkzZFgLJ+7tZ1wP+sIFB75Juh8gCDrACCZTKKurh77HXowjIDvZGjTQmmAYDv4cfKXWLZ4MUpLSzNDuvqXazFTv6YoSevOm25dFw3uvALFK9S4SsrF5pmtp3un2xHX1fCz1+SzmHwszHOpz0XBk+8yLalB5jpKQgIRFNPVU1LnKcsVCmNu8kllXSRAEGehsFgDlqnikHT1EVY+1YK31QBBeLLi4fkAoaVrztp8JuNKXH4nNVldMJMFCGzwrrl1S0fujNeZsG1Wqw1I5viyFSuw6dZbYeiIjWGLS1etRGcACEpR1MqiznNwkF71KeZ+/RZ6bz4O5T02VcGKrd1AEubWVBaDtiCkE/jg1X9j9OjR6Nq1KwLCVN160C5Y0AdC+RLdssDcVo6NAIUfQYKgYrd6X15rXu92ETxqEGgoK4KK3Cfydv32HsTfpPLbBsLkbl/3hAmWZuUqDRCU8PUYC5Q4dl0QmnlkBLNrQSDIUYefmpc6eopduDjdcHG7OwDbN1uGhbSRkoYd/LCspum2BM3aCNSsNSDgc5QWohiF9vMqmqlIV75P1vrTGQ9ty+bU2ILgglTP6dAAoSHWgK+/+gp7HrBf1l/essf4VxWUosqa+OPnnyMaDqNPnz6qZwjb17pwVhqCuedR6oNmFTaRXhT+OcdVQLFH0POaPKeZFy+o/O/s/s8qI7kTzv89gUqxmKJCWjctCAQI0lNP+Jz6eK/1zkN/lzMLCqEMGFBnMW0YsDKuS8J+SxSHXHeGopB6h0KcL5sSJzxFCq25SpwoXWoWGX7l4aM51Pe4c6X0OhUiN/BUFW3PWi1JAdNRACELkRrPrTlW3CQf/xlOnaKpAcM2YdpBWGkL3/7wA6r698OQTUfAlsyAzgUQsuqe3oMOLAKE/76JvluNR2nXEWLxbkOMYksAgkOVCx+9+boAhLLycmW2FheAEjreACNlbFIbiItuOg5C9J9nelDlv1bj1afZXOFR+tnd4yDVpVh5OteUlbOxGu1CggvP+IV2YXM7Vx9/t/mGwcMigYK6SYI6eLmPUe/vPZDeR2t3iWq6xAeYsB31W8UAVEAiaaepnDJtJM20xCrww5rbEZmH/inAiggQBGXqjgwqNEIhf/5niqWDa7khfJRJNMuesxpZlolTMDXEY/jmi8nY4+ADVdv1DNPN/n1DoMfP8g4igOgiA6Z++hmCARP9Bg0W4SlWW4VWPWLJrUrvsSDwa1mGPJDgFdzc9vkZJzlnSjC82ufcB/JdASUk30LhBc2FWIEW/No6oLqZmK67Q50usSTQAsAufu5eMqlxau3d1biz4EQpPtn5U1UgQMiKWKpHWivXz9Y3KMuFju1y92yGzkrdEBeGuGVcKOICLrH80pJm2VKvQk2TC8BGblnwIS5keY4pQE/NV7Ub1kqgtiAEXGVHppDh1+rZmdOoX95lyM2x5Z8bMGjysVy9aZtw0hZ++OEHdOvTB0NGjYQdVJZWxXvbpJS34Vh6qeJCxJyYmCQaFr6HpdM+xaDtTkSgZLCacxvYezNBiu6EEnF89Nab2Gz0ZigpL5cDQTOLOtPaNKYFPwVjxtOujOGMwPd42JpbfBnTY8bKsvfm7sxj8Pm+Ivd2DRpaNlrueirBSkSdNXcKE/FsGiWSs7/wskd9MCj8xTfo2vZzGYZicryG14sxSawIqi84PxTsQVe6KQGvZ5G/edVzFL5310ydZMVIOoE/rQ0nJsuA9No2MZgEeBoG6uIxfPvpF9jj0IPhBHIzOVoUKd8eE96gxiBAMDFz0iRpHtNv+CagwqX3qiyNB9fnaLIeie25JaOR6zMq3zUF8D3ggtd5z1+G1N77ve429wLv8/U9mVPlClKtkcu1WqvWgjAT0KY0eYIlnm8KZZqsI5EIHGZ7kL/ZLCgVlFgui0FAGZ7pnm8GLbtKqxkMwkqlVMM220YoFIZlpUWIMZtJskbILziGW1iHAIUpcJpm8m8uSCiI+toamVc0WoKA3KtiIKj48Z0sy0I8HlcWIAIH+jKlzYuyNgpNPLRUdhQHwZBqI2/RTcp283KNWgw5V2JVUgueARPCA90gwAxNm1ci2/v4qFlRYVPuciOVxpTvf0SPPn0weNRmcIK66FCb5G0bpp3l767gFXlAwCb/SXffJVj4xSOIloTRc9SxQLAXYLJVdOsf2wKAYACJGD4kQNh8NKL0LxIgcPPIxufm0n5wxWzzfXqyOfIOd3OxA3nkaPYNtcwTAe4SRAdmZLwosvg8CFlW0JJ5NIIIeUGBubiu8Gb3juGdj3uEFFDISZ/KJZjkvHL+LhYQiruBNTrtXIu6QvtB0VO9t8Q0uOAjn7DNBbN4PVLNXdvsov3MFwRFMhmoScYxZdLn2O2wg2AHlXFUfxpHdPzMk1zvHqcSrthGfO7ECUjaDvqNHIlAzoGnoHT3nieMQPakPqt5WlnhkLdmiKPL0xa5TM6Qmxul4wey0iobBJmv3WbABvkd885TSeEhSiArAKAVBCU8lfshWhIVIBBPJJBMJfHNt9/ivffexy677IKhg4eiqmdP3HXXXdhoo41wwAEHZGI3+PxEMoHJk7/E4sWLsOdee6FH9x6or6/Hm2++ia7dumG7X/4SpZEogiK0DaTSKSlUxVNeX1enAIfEfyk+QjBCABAqicrcWcwqnUqrXHodYSBGUfIYE6FQCLW1dVi0aBG6deuGnj17uq5lV8nw8CvFExz8NH06li1bhpEjN0VVj57K4uAK3DUrV+GZZ57BJiM2wc4774xQkPMJuFU3s6wvo7w14YLuqCMiQEcychgwnsa0735A9959MXiz0XCCjAdzU8w7agJNjpsPEBwBCLQzBWgtshOILZ+AOV+8iGFjxyHSZRvALOngGAS97YsABK39cpIaV+nDlH/AvVaOtRX+LV0PEVhaI3b/rG9oEFMRMzD69emLTTfeGOFQWIEEScFo2v7iZWLF5kHEzA8PIGkyefJkQeBbbbUVysvKGkXKa6Yi4CCTP970W5Ix1dXWYe68uVi+fDn69uyFUSNHZA6YRuu5cfvZMTVA0KZCIvz58+Zh7rx52GjoUCxZulSY0JAhg4V55H8453nz52P2rFnCJPmuw4YNQ/8BAwQsrg8FOQMuQKhNxjB14ufY9bCDYYd8gNDS81X4OlqnUtIXZP7EjxG3gL6jRiFguhk6Lii17dw0R+3q8o7pPYmtAgiucM6fJwU49/rMWbMQjUQwcuRIiaXKB7jaSpEPEDKuCgdIpVL4eMIEfDzhYxVT5aZjW3ZaCWgD6NunL/b99a+xyYgREhDL619/8w0Ruk8+9RSOPOIILFiwEHvusSf+8re/YsexY3HDDTegrLQsM6eVK1fitttvww8/fI+bb75Z5jxt+nScffbZ+OUvfoGzzzoLPbp2RzRCXhbAsmVLcdVVV2HhosWorKwQiVtTW4fa2lp07dJFAsx5RtO2jVNOOQU77LAD3nrrLUybNk1p+67loKyiHJtssgni8QQGDRyIv99/P/r164v/+7//QyqZRENDTCwFFA3kcX379UWIwhPAY48/hicefwL33nsvNh05UthrKpFETXU1/n7PPfjHE4+jX/8B2GuPPeRdR40aib322kvxMBfQaItma9e/LXtZnChOSrLFzHQaM779EV179xGAYAdDqgjYOnUvZJVGnjpliwrASMVhx+ZixfT/IBIuRZcRh8IIdlcyuQ3uBdJy7S0IFHhae1V/c4MJPc5cd5W8wXsFUXlbVrPAvZkDL+BAbIJ47/33cdXVV6FrZRcccvDBOPqIIwWpB4moaQJspviFaAduHqkWgvmWicVLlggA2XTkpvLcq6+5GgsWLMD1110vAVtCaE8+raR/icrhmgRdDaQQOXSuPhnTe++9h7/dcw9KIhHssdvuOPGE3wrDUwvJ/6ssj0KafcaC4JoyyYBuve02zJw5E5deeimeevJJxOIJXHTRhRjQv3+jqVRXV+Oiiy/BT9N+Qt/evbFo0WJsttkoXH31NehR1SOb9tXOa9qew6nUUxM+QGhPquYChIQF9MkDCMqkrllr1s2VZ/HPsYS2p4AgMLj+uuuwcNEiEcYnn3wy+hfY47I7aMhzAbAAeNdkTl6h3P4OJk2ahA8//ljteQMihL+cPBk/TpmCjYcPxx9OPRX77bcfSsvLEI/F8MGHH+Lee++TDLB3339PtP/y8nIMH74xnn3uWdx8083YfswYGau8TLlwv/7ma/z5z7di+PBhOP7440WD/+CDD3DHHXfgpJNOwu677UZbvgj/3r37YOnSJfjd8b9Ftx7dsc+v90F9fR3eff99fDF5MsYddRQGDx7spvd2xfbbb48ePXrg5ZdflucvXLwY2269DT757FP85rDD0KdvXzz11NM4/fTTBEQMHbqRAJKHHnoIs2bNElcDLRZrVq3G5VdcjuHDh4vC8MQTT+D+++/HG2+8KSCFhoXFixbh5Zdewj1//StGjRyJvv364/vvv5f5XnThRUKnyi5dUFnB67Or3p7r39LdngUIKQTSFqYTIPTqg8GjOw9AUC59xeuZ9B4iv48vRmzWx0jW16Jy+I4wuw6Vxk1SZrkN7oV2AQgqjI6CNg+qeJ2H+e4Fj2mxpYvXkuu0YNQpOfTT3fKnP+Gee+/BlZdfgV//6tfoJaayAEpKSmRTJ1Mp0QqoNfOHf2eWRiJBMyJNbQyvVLnz1JytVFpyS2naI/Vj8RgeePBBLFuxHJdecinKKyowccLHMs6Y7cYgHInIfWQ6iWQSwSCDgRyEw2EJDkwkEkqg0+xPX59rulQBRKYcRt6/etUq3HvffXKgr7ziChm7f18VLc4x7HQakUhY5WqbAUH5PKCcRzrNrQRES0pkzikrjXfffQ/X33ADxh87ThjQa2+8gbvuuBO/P/lkjB9/rOtr1M5cYM6cOTjk0EPw6332wcEHHYRnnnoa77z3rjCSLTbfXGhV9NPGTdqStW/JNUG6Uh0D1ak4pk78DLsedohYELzb049BaAklvde0ECBkqnp5NoO2y2tJ7Bm2JZa7ZmdKjTmdxltv/Qfn/t85OPLIozDumHHYaNhGYkWkQOKZpAWM8QH8SSXZZtcWpYB/l8JP7vfK2qesfsuXr8CPP/6ALbfcEq/861944KGHRFAOGTIEW225pQg+au000T/88CN46z9voaa2FgsWLRRLZllZGdK2JdbAPffYQ4AB+cIxxxyNgQMG4qxzzsHMmTPQt08fVJRXYOyOO+K///0vJv93sjynS5cuqKupwfHjj8NBBx+MVStX4uQTT8KwjYdjs5Gj8OWXX+LHqVOxYsUK7LD9GASCQXm/3/72t9hmm22wZs0aGe+fr/wTM2bOxCEHH4InnnwS559/vrgJbr/jdtxz7734xz8ew/Bhw3Deef+HTz/5FG+/+w42HbEpvvjiC0z6ZJIoKn379hX+9d+vvsIXn3+BE044AQMHDhRQ8tyzz+Kdd98VKwKBSZeKSkyZ8iOqa2sEKJWUlGLP3ffAQQcdKDxZfzrKytzUntEAAXABwnc/oltPBRDyXQz54LbZvbiWF2RDy0VMCyxgnQOG+7NggBwdO4WQvRKxmRORXrEcJYPGINRrBBCmRSYEOHSLtI35ttmCIKmIEriiglcyekJWtghp8qfZnO9/LempnpEhhiGC8V//egV//dvf8MOUKTjmqKOxx+67Y+nSpXLdqaeeKuY/onIKv/Hjx+OTTz/B1ClTMHjwEHz/4w+CkPfaey+M3WEsSkqicpCIupcuXSZmefrSqE3c9+D9Yj484ogjcPhvDscnn3yClStW4Nhjj5XfEzG///77mL9wIYYOGYKxY8di6623lnncd9992HjjjQUEfDJpEnr27oVx445Fn969YaXTcrAJAN55+2385a9/xey5c7Dvr/fB4YcfLlkldGdMnDAB9bW12HTkCOyz96/kcJKJLVyyBC8+97y8X2XXLthl553lXWKxmAAnzuvv992Hqp5VWFNdjauvugoLFi3CU088iYqKCnm+/syYMQOHHnooLrjwQhx99NGiKdx2xx14+sknMWa77ZosxJHx4bZmUdvxHgEIAGqSMUxxXQxOKJQDENadCbEdX/RnHaplAMHKAwjCD/IUh0Km/da+iggY28bnn3+BR//xKF599VXsvffe2Hff/bD33nth/rz5ePudd7Bo0UL06t0bO+24I37xi1+ia/fumDl9Oj768EMRZLFEAttstTX22XcfdKnsAsu2MGvmLEyYMAEPP/wwDjjwAHFf8MwfcOCBePvdd9GrqgpnnH6GmPEZ8Ddn7lxxLTz59FNIp5Lo3acPBg4chB+n/Ij99tlXrIzPv/ACtt1mG5xxxhno3asXDj7sMBx84IHYbrvt8OdbbxUFgdk3J51wIvbbd18BFuecey7+79xzccy4cVizerWAewIU8pzZc+Zgt113VZZS08DUn6bhsy8+x43XXS8xEOR1l1x6iVg+6+sbxNpRX1ePQXQZBoOYPXs2nnzySTzw0IPCn/543h8FFFx26aX43QknYPHiJZg4cQK6de+O8tJSAVEzZ8/CT9OmYa899xIr5P777Yenn34aEyZOkOqap5x8Mr799ltxuYw/9lhUlJXh1VdfEzqdeeYZYmFZtx9WmklBAwS6GAQgbDYaoItBsjnUpynrV3u8A4N9dSEkci2qMSbiqkAegaphIphcgdT891A9Zwa6bLQHIv22BYIlbrqPVnW8UnntZ9YuAEFVPXRz+DVIyDv8+VPraIBA4f+Xv9yNx554QhDxNltvLaj+jTfeEDz2+uuvo66uDlddfTXee/89vPXGm3j00Ufwt/vuQ/9+/VFWWoIZM2egT5++uOvOO9GzqifOv+B8TJsxA0MHD8as2bOxy867iLXh2RdeEMvB2DFjBIFzzHnz5+HFF14UH98tf7oFsfoGDBg4EPMXLkDADOCaq68WkLDttttKVb/ePXvJfGbPm4uTTzgRF1xwgSBqWhJq6+rw+GOP4Z777kWsISamunHjxiEWj4u/j1aRHt274+uvv8bWW24hY1MzOuOss7BixXKMHLEpVq5ahRXLl8sB32KLLXDueecJQ7roggsQDNGH6ODBBx/E408+hccefRTDhg+XTBVaMKjZ8GCPO/ZYXHzxxTjqqKPw8EMP4YZbbsGjDz6I3WjuzAFouavdWQACXQwaIOgYBB8grD3TyF9dbwxCMRcDAYIOks2AsEKVEb0MuA3Kj6oSauGVV14RPz+1acYf7b//Adh89Gjc8uc/wbEdDBk8CNNnzUQ4HMGfbroJO+y0M66+8gq89OKL2GjYMLG6ffrZpzjwgANx+aWXyVk4/ne/xYABA7Dl5pvjiaefFgBfV1OL3n16Y9ddd5UAvLf+8x+xsjHAj4L28aefFG15ytQpAqjpoiOQOOHEEzFo4CBxg9INwrNJfnXgYYfi3DPPEjBw2hlnoKqqhwCUgw46SHgZ3Rq//vWvceaZZ4piQhfgSSecILEKjImiW2OjIUMFHJAOS1YsRzqZwp9vuQU77bQzGhrqRbm48667sMnGG4tV4Z77/45LL7oEK1auEFDyl7vvxiOPPoqRm26Ks885Rywt519wAf47eTIqKiuFDx1zzDF44623cNyxx+I/b7+N+x94AO++8w4itJCaJhoaGnDhRRfhowkfo2ePKpk3rTrkoYl4HMtXrBCrDt0ZVErW7afzAgSVukqtO4EAEnBS1WiY/jGq5/2AHpvugXD/X8IMV7iu3nzTXOvVng0WIAjKc2xcdNHFeOb55/D2W2+J3+3Ek08S3x2Ra21dLS694nJM+GgCJn78Me79+3249Y7b8X9nnYMTfvdb3H77HXjupRdxy403ibXh+uuvw2WXXoZ9990HL738T1RXr8HhRxyBffbZB9vvsAPuvusuQe9E2D9MnYqnn3hCDtlHH3+M++69F9tsu61YHC67/HLsussu4irYfuxYEe7XXnutaBLHjh+P/v364cEHHpD56uAhgoE777wTb7z5Bh568CE5TGeceYYE+3CcYUOH4qGHH8Jdd92JG6+/Hj/++CP+/uBDuOaKyzH+uOMl1mD88cejX9++OOess3D11VfjtNNOE0sEQQh/nnvuOdx00034y1/+grFjd0DQRc0L5s/HY48/jn+/9hquv/Ya7LnX3nj/3Xfxh9NOwwEH7I8//vGP6N2rt8p7l4ytXM7e2QBCXUJZEHb5zcHwAUJbWXLLLQg/L0BwI+gNQ6x+5557Lm655U848MADccONN+DFl17CE489jtGjN8Nnn32Oq666EtttN0YE3rhxx0jmwNVXXS17+rrrrsfETybh2quvlmt+c8RvsOsuu8rZIY/46puvkYjFRBM+8cQTMeXHH/HII4/i7bffxtJlS3HpZZeJQGUWAoH6pRdfLH9SiE+ZMgV777knvvvuO/zpT39C7969sWLlSvxq332wy9gdsd2YMeLCJM/ZfrsxeOjhhwWgEyQQLFBw/+Y3vxFXwm+PPx7bbz8GiVgC33z7DX6x7S9EgSGomT1nLhYsXCC8gQCBc3nsiccFQNFyWFtTg9vuvFN4CZWdBx96EIMHDhLBTovA73//e4mb+Pabb0S5mD59Oq655hoMGTwY553/R/zh96cIMHnsscfwwfvvS70cxl/MnTtXrCOTJk6UOQWCIey3zz7C21755z8lk+PySy7FzrvsIu7cdZsZtS4BQq5NwmtBUNzUkGKDdmoNrJpFqJ3/GdI1K1C50VhE+m8JGLTisISXHseb+t6hAIE5N/FsmmNekCJdDJ3RgqABwoUXXogXX34Zr7/2mqD5k0/5veQPv/ba6yLgL7niCkyaOAGfTJyE+/5+Px559BHcfOON+NXev8IzzzyN6667Tn4WLl6Cu+++C2+8/jpGbDICDbGYABC6BnbYcUfxr915xx0KIJx4omgsD91/vwh1+vuefuopMd0tWDBfzPS25eDRRx7GrrvthjE7bI+rr7wK/fr1EysHc4UffeQRsVqo93AEid9199149fXX8ND9D4hmf9TRR+G48eNx5ulnoLKiEhMmfiwBTCefdBI+/+xTfP7lZLzzn7cwaNBg0RhOOulkzJk3D6efeiruueceXHrpJTjggAMFHPBgklnw0N92223YaaedMjEZf/vb3/DX++4TRnbtNVfLvFatWoWTTz0VP02dissvvVSYajYdvHMCBClCaUAYFy0IYw8/GPBdDG1ECJ0UIKiDI/uaAOGcc87BzTffIueNVrDly5fh+eeeR3lFOZYsXiyKxMKFC8XEf+WVV+IPp/0Bp59xhsQcvffeuzjvvPNwzjnn4tDDDsORRx+FyvJydKmslBTGuvo6LFy4CCMk+j8u4J0uOboFV69eg2uuuxYMCp7y01REolHsNHZHjBgxQmIC/v73v0vPCvKbK664AhXl5QIQdt9zT2y6ySYYOnSoBCfvu+++OP6443DjLTeLm/TE350gSsWFF12Io444UiyVVH4O2G9/0SInTJqIXlU9MXfOXJSVlaK8olICC88791zsuONO+J6A5LZbsfnozSWocsaM6XjooYclBoqKA92Q5DcESCeccCL22nNPyXagq+OKK6/Ea6+/jksuuQRHHH64zJsAha7NiZMm4YP33kdJaQnmzZ0rFs7vvv9erKPz5s0TetGCQ6vG/Hlzceopf8Bxxx2HnlVVjX1ObdyZa397EYAwerSUve84F0PWH6+ze+jcZcIl88lYEROGhUB6JWoWTsWaRVNQGgmjy8BtYXYfDCtYipCjqu/qYk6NnfqtM8e1wIKw/gOEF158Ea+9+pqY6U47/XTU1tSKi2HZ8mU4/6IL8eP3P+DTSZ9ISs+TTz0pZjiazZ999llhFtdffwMWL12CO+68E88+/bSYAckQrHQKPaqqsMPYsdhpl51xx223S2ASAQLjHh5+4AE5ZIzkpfBlECQF6kWXXIyKsnJQ8FJTYZwDLRPdunbF/gccIL7TRwgQeiqAwA8R/913341XXv03Hn34EQmSPOqYo3HQQQfj/PPOE/Pjhx++LylM5559NiZOnChazysvvSyxChTo9FXWx2I458wzceutt+Kiiy7CwQcfnCmQQgvCDTfeKC4VAgRJP4Ijh57aV0k0ghtuuFGCpKhBHH3MMeI2ueaqK7HVVlvLPAsFK3YWC4IuoGO5AGHMEQeLb7Gj/Ylrz6jWpzs6J0DwUvDll/+Js885G7fcfDP22GMPXHHlVWLqf/mFFyXmZ8b0GbFqSSMAACAASURBVLjgwgvkTJ1++hlibWAw3+lnnC5n4OmnnsZNN9+MSy6+WAD8ob85TILuGIy4xRZb4utvv8GC+Qtwy803gc/66uuvUFNdg3//+98SLEwz/XPPPy+8gS5FBgbSrH7SySfjlN//XmKBqIRQUJJH0BW434EH4rRTThE+RLM+AcVFF14o2RK0FDKe6O677sZlV1whQvqdd97GHy+4ANdecZXEODz//HOSffD0009hk403kdoEVJDILwYNGoS6ulq88+57UmuBBZOSCVodvsX0WTOwx+57oFu3rpg1azY222wzideq6tEDqXQab77xBq674XoBPoOHDMZ999wrAOvfr74qroMPP/oIH7z3nrhmyHNefPFFidcgOKqvqRXFinUkBg0cjNqaalxw/vk4/PAjxJ0qRZ/yis79vCdhXQAEch9WCVZaPv9IG269YBbDY8ntdAxW/WI0LJiI2voUzIp+6DJgc5SUMziUVxDX6ShAD8Wkd5CyPrQ2naEZgOCqXOutBcHBhRdeAA0QevfuJb59Ru9eeullkkf651v/LIE8773zLh544H4888yzYurbfffd8dxzz+Kyyy4TEyPNa388/48S6MiDfNsdtyMRT+D2O+7Avvvvh4033gTXXXONHGQeKJoOn3rqKTFl0ux26imniBbwr1f/LZHBZ595FsYdO06Q+R577IkLLjhfIpMPPOggsUr849FHUSWoOhcgMNiK6UY0zTE9ccasmbjkwoswbOhGuP2O2/D555+LL3X+ggW44JJLcMzRRwsgYADkldddh/1+9Sscf/xxcu/RRx+D3/32txlLwUOPPCJplI8+9JD4JHVxJs6AwZw0Z9IEedhhh+HJJ5/AVddei5uuvwFHHnmkaGq6Elv+oe4sAMFVKuE0xDB10uf45REHw/ABQht58PoBEM4552zcdNPNEmj717/+FX+552+48I/n47DDDsVTTz8tZvxzzzkH448dj/333w9lFRW47OJLROOnxY9Ff6gA9O3bB+PGj8fY7XeQYF2mNDNGYfy48bjxxhtFSL7wwgt44IEH8Mor/0QkEpUo/iuvvkoAwoCBA7By5Spcf+21MvYZp58uQcSMKbro4oslOJkBiPseeABO+/0p2GvvvcX68Ytf/ELim5hVwQDshfMXCFC56sorpa4CayU8++xz+OdLL4nGfsNNN+Kg/Q8QwU2eFI1GMGvmTFxxxZUYu+NYmRetCAyc5PNodViyZCmmzpiGX2yzDbp36476eAzbbrW1xEkwpuCrr77C5ZdfLqBn//32F3cH3RzkCYzDoBuScUzvvPMOSktKxK1JBWvSp59i0xEjJBCa2RbMojr80MOwcvkKCWy87JJLhN/S+qo/68bVUAAgMM2RQYodZkGQRFpG1ApQYOFBdvGV3iROEkitRHLRZDRM+xzpkhJ0G30wzIphQDDiVtB0y25nAILO//CmFfsAQfaVN4tBSjwHAlKA5PmXXsKTjz8uFcteeuklQd4069H0Hk/GUVtdjVf++YpE3DJliRt+5912x3/eeAOXXXk5LrnoYokIpgb/5ptvqUJCpoETTzhRKqDddMvNEqBD/z7NlwwoXLBwIe695x4R9jTnfzRxAiKhsJjpdhgzBn/4w2lSP2DcMcdICtOZZ5whfkq6B2jKuu3WWwXx6w9dDA8/8gg+/OAD/PnPf8agwYNF6N9x111YvHARQsEAgkEThxxyKI4fP16EO7MMGICpLAFA/759JfaA7ojLr7xS5va3u+9GRUU5aurq8adbb8Vnn3witKKP0HtYediPPOoo0GVzzNFHiY/1+htvxD8eeUSyMlTNKaaCNo5O9QFCG2Vwp7698wMEmsMvvfxyXHn55ZKiywBBnmWa4UPhsAh1BgzznA8aOAD//Ne/BETU1tcjZAZgBgM48Xe/k2BAWg4YJ0SATp7w/Q/fi0WSgcKscEgeNG3adPzw/fd46803UVJaKsHO733wgfj1GaxcWl6OrbfeCiuWrxDX3w47jJV6A/TDM9CQY+/1q71RWVYuSgPrODA2gu4/CmLO4dPPPsOFF1+EG6+/QTKqGNe0xejNxQ14+513YsCggfjdccfh7D+ehx1+OQan/v73uOsvf5G5ML6J7pHp02cI2JCOssEgPvjwAwk4ZCwDeaUuoERLJt1ytHLwQ5DAYkoECFScmAE2Y/p0UcQIDuhaYa2ZpcuW4R//+Ae++PJLLFmyGKlUWmjG4Mj999lHeCeVL9ZWYRwXARBdLDo1r3VG8bYclo4CCPlCu7EKpcoepWA6STh2DE6yDokVc5Fc9A0CSRuRPqMQHLAZzEh3wHArJLrpjiokURfrz68L23pwIDK1yW6OUpKBpZbXwxgEt6wqq4/xIG655RayaRnd/8P3P2BN9WoMGDBQzPnMT6a5kDnLixcvxshRo0Q4r16zBt998w0222y0BBCuWbNaovkZiVtV1RObbLKxIPHlK1dIeg9BychNR4qPkAePyJ2ouK6+HnNmzwYLKnXv1i1TyY2BhwxoYnoPo6IZV/DjDz/InyM23gThSDizk0RrWLBA5rTV1luLv4n+vPkL5mPenLmSktijRzeJOC5z2+0ysnn6tGlyUAkKNt5kYzE/MuDymaefwf0PPiCR0zvtOBZfTv6v1EVgzjRBTiRSIi4UhbyAWTNn4+BDDxGTKFOUWLDlmeefxxP/+IekYkkFtGz/qpwT4AOEtjCtzn5v5wcIPI/TZ8yQfP6ePXsJkKXL7rvvv8OKFSvFfD584+Go6lElYDqRSuKnH6dINgHN3r169ZaqiAz4W71qtWQcUBumRYCatdRQCQQEbPDvDMybP38+/vXKK5I6yEwquvsYc0BBOGfObHFF0NR/1plnSUAw044Z1Mggyt8ceqgEAu655574xbbb4pV//0sykU79wx/wzTffiGCeOnWqCPDbb70VC+bNk0DAc88+B7W1NeISZLAjBf73P/woqZGnn/YHTP3pJ7z51ltiVfz+u+/x+OOPy5xUAVoDq9askVgnVpnke0gzYcfBJpuMEFckn00ajhkzRmhIGpCnsrQzeQcts4MHDRKFiL9nBVsWY6OyxKDKn376Scatqa3BpRdehJ123kWsJyzBTCD0u+OPFyVJuxp+/p3fEQDBdSHQQiC1grTAzhT9hmPx73QUJGDFFqN+9TTEl81GoK4OkZ7DUdZ3FFDeB0aQRbTY1otjUOnLdjhyy4/l9ORRz2pbKcV1BhAaYah2gIv5FgQpUOQ2A1HNSpSWK21a3WppDJaRVD5b1Vln8xTd/pgbNS1FlEJu/wbVBY1jKdeOmjQPKoGAjOHYqn86O6a5TUuYHkTGI6VY2d0y7JrS3HLQUoDJsuR+3ihzzfSMUJSSmuZu7wXeTzQuHddcywlnwnGkV7nbaZPj8Rb1XmzyEnKbxJiYMWMmLr38MqnEeMXllwtYmDJlKm647jqMGjVKgA81K93ngdHY48Yfi7TjYLNNR2Lyl18iEo6I+2TgwAFS692daaNzLZXq22F924NhSKaQ72JoD1Jm1rsj0hwb61itdqPmglU3klYEoO3IufMCW549mvHZ7peAQAFfxdQZlMzr6SIgeJdGR+7GFiHrNk2aO3eOBOQxjodn8Lsfvseypcuw1TZbS4YSwQNdgUxJJPDguaQfnwKcigID9piFtNFGwzBgQH9xAdAN2r1Hd6lkyKJLPONUBrbdZlsJPlyyZIlYMCnwWeRt5coVeO/9D+R8s8ZDv/79pcET+UZFZYU8j5UlSQfFVxT/y+T5uz0ZyGN4zocMHSollUkTXYqd/I2UoaLDOAoGKhJADBs2XK5hoCNrSfD9+vXrL/ELq1avwqbuvLXFhQCD1/M6bYlsxw26FkO1P0DQ/Y7ZZ0+FHZLCAThGUDXIYj3EdAzp+DLUL5+O5KrZUt03UNYTXXttDLNiKIxAmTRBk07Cbp9jVTxJNdpq/PFYcTu2UFLHWRA6HiC4fQ7y6rPrWt+Nnq/LHbuCWEjs/s8beJcR1Jo9uuVXNQDJXy4pz6zrjOsAnAIdFKUNq/s86aJWZFvnP1+aLunxxJKVa+KXWvFuoyf9HgImHAfvf/ABPv30E+y2625iBmRBFJZwlSqPbmVEfT8tGJ9++qloJ9RSGBQ5docdsNPOO0vJajaFKVb6QgGEZgpjrMUxbsul4gHxAUJbSJh3b8dYEDoKIOgmZY1ScV1FwstPvdd4M8ubJp4GFArU07KXtgi0DVVV1WL3RluaN1EgijIh1VNNGAFTvhflxXNuVX8ZVW2VAIXXkEcoQe1pO6/vc5WFZDIhrgPdK0ErEwKCKNzd3jXNbQaCHGn0TA3Y09q+0InOpOSJwqBM69LDwDAkm4vvSv4iOnBAgRPdw0ZlhbFy5brSJtofIEgnXqQlpkAAgpGS38haOCkk1ixEYv5XqF+9GFaoBJW9h6Ks5zAESqpgBCsBI5pjBWi0D5tjq20k5QZsQdBdFVW3Nf2R+unFhK9HSdF3tJS+SrYX7oOgvlJAoeB4uhucp2FJpixlc6fX832jjplNKF2kAy0fZDhkXLSU6IOqGIn8XzWjcQGGNJmybWFMvJbNW9h6VvGo4ju10wKEIw+BEVCltPWnbR67tVisDeZSD0CY8DHitoO+ozbLadZE7+jaFkrqKIDQ1DnM77XincPa8APdpZBniFZDgmt+dFaQtmpmLBcSuu8qEmz8xjPnWv2UQmDmAHaePWryWQupujdnvpnzKIM32m0a/LSUv7V0uyqBr9pC87laoRGrq2EKWJJOkq41NTuu4i3r9tP+AEGaKjlpmE4AhsnumdVw7GrYNbOxcs4UrFi2CpXdeqFr301RUjUCZklPuVZbGrJpiwUo4w1tKEa4Ni5wywHCm29gs9GjES0vU6Z6d0OKkcntaJaZi2tRbunc9Hs2aYaWPd60P0VZArNom4fO22u8+c3nHqSO1nYzTnlNIUeaxAiQyBAt61Vqft7qirXxNumEIo1mM8/Imk5cpkPpX3wlldcjs4IFpyrfKhvbuv245X7thjh++OQL7OCnObbDeigNiUlW8ydMQDJto8+okQiYqiyS2jsKIOT7mbK/aXr/6EmqfdSGKTc6d/ljufNo7hkF3sUr6LRFj3+Ke88hl3S7x+bzFjeoV7VcVn5praV7ehdl0v/4nKzbo5HBsOXEae4dWz6SStNzxxPuy8BOtxFdtr22cu1qwOC1N+r+Fixj3eqPyBz9UkXtr00Or+wk3MtuN8fvpki750GjNwfMoHIh5Xn5ZT3EGqC/cf+UKViAnYSTZtBhDVJ1C5Gsm4Pa6uVI19agtEtPRPqMRLDbcJjhLjDNKEyEVT2DbBPu4nNe9wDBlVrJBN568QX07dcPkdISWES17mHln0HbUWkZnldpTDRNysaHMnvwiy2sEvric2nqo1F0Vu6qBfUsXtPnghcWE2ReJtaY2Wlzmppe/vfZe3U1OYX4ddNzFQwkebC2pRC4zgjQroc84JBVGLJvtNZnnkLby4XyaCvUIJNzY2QLkZ5MzRQG6AqERhdpVtCcLazVrKFFN0oXNCMgPyw5u3TOPOw+7kjAtSB4NcS1pmOLZrChXqQAAln7wk8+w/Kly9ClT18wxE2fBTbIyu71LB0yENjQEdheJptLr4xsbwMZHalCo+ZSyOBlkMsLp29qr7Z8jGJBu24r18ZvouSC4iCigavsI+9H3BaMkyI3FFdkEatkG+i0drey2y3XWk3ca3lUFgSdip91veS+kFpzsU42YYXMrkkTp9NRMqLQ6glpZXz1411l8jj1cWAbNiy6BGwHi+bNx+ARozBk8y3F0pjh2bzS26qY702g56QBgz9JwInBTtUhXb8K8VWLUL9mGZINtYhEgyjvPRDBLoMQLu0PI0Q3QkTcDqxlADA+LdvXqMm16BQAQVoCJvDaM89IIZ9wSRQp+sFkMzgSRxmybARESOQffu+BbxrVFRMvmsmY7HudEbyFx2pORy0k1rMzVuBAtRxtCiTIMSiybl4x0+hou79wZyHdY9U46nyxWAawdMli6SfPvNsUgwy9pkLt/8sETuVqEy0/2HqefHAR1C5uA0O+tQSY6Xf2vrsLqFyaFaaK97gWusK7y1tDV73HFMAqtjYyCzMI21ABnqtXrsK+xx8n6aq6haq+2wcILd1Jau3IUKl3Lf58MubNmIVoZaWINm1lJD3zFYjcJ9Af3pxg1utbbG5NnT3N/mm6V+AgX4iIoCVQEVNeU5yEYygGni/PZP9IsGJTYzR3HhR/YUCatOhx4wQ4JBUxCjkG+vGaSqZBMyxAKxstXbZ2u87lmUKvYjTLCt/ij21+7YqCKj1oBvyxtHRjHq06NTIigOF+6nkya1GAiBvdXgcSL0VZZmPpkqUYsfW2GLrltjBMDRBcK4Jr+ZG3EzLYcKwapFNLka6fh2T1XNTV1SOWNBAMRREtG4DSigEoq+iNQGkFEKBrVnUE7tAI7jYysxZUUmTXkxTeeeEFDB00GJGyEolkV+0oXbO2wMSmRXzb9qTStBXDaVoMNYP9lUAuKt61Jt/UKG17E82qSC/uac4l6BgIUZlPJPHppEnYbuxYaS9qsYhPgcnmBFgVi2toyTQ1oi5CEGHJLt8upqdwF9juuxSmbEsPf2uBlz6h+oWLn4gAK5MZQcQbEpg6bRr2GX+sMn+7hhxvElJLyOdfozZHSgCCjcVffIXYylWo6NcHDMXSVrGmAYK7PzzBbx1F1ywEaSy0svs7o/IWmEbuXm4cd6NHackYxfd7hstJUKCaKwFCKWPcHGDWrJnCF/oO3wiWzqjqKKI1O64SvOv8k2HZTNsqDiIdRwcJkm9RAaJlUSkJPP9h20ZE3sfB7Llz0XvIMAzZYhtxm3jjPLjrHTslun46thKJmiWoX7EYa1YsQNCuQUWpCbPHAIR7jUQg0gsRswoBkwGHXE9TGYfaKLxbRPM2PqMZgODiLDuNd59/HhsNGYJIWSkTMwQeqDUhyjXFDN1xH4XossUgijyruSk0J/eZHkhFvkkfY1vfkkFHFkyDurmKJA4xItlykKxvkAYuu+6+h/QIsBilnB9U6f135n2ae7Fic6YZo/hOVWssR6joS5sObTs0dRbPvGgrxdrrfjJXmvHYRW76tOnY85ijZWiWN83aH9a1yba93vbnGEdbENgk18LCLyYjWV2H8v59kHAYja/2pcsSm0hkURpzxv3WIbxEabvCQ4rGGLkzFd9AEXemmPs8GnOjo6fHKJaC1pJ1UQqX2Cnc2B0ChLCtFDK2YjaCAfQePFBZGNbZR0GZDL9sU4BIW19CQmFhuMI9o9m7GrpUMpbvUoCjrAjsI0TlQPUSUvu0xLIRdSyR33PmzkHVoMEYtMUvlYuBMW1WA5wUy+yvQXz1cqxethgNdbNgJKrRtXwIyntvgXC3IQiW94QRiahuCk4IsLX6QekZEMtlh1sPimPQFhO7aYAglgEbsNL44KWXpHNXuLRUjDS0IGQKNgjSbSo+QFanmUk1dQ1N7RZMiehtbKnQi9vity5yoRxJT1vaxpc1Zy7Ti15IoGbvNcC0J1fwmobkU/Pd4nUN+Oijj7DzrrvCCIVhsLynoNvCUQ3axtkcZYvSxVHgzgtlFe9U4VKOoczHstqF+BAFLpuEGMEmPKHN0aytq6bvb36PkcaEsuy8N2/aDOxCgCDWD7dcqevR9SFCS9dEAQTukiQszPtiMmLVtejer4/k/0u0vjuUDsItPDLNB66G1mHgXPEyUWXcLZm/pZVI5k9Ghy8wXXeMHH6WPYHZ+/U4hd64ub2qnF6mJ7BXYIfrGhGAEDAxcNCgddz9kO9mCkBommbNva+WZM3Zf4t/T1cs+Sr448bIURAbDrOUWHNATLQwkABYwlgsh3Q5ulYEhw4dA1E4iDKWwEpg3rwZ6Na/N/qMGIV0KolULI5kw2oka2YgUb1Y0j7Dld1hduuNih6DEK3sD9PsDltG4WjcDe67iVGCe5DPprzUFol1CfCaP+fNAAQ3iM1K4cNXXsHgwYMRikSQEl+9ElsMqDNzXrYpgdD4SOZOsRixFPpXObVepVrNIb82QPOvXQRSCL/TyL+jFs4FXaayw5AXcaNxI9l1Dfjkown45a47wQmFEWwCIEhMTLP5A01TgsFjhmhKWXCnj7ICBIQGjDfJFlDJH5FjcP1VDHZraKYNv4WYsiuAuObCG9YmTyN/ZzkSeER2UZ+IYdFPM7GjCxAysaLK+9um5zS/9zakK9T6cI/QgkCAkCBA6NtH+Xt1FpFWD5rQdlWMUevXt2VUJaJVEfeyUwvMhzEK6kwU2cs6kDHHCpEnuISHSJBRGz6WCtxwPxSAdEXyIwDBNNFv8CCpK7BOP7IFtMVlXc6FE6EyQwsBZQVtAKzFoPcVgWESDhrkT7ZBEuspPejko0zfti1EnQSCiTWw49VYvnopgmVRRCrLkbLiCEYiiHbtDQT6IVrWE2YohEhpGYxwKWAyuFAib3LAUoYiQqesRShbVXGdrl6zD28eIDD1xErh43//WxBrMBJG2rYyoW064t6betPsU1t1gYtRdXqlmzOrc/eLHXjvo7zNh4rNNxN126o5tuAmwSa0FWatDIytECN9fRyffjwBW++yI+w8gKAxtn6Cjvhtqv5AC2aTEYk5dMolmidQsvGImoVJ4FerzJ1eLlrETJFlky17pSJXhS3ieqA+mcDSn2Zi+3HHSBvVrKDQIKWjBVWbXqMT3Zy1IGiAIBaEvn0yWhxrbVB+SIEiRt0X3SMd76RSxjG13zJ1ANyAX32ORNloDugW2Ka8T2KkJJXPXaImo/KbWMYCJkM+knFKHJxNl4xAAP2HDmZp2HW+H7SyuC7hgfLGOCpY0K1IKwHIpqm8RbKudEHEYSIJw4jBsBIwrRSQSiKdqEcyXg3TrkfQaRAwtqrGQqT7YHQbtBmi3XshWFKGYEkFgHI4BsvgZ6tsNrdlsovkKrUtsKm3dWGbsoO1dOyWA4RXX5V+3wIQWHLU3fwsU6zzQ4sffs+BaZUQaWxi12U+RYumZugW72lKYLIoEMsHs2CJ7jxYqKJaS4nX2uvEp++xuXIOErNcH8OnH0/MAIRAMNuLodCzvICntXNp7j4x3TWhCWkzsoq29oyWg7SaZh3Shvln4C704QYdoC6VwNKpMzDmGAIEVZhGfXyA0Nx+yP1eAwQVpDj3i8locF0Mwqyp06XTUmmTgc3NKRHN8o+c7VW8KJm+LN+yqM8Lz78CAqo8csZq5vK0YvPI5y36Okk9tCyXB7lZEq0FBx7bRT50DnKrOg5mzJghPuxBwzbqRAChIIfKvM3aW3mL7ERNlDx+YbDMfDoJ04rDdFhpMgAnYCJpitMBhp1GIFmPcHINzPgqpFMrkHKqkbItpOkiDZQhEC5HsLQSTigCy45g7vwa9B26GYZvto3qnui6Y2ntyrFmFjFIN3WWtN107c7b2l3dwQBBoTEVtZfGR//6lwCEUEkUaRb/EHM/i2KwVKjraXEZbdO83oFtKabM+1UtdEP6IeiqfboMqPRF0AiZmRNuHwRlNeD0LHzzzbfSoezwww+X0qWpZEoYEsflh8xACpY4NiZ/ORls3nTwgQehpLQky7CIPqX/gTs3j4YhvRq05pMpaezWLXcciR/IzLGF6ycAQUtdt1EK/xmsi+HzSZ9g6112ghVi3fNs+9NGQ7v+3bZbEIpPWjZYge6MCjmrSmn8aM+MHkmltGVdB9o/qfyzKgBLFfFWJ0sx6Obtsd4N35oDFmYWgwPUJuJYMmU6xoiLwQcILdy2BS7TAIH2Awfzvvgv6qtr0L1fXxFkPJ8sK0zwzu8LmfS9g2YKC7l9UrwlznW/Ei+w59/1+ZReJtTiXX7Bc8/f6e+lN0BDAyZOnIjKigpsu+22CEpvEtVbRXqskB/RlC8ljFXefKYksTtRxSMUT+DZ5/dPPPGENFZiQzeOyQ8VGP1sDUhU7xRVv0CP631HTQs5D+Rv7hx0QnRIYn4czJoxU3hO/42GAixzvo4/jYCT6/5kdhMFqSgAsjaFJYPi+5qTqJfRAE4VvnMTkRk8SHkkCoWKkRIXgcVKhTaCVjWM1HI46QYYVhp2Oo60lYJhpUR2OEZA5EzALEUwGIURqYAV7IkUSxqzJwXnJ+5MBwQcs2bPQZ/Bw7DR5ltJirRYh6R/Ql5g9/8mQNBRnw6QTuL9/2fvOuCrqu7/976RnUDCCAkJkLBlaxUQBQW1LhzVirPuumvrttraap042r9aa6vinogDBRUcbAQ3e+8ZCEnIeuPe+//8fuec9+57eSskgYx7+0kxeffde87vnPM73/P9rY8/YhNDSloaMwjCKk32Z/FDl/UcZp2zSpnzonBo2LxpM7bv2ME5uanICAl+0MAB6N6jO3bvLuFKZVSOtGTPHgwaOJA3oxUrV6J03z7e8Kk4UI/uPbCvtBQfT/0Y27Ztx69PPhnDjzqSJ9aatev4HWQHLSgsRJ9ePVFdU4M333obmzZvxoknnIAOOTlISU7iyo1UlY2UAr13f2Ul0/3JKckoKyvnim5Uaax3r15cIY1AExVM2bp1GzyeWuR3yUO/fn2Rnp7OBV5UfvO4J+LAaUWAE9afVTVYPH8hho2mMEeXADfRwjotDmBNpR/Y3CpWa8grBN/hhklUHTtcqiRWxDYIa7Kw7NEPOUJKxM2JigBdo/kjFyIDDaIBdQlGrEcECUDkac9qGWba2qK01fyLBTMIIBBxs99TwwzCiAsuEFXUwhiEpreFN9WIHeznkrRJExB/AGxetBhVzCB0Zc8ETp2riv7EaRqtgX379mHJkiXYW7qPS5APGjSICxft2rWbq6VyNdT27bgUMf3Qs3/+ZQnatcvC+g0buMoqFQuiUsS08X7/ww/YsWMnsrIyuW7I0qXL8NHUqejYsSNGHHUkjjryKHz15Zfo0CEHe/fuxbBhh+PnJb/we2mzp/ZT0SRiQaiA3nkg1QAAIABJREFUWUVFBZ/ed+zchU4dOqBjp45coOjNN97geiZ9+/bBYQMGcIVIam9JaSmyMjLQq2cxunbtynbuRYsX8/tJZ/Xu3Yv9uiIxFgFnaVmVlnPOmAacBrBxzVpOj96lezcYsgjdQSDgoo5gUD1It3WTjkA6vE4v62OnQRrDEThs8PFARoPQYY6+ZRgEzqQpgHLqUMI4Q4eLojnod0o85C+Dbu5nU4FDJ0dCP4M1P1ed1eBi/xIvV6FlE6wjE5qzI5zuNGiaC053CjPgxBCQI6GhpUAHOd27oVNkg0lhiwQUdTgNHVvWb0DnbsXoxomSREp56bwSIY9G/dZe/ONQ/Z4X7e6GzosEUi0TT+jDlx9O4fKklGqZnTqkkyI1gACCtSHhHsskDN4uuOqhC19++RVeff1NHHnkr5DbqRNXFdu3rxQXX3Ixtmzdiuf/+z8MHTIYgwcNRr/+/fD1119j8+Yt6Nm7D5cqphKhx40ZjYL8fLz51psoLd2HcSeciGOOORoLF1BBoQXo368vo8VVq9ege0FXjB4zGlPe/wDrN25kZUFKYc7s2bjiiitQ3LOYy7b+48GH0LNXLwYtVO2suLgIOTmdsHLVSlZCl1x0EUp27cT7kyejsFsPuLk881IcffTRGHf8WLhVWCItWksyozqDx4fo4EaoOUUFOa2qFosXLMThxx4N001IV2RSi2eZb5ypFPkpAZAQ+JgWLJ2wKKa3DP7qTVyNLImDhqhPyXA40gFnMmcp1BxumA5aXC7+lwCCz0HBRkkQnizCdkvhSQwAZNEna654FWdNpyeuVin9oihEKdSZPHbSZwYIACq8tSghgHD++QLEBPJrJJixsykF3qKerQACuS07seXbBagqr0R210KWqzol81SP5UwnWbSXXnqJN/Tinj3x3Xffo2Pnzrj4/Al4Z/J77PVN+qd6fwWXTr/ggvO5NPA/HnoUvYq7o2tBATZv3sp65MYbbsDWrVvxzuTJGHHUUdi0aTMO69+XQf/b70xGQWEBjj16JAYOHIQ/3HQjevfpg759+uK448fg8cefwNm/+Q2OGzOGN5833nqbyxlfdNEF+PjjT1g3FBYVYcfmzdi2Ywd69+qJmV9+jRPHHY9+/fpz9cX3p3zAB45uRcXYsWM7dm3fjtNPP42Lod1w403o17cP/zfpDQIOorxxcJUr1WDIUEua/8K9QYfbNLBp1Vqkpqahc2EhdHmqPZTTRugIySKbYEBg6rWo9e+E37cTLrMWLtOFJEpXzPpMJGijjZxDTikkVvfC0GtFWjYJ5Mk9yGkKrUKREobDhJ/pSdIXpE/SYTpS4CR/LXcKJ5ejyC/SNRzWCMpQmMlzUxSMosgBv8h7og4tUu5CG4tESqRUXIaBbes2IbdbMQoIIJC5Vw5ROHvZGFT+oRy/WO9OHCB88D4Ku3dHWkY6/JYdS20g4QDB+rvIWEU4w8esweeff4YpH3yEm266ET169EBVVTWe++9/udZDTk57PPV/z+LPd96GwYMHY9Wq1Xj7nXdw8UUXoqhHDwYZUz/5BCtXrsK9996DDz/8ADt37MS1112L2loPbrrpjzhj/GkYP/507vdPv/yMhx58CA8/9BBWrV6FNWvW4vLLLme663//ewFDhg7BuLFjGZhMnPg4rrn295jxxZfMDlx37TXIzMzEkqXL8Oabb+PWW27GJx9N5Tj6iy++iE8En376KZYtXYr7//Z3BhlMGTqFJ2tUD2NLKjeWEwMEwSB8xwzCKJguJ9eYP9RXXYBgwEFxvUgDUILyXd8CnnIODXJKkMDOQJSNjMmBJGjuTJiuFMCVBrjcMNwZMJ158DmSA9nEVGnqQHKdQJywyCbJQFTFGMjQTz1CdapYyJycvOgZlb5a7F65DiMmnAdTI4AQTJGUUErvQz0ozeb9dQFCdXkl2kuAEHD8o/bG8bYn4H/plVfjgfv+wkCAPPV37i6B2+nAFzNm4sorrkBu507w+f14+eVXmF0744zxuPmPt+L22/6EYcOGMhB45t//wRWXX4oNGzZytdLbbr2FAWh1dTVycnIwadIkDBw4kKuWEqt45VVX4dxzz8H48WdwUaU///luTDhvAo477jg+BE2a9DKbSsaOG4fXXnsdZ555Bg7r358Zh40bNyE1NQVvvf0O/vSnPzLrOWv2HD6kUBsItOzatYu/16FDB5x11pm45trr8dtzf4OzzjpLVDWUBwkri6DUgwIIiisjgJDEAGEN0tLS0amgeQAETmKnAAL5gxkOGJ4q1Nasg8ezGi6THP8y4CYeQa5dZqAJCKiS2tKMS07v/DQtCZojCQ7NLesgUOVHBwwHhSw6oDtc8DnT4KPkQ5ya3gldc4MyGHBKbYN4AcrwS2ZFwTWyDyOtd9ICEcPyidkUOXechoGt6zYit1tPFA4aCs1FwEMsPBsgBBSQJHGJQQgAhAz4rYqZJ0foFQ4aRCpL8AIUAOELjve/+Q83IadDBz49v/3eZJRXVKBfn154/Y238fjER5CRkYFZc+YyI3DbLX/k32mMFixYiNffehePPvwAZs6cyezCjTfegA3r1+MPt96Fp596DH379OHKYaWlpbjuuutx5x13YNOmTWweuPKqK5GTnYPJk9/H1m3bcP6ECfh0+nRs2bwZN954PV7430sYMmQQxo4dy0qCqM9nn3seZ50xHs8/9xwq91ejW7euTG3t3r2HF8fjjz3C1CHbzsjGKE9FSjJWwMSK07KTOQIAoRrfzf+2mQMEsoPSIqbNvQoOfR80wweNaD5Ot020Yi3/0KlA1z3QvVXweSvh83thGjqSXA44XalwujORmtYFmrsDfMjhBS5y8jphkKKQviYEGngLl46QtMlz9D0nkwkuWtY5MdyJbYDQ2MgiCBBIMW/9dgEOFCCU7C7BNddei3fffYd9iZRD4ZQpHzClf83vr5LVEIHp06dj8eLvcMklF+Phhx/Bk08+wWngyTz56BNP4pwzz0DnLrl45OFH+DtHHz0Sp5xyCj+XAMKAAQN4bVdVVeF3V12Lu269mX0SCETcesutmDBhAsaNG8vz7fnn/8undzrtk7644orLUdC1K/sY0GGAmIr//u8F3HHHbejQoSP7I5SXleF3l1zCeoAOER9+9DF27tyBc845B3/60624//6/YeCggexcHdm8ILP3BpI1CT0cBAirkZqWgc7NECAEdBvleXFUQkMF3KYfbi0dbgrnZrZOJMUydKooS34eZC1ywaC8LNJPifSnQXqUq0ByUKJM+C6yS4ptXGSjFd5MlNeAAIJL1n+gPDP8G5ymLpIcsQFBmCMiO6KyYYzNYxTySAChiw0QYrnbJgAQgpFDYhKrH2m/ZhUiM9VZAcKcOXNxyx//gA4dO7L54dXX30Ctx4NexUW8EJ944nFegITICRDcftstSE8nW5KDwcWUKVPw97//HV9//Q22bd2K66+/Dpu3bMa1N/wRjz/yDwwaPIiVDFGC1113I/7yl3uwadNGrF27HldeeQUyMzLY3vnm2+/g1yedhEmvvIo//fFm9OndC8899zyfEk4++SR+RklJCV548SU+PTzz9NMYPHAwjj9+DPsuGH4dfh/ZKPtzPgN2RCLFYK2XEK6Xw236VJ+dGYTYAKGh9qTG2B5U7gQaB+HEJQY64NEtJ0Cg/6YXSXoFnHoFoNfANLzQfVWoqSmFz1sViJVv506Dy5kGZ3I7aCk50N3toCdlQjfJkYweKlSCyDAn/BZIBajSLALVqwTgkSVlA4TGmAHWZzQeQNi+fTtuvPEmvPnmG0hNTWU9QqwCba4le0vx+6uu4BeTTpg2bRqbIMjM8H//9zQmTnwMGRnp7A/w6MSncMGEcxkElJeX8xr//PPPkZaaiquuvprZSGImxx53HDxeL668+ve47ZY/sa8T6ac//PFWnH7ayTjjzDN5c3/yqX8hIyMNo0YdjcnvTcbll1/OCeO8Ph+zmcQQvPjSS3wAocPP5MmTUVNbi4suvJCdGOkdUz78CHtKSpgF/dOtt+HBB+5HUVFR1MGwMgiK+hbYWJyKN61cjTQCCIWF5AEUiAA6ZPqBGylrFPD6pw1bZFChjZk2d86XwqYSkTOBTRKUYIm/S58pMwuFJhL4F/lXyF+JPneSiYBKJsu1LxjFoK83MwSkDQL+RCrbpchcqy6d6zFE8yoU4IB+FIPQpVsRujODEMxqazMI9WEQ5L1WUoHniAUgcB4NSnLp98GdlIRp0z/DW2++jZtvugEDBg5AaVkZnn72OYwcORypKSkBgJCSlISNmzbh1Vdfw6mnnsLUYGVlJT7+6GN2SPrDzX/g0wRt+r+/+kq2ed5515/5Oaeecgork6+/mYXJ70/B4xMfxdIlS/DjT7/giisuQ+dOnZgZeHHSK3wKMA0/HnrwQWYz/v3v/2B3yW5WHGnp6fjh+x/w1VdfMfPwxeefY9fuElz2u9+xUlr6yxI+pYw6eqTwrqUZz57F0VBqBKc/Agg04Sur8d2CbzH02LomhuZk56LFzKidXXpl4ZoAJSIdA1gREK1HJglyOPJzNAx5HpNSY5urVgvT2AeXrxzJNbtg1lTC8JNPggtacgqQkg2kdIGRlA3DpDKobmm2EecJqswoFj9VgiMFIZ4fLcmNDRCaL0Cora3F76+5Fldcdik7Ca5Zuxbr1q3Dr371K7z22mu4+KKL2FeI/I2IBSDT5KhRo/DwY4/jqYmPMrtITsyPTnwC55x9FuuJjh1z2MZPh4w333oH/3zyCbxDKeOLijD2uDFwuly45PKr8Ze7bsPAwYPZBHrvfX9Ht675bEIsKyvD/Q89il8NG4xTTj6Z23HMMcdg+PCjsHbtOnZqHjZsGCa9+jquv+ZqZjHICXH+/Pn4zW/OQX5eF2ZFX3/9TfTq3Qunn3YaLrvqKjz+yMPc/miXFSBIcjzEB2HzqtVITZUAQVL21sNZY49yYs+TAEHeHPRDU+uRXRHVbhF4JOcsYEyhKlMKwCPiFsSBQNwhQIWIghJR4gpk0Kdi3VtSYMsshgJQSLrWJJfqYGnq0H7JI4Z0wCcnxW3rNyGvsAe6DxosTQwCgtkA4QAAQnDELSyC/KPVxEAAYcYXM9iOOHDAYWjXPhsV+8vhSkrBb889mx0WP/roY/z13nuRnJzMKH3GjJlYuPBbdOnSGbrfz6fWU087FX379sUPP/yAN958CwP692dHIPIO/njqVI4qoIVGJoZxY4/Hcccfxwv6vfcmo1OnTuyoePjhw/DZZ58zRXjppZcwqPB4PAwQ9paWonu3Avh0A2X7SllpUSgTnUpeeOEFfj6xEFTe9oRx4zD62GO5t9Q+UJw1TXqL3TXEKhPOIDgFkm4pACEE/AWCkGKcXzijXtCmIqIeZPU8GHCz0xHg0Kvg8OwBavfA9JegtnYf1QqF5k6Fw90OScl5cKdSlr40ds7SmakReEDwC34uHJUYQFiPERN+a/sgJKb9o9zVeAwCvYDo+RXLlwsv/127MXTwIJwxfjyfyrdt28bl5nft2on0tHRc8rvfsbnqiaf+D3//6z1sk6/Yvx9PP/Msfn3SCVi/fgN+/uknNmGW7NmLrvl5uPDCC/HptOlYtWoVBg8cwH4Ft9/1Z9xxyx85molACh0oPvnkE/Tq1Yv9lNZt2ITi7t1w+WWXYvacOVi8eDE6dc7lZEXkaDhhwnmY9PIrfDih6IkjDh+G6Z99zqxju6x2KCsrRWZmFk477VTkdu6MG/5wMx64/2/omk9peSOHKLZkgKB20LoHGs4VW2ceKa0gDgxCL0TyI+JNWR401UPqSk/Ung1exFKIw4RoD0VKUDnmaJOeWA9iLijyQmcnRQIIPWyAEF1g/EksHwT1VTmqAROD5ZEBgOD3sx1w5oyZmDNrNs4552zo5NTidiE/Px/Z2dlMz+0uKUGPwm4idtbpgM/rxaqVK5nWoxM9LTQKPSQbH3kYb9myFU6ng0OGKA558+bNfNKgBZiWloY+fXqz7YtMGOT8RLkSOud2Rpcuufjqq68xbdp03HnXncwqVO7fj+f+/R/2YaATi8fn5Xfl5XVBSkoq045EhxJQIOYgyeVG9+7dkOROCthN1ak6BCBYRSzz1Ks/UV513kD3V+O7hd/icMqk6KQ469AohvB5fTAoRR7WsBVrXZi8MYfVc7B2VVCKlskhF6qI4qAnibK2kKmn2bmTQ6Mq4PDshstTAod/F7yeci6dmpTaGanplO40E7ozG3pSKtdQFwBBl97LksUQZ5NAcxSDsN9HUQy2k2KDsEHgLEXqlPIgOLGNohjKKpFdUMhjkaiTorJbV1ZVYtPGjRxW6HYnIS8vj0MU9++vxN49e1DrqeWNmAAE6Quvx4NdJSXoVljI65uyNlIoZMcOHZhB2LN3Dyoq9nNEQdf8fHTq3Jn9Awhs0NrtUVSEjRs2omfPYjYXkgMkAfxfflnCeocOAbQGKYqAAAMdHihMmoAEvbuouJhZA/Jj2r59Bwq65iOvSxfs3bcPFeUVrJucLie3lXQIHXZWr17NwIIOSpzTIcIgMEDgFMDKgCbrR7CToolNzCCkB0wM6iEHQx9EnDMWE4NacXXbEhkgBJ8XmyMNBwcB3RnSIFEAL6iwKJUyGzgUZyl9DCJBEKHo+JBB7EOAQSgSAIGKNckDn80gBDZ9KQrdjy8/+oAXYmpGmqyjLW5Sp8kQNBe6H3AhKxo22uBpwZHfwLcLF+KPN/8h4MlLi5gWLZkhSGG4ZfUskbhCJLAQyUmc0A0/vJQQSSJwlTwlMHBydtLfyT+AlAo9nzZslaSpuroS8+cvwPTpn2HMmDE4+6yz+HmkQMgHgWjEMWNGw+P1wJWUxDYwTucjKbHAiZhWsiXMk8MVOfQoRv3asOyEKl20r6IKi79diBHHjYHuEDUaQhZC2LwOlnFquKpXCzra0gnZ9C2/iDNksCxt6H1BNRF+LggmSRInfnFy4ChkDkei8CcXhcVS3nSjDKZ3D3SjBGX71rCidjk7IT2zABntC2E42sNrCp8E8nJW9k6RTCUoQwEQKNVyLXYRQKAwR40SqKh7lCI5ZKq24QN5UJ+gGARSqhq2LfyWizVlFRSICh6U90SuDV4T0dom1wytf1pjBBBcLjdvxOznYxh8sKATPUUq0RpjJ0ZKq2sarENEYiERMsvvlTVaWO3L54tkSwJ80H+rJGr0bH6vTuF2Bjsgso3bcsJX91BCJbrX6/Gy+YwOJG6Xm/ULtVdlaaXn0+90T0pyCredmE9r8qQY4mBZ6WSjV6mhRbAf2/M3r13Hz+xSSHKWcg3UKzmoE8DyMutaj9QGK2iP9nn0dSfmTmg6tbp3K3AQ5CVEPQa5rlmenLIrykXzSpgsKQpi47oNyO9ezImSGCBIDGMDBCtA4Jnqw8ypH6M7AYQ0in+30MVhTonhkmfkx16nJjvseH1erFu3AWvWrMH4U0/hiU6X8lJX2cOkG4tEIXIqyD2XByiMpucsaJKGsrZB3Sc2INFuWvi7du/Gs888ywlXTjnlZHTJzeXxr6isxOdfzED/fv04l4IAJiphkYD2pCQUka0AgXinrAwok5dEm4ZkP7Mm/eHMaqbJSWYWL1yIYynESj5DvScSe8DztR6pq8MXBj8zLApFUXn1UTPiubE3VZK9NbeBuFt+J+CgFKpvyFFIoXpN98IJLxwmgcNa1FTvht+7ElnJXeBO6wqfMwu6g8InM0QBMdPHcdM6l3IVAMDJ+fIN+Go92LV8PY646AKeFYYmMuepFtnwINHRl6rSJNOOgW0Lv4OnrAKZhV3hpWyZcqMWtUYSu6zbCDOIPH5qhgkFEL72A0/m2yJkbAxLKqbmvToRkjMhO9xaTGF8j2S/ONkPh+NJpk9mShQgRDjRBSpEypwa9HelG1QiOXokAxNiJRLIHaoKsgUlJ/KAbNm4iYFJPiVfSkysLeCuRFZdor213mcFLjFAqpIQZ2okkOrD6rVr0a1XX/QeaAOEyBNIcV2Gga+mfoxuhQVISk4KOJsoUigY1mg5NcvFyqV0OXue8EomgECncFr4Genp4oQhT9TWU2wI4WSlqWVLrRhRqgVRmDhsngUSOnGKzOCmREk6KKzJnZSM1JRkXrS0oAnh19TW8O90MiHFwLG5rLnEyUWcIqJc1B9yUow136Uzo7iFNk6heMi8sWDBAowadQx7ckd9heowi1ukWAl/XVABBT+xMixizDgiOKTWgjUDZEOrRYa3P6B0wz+Isu5VMimVatWpAS4OeyIq0Au/dyc8ZTtgVJXBqVHClPZIy+gIIy0TNTJBk6FRxkeR25FCnthToaYW25etwa8uvkQ+K5hvIpIsW4B2PURNVACB+AIdm+cvgr+iEu17FKJW5VqVAFTEndTvCl/jsb4dEfyG6AoL9LA+OAxPWPKXqSUvtEa4XlFr0NIodU94XFjg7yHrNrYshNOtbKjVf8fh4ERxxFhQuGX084EVasXUJHVtiIHbrRo51jPibdzx2pIIOAjs4DEE1/D3ELAjSErmptVr16OwuA96DZQmBqkcbAYhMBbKGKbjSwYIhUhOoQJCouwyLxyuoiUoOU4+IR1JBDMmPE45va6chlxfgf1PRU5yfg4BBkkE1U+FBO/mHFh0Coi2bwcWuay4JvOi0+10ghCtJQAgTiiKlgy0MXDalXUYIrxHbS4uZhyiLRrBpnAWQMtFd1dXVeG777/H8COPQgoDhMhx0iq3eTR2QXamTgGkSEpUeAOLK/C5/APLoj5r90AHL873hKcCtZMoazHXqLUUGeHweIHqbYC+DX5fKfsjmEkdoGXkwUzpAr8zizOpUT84kROdDqprsGXpSgy/9DJ+ksjhKOdzXC6kiTrZIh8bChA2zl0IVHuQ2S0fNUzVirnF4MAyz1pkVw9yo1U+j/AaJXSgYoDgdKFrQdc4vN1BaDTXUTiwQu8HoXWJv0JiC6HDBZtEDqq5hT3Qa8Ag28QQUZIBd1o/pr77LmcVpHhi5QjCZnamh6UdPgLMFqdQEV2qtqGApVfZJy3KOVI7eMOONdQqpDLGfTTwIsVmMG5YKLBQXwFJFFgMEqGUZihGrXtu5/AeosYl6AlvNn9McnIpByRVyMTBGRrJGZM8qtmWqpRq2GtC0xDHQ+9i44+0z6u/WT+zPo1YnvqYMBJfjfW7U9T7IDnpMCg9K6dpciJJB9xmLXTK+a5VAGYZfLUVSPZXIDXFAaT2RK2jGNVaEnwcRkWZ1QDT48W+nbsx5rLLRbikDRDqNyCBu4MAgby/189ZgN2bt8DdKYdNDIq9I+aHMtrZV2ISEAnBVFKh8MUP7N61m50fKdlbPSyMib28HnexXpE53w5lO+rR5Li3qkMe+blt3bYD/Yccjr6Dh0CjYk3yHGEzCEqM0gEPfj/WrFiB0r17eUKS4w2xBqLUsrC10d/UiSF8FOgUTnUR+FLMgty01GmdzA7R7HKCnZCbeZQhFqxEDGafmQzKthV0ZFB2QqHIuKSjqAtQp46CzP8vmQXK0BgJsqjJJUBT9IsrYJI8AqtKIHByYvJ7vezhLCrRUaHSSJeoomktlBXtbZGtcXHXSaDa5qFX64rO0DmsjX7EqdQhMjpqOnSNxsPPdd6dqIXb4YVL09GuphSoqUVZSgH2uzszu8B0lmGgS+fOKDryKJGT3aLd1BgmICH7FhkRTuYFP3TsW7UeJRs3oQJ+1HLxGwFN465NW5J1JaAKoEXYebkCrszYeihFx9tDNKV/KBvWgHeLvUbpbwe69+yNrkXFQTOzZMjD9eqh15MN6HSsvcqM6vEjv8V7pzLUEVwUThwhoWuyTGbk91AsqvqO9DINh2BE8aucAZGgaKxkj/WVi2oLT2zLe9Vz2DMovIGWl1D72CQR4eQesG3GmS6SmVFFiOreLbepuLPOMg7hcohGG6j7AiagmFBG9jVuQ+o7CgdwvxoTZUQiwKnqsoviL4CXq7kJIGrCX7oWlWsXwuupQWZhXyTl9IMzpRvANSAIJ2gwnJQPPtg/GyDUZ2jEmBB74IWOJK8Bp9cPuCn0lZwPpDGR1ll8oqs+L27990oWgXVUpOWnmEpbsI04F4T5mc3k5Ijup7LeLs5rw/SB3OdsBsEq8hBp0EYfDhBow5Sn8ogFMMjbhr4j8mEHrhAIJjfdQGhgGOmtQErMqSA3y1h7mdwUAx71/L7QLYEYkZjajNmFGFxFAFbHaCyl+7Q6HgWtL+JLqk2B9kXa/SVwiwpmlCCiyDzwHgUALe9IFOg04tKM+6jAuCrkI2uyc10IkhkBBA/l65RsEM2HWngr96B27xbU7l6DZFc6UvKPQlKHYmiudJH3PQwR2AAh7kiETRSRVNejAAIlCnM7OV1uwDJNaXZbCwddH/E06F7p1hlLbrEOMg16d1v+stwTlHmddQuBNBnKbTMIYZMjHCCoRJPhG3zMQ6ZkHqLsc0LBR3AVrtc8VQWQ4hxVAiDE+vAwQBL3vfG2kUSOS/Ie6611ZBrv5B5a9Cmk2RHwAX9+wDaHaEJJpK9qgOMKNvoNAVGIsDLK5x50gaMPdckekFlGtYmS3FDBHA/8ZZvhWf8LdM8+pOb2hLvr4dDSqLiWyHopSsgGrQ0heCS8VfGGpQHdbFlfFcqBAIKXMmJSElEC2MTISGEyTAiMVcvq3SFvrUKvcQ89h7ylracB4bLm84jUNYpdiKBGW6tKiFPuOfwwHYXSjiudCJR9pH0l7nPizMN4tHoj7FOiBY3RUEtfou6xCbwngVsatHrj7v/KSynKWxr95BigN0SIReD5Kg+7ipchwbioJBxg+gC/DtNTDW/JMuzdsBiu7Cx0GjgOelI+auDiSnMphoh2kHm5xChb2R0l66aWeYMG7GB/WbggkxeIUyaiCom7DWfHDnbzWur7aF4rx057vh3iUbQoBan+w9Viax2i+ADhgIYmAiCI95y4G1Ej7Mvx2tAiP2/iqZmo/0cTNyMzXNYsAAAgAElEQVQ4NBaAUGe8wuedZHo4b61gHkyd2IQN2LH6SziNcuT0Gw10HAI42iOVwzrJfh7kJhRhFnhVPPKoRc6hhjVauRereiMqqinkqTIDacPe1Ja+LSIZ7KsZSuCg6bpD3/cmAgjWo9eh76TdggZIIBHgJvNdNOAt9fhqPJoogg1FghzTpDTe5AGeBKNmO/av/5wLQmUWHIOUTkPgdKVx/Xlxyex/kbCurbcjjJcYF5E/JMLHMXKL1WPw29atjc6+tS3xNVlvbYDQZKK1H9zSJBAXIMgdtJkvGpWLgzKxuwyDkywZtWUo274INft2IKNdEbLILyElGyZV46QwUoVzw2VgqdLZ0oazWbQ37pxqFq20G2FLoK4Emrmea+wha0IGobGbaj+veUugeWt9ah2BA/pxU45/cpyjfFa+vaguWYx9a39EZrveyOx1JLSMDjCdaXyPqB5NWkH5WpA3czwWo3mPVLNpXfOeMs1GTHZDmpEEbIDQjAbDbootgcaSAOe2p8qNIte6xs6LcuP3l8K79xfsWT4frsxMdBhwPIz0fnCaSZwiOJCjQ+ECTUZSNNhZtbE613KeE8uDpOX0wm6pLYG2IQGbQWgb42z3kncmaQ4JOF5SvXiRLwH6LpieHdj50zQgtROy+p+NpPQ8uChM0lL2VxSOCiAFW64JSiA8mMH29UxQcPZttgQOoQRsgHAIhd9aXh1ItNmcO2QFCKqd9DdiElSSJdOD2spV2LtmHtzODOT0Oh7O9G4wHckc3SA2NVERMrRgd3PuePNomw0Qmsc42K2wJVAfCdgAoT7Ssu9tuRIIcNvyP1SmNE7iI6rO0P/8Zhm8+5fBs3YJDLjQvudRcGT2heFI5hztbJ5gO6QdytByJ4PdclsCtgQSkYANEBKRkn1P65FAuGOc1ShuUslwL6DvB7y7sG3TV/BW6yjq9RsgI08UyDL9MF1uBghtzF+pYXMgXO628BomT/vbtgQOggRsgHAQhGy/ogVIgN0T2JORS3XDWY2q6iXY+sMM5Di7IWfY2TBSs6DxZxqXiWoOpbBbgGRFE22A0GKGym6oLQElARsg2HPBloCSAG3+lEaRIxf8MPVKePeuQOmqWUjJHYrU4lGodDnRTkuGS3PYAKE+M8cGCPWRln2vLYFmIQEbIDSLYbAb0SwkoMo5MI2gAzp5HFShds887Nm0Esm5fZBWOBxpzmw4NCf7N9Jle+QnMHo2QEhASPYttgSalwRsgNC8xqNFtqZFRDEkIlmOalChkFSenECACdPYi5odi1C1eSk6FI+BI+8IdlE0qRiULBnN+RICvFwiL2tj9ySSFMn2S2hjk8LubnOXgA0QmvsINfP2Ue59Vd2yxaeOV34ICiMQXqAShZRcyVOOyqWfo6ZqNzqNOBdaUjvASKW8jMwkEEAI7G/2Rld31hLwijdBbLk189VuN6+tScAGCG1txO3+RpeABAbshGBoMIk9cFD5aAIATnhK1mPld2+jqPdhyCo6FtAyYWpJ0B0anDZAiD2zVDXHWCDBBgj26rQl0KwkYAOEZjUcdmMOqQSsNLhMrEQgweDKjhqge1BbsgQ7f/wQXQ87Hkn5R8F0ZnAFSAdVMQyYGOydrs442gzCIZ3a9sttCRyIBGyAcCBSs78TWwKR7M0tYc8MAQjiF9NhwGR4QP8zAb0a+9dMha9kPbIGnwlXVh+YmltmVwwghIDZxZ4qUgK2D4I9FWwJtDgJ2AChxQ2Z3eCDIgFL5kXiBhjfmCbI58Ks3ozyNR9Dy+yCdj1OAFzZ5K0gGQSFhOzYhpBxsgHCQZm29ktsCTSmBGyA0JjStJ/VqiVgGhTRYEDXK1G5bz72b/wJuX3GIym7D0B5Ebj3ChjYAMEGCK16OdidawMSsAFCGxhku4uNIwGDAhooQ4LmR1XtBpT+/AGyUvOR0/9UaO5M6aVvA4SI0rYZhMaZhPZTbAkcRAnYAOEgCtt+VcuWgKrvpGsGdKMCnu3fo3b1QuQceTbcGYUAUgFOwqxcEFqC48VBGhMbIBwkQduvsSXQeBKwAULjydJ+UhuQgE4RkFyzQYem78P2JdPgapeB/J4jAbMToLnt1IqR5oENENrA6rC72NokYAOE1jaidn+aVAJkZjApEzOXffZg96aF2L75SwwZfimcScXsi2DnXo4wBDZAaNJ5aT/clkBTSMAGCE0hVfuZrVYCnDiSnBWhQ9N88O3fgWU/Povi7qegXffjOfUyZwy0rQuhc8AGCK12Tdgda70SsAFC6x1bu2dNIAEGCCblRqjlhIua34cdmyajYlc5+o34HeDICbIIgmgQP+GAoa0FOdgAoQlmo/1IWwJNKwEbIDStfO2ntzIJCIBgAqaP0zFrpoGa6qXY+vMHKOz3a6R0OBLQkkPrDugG4CBWwYISIjEMrZl1sAFCK1sJdnfaggRsgNAWRrmp+5iI8m9oG5rL5qkYARXSoJkwzL3Y8f1/kJTeFR17nwHNmQM4qIJTlE5Hk1dz6WNDxyrS9xOZI625/00hU/uZtgSaWAI2QGhiAbeJxyei/BsqiOayeQQAguyQRn/woHLdR6go3YK8gWdASymGqTmhEWsQ7Wqp6agPdBwTmSPNZYwPtI/292wJtDIJ2AChlQ3oIelOIsq/oQ1rLptHoOKj8C3gctc6OSv+jL1rZyC3/3FA1jA4yMzAVxRngzYHEEhYJI4YA9lcxrihc9X+vi2BViIBGyC0koE8pN1okwBBbHgUz+D3+wF/CcpWvIn23QbB0XEUHI50y5CIUk8hV7jMWvvmaJd7PqRL1H65LYEDkYANEA5EavZ3Ym92TSGf5rKB8sZOiRCYPuBwRz/96qtFxYq34MzqhKyevwa0lEDogoAH0RwSmkJYzfCZNkBohoNiN8mWQGwJ2ADBniENl0CbYhCsTggGDE0HZVfU/DoqVrwDw5mKDv1Ph+mgtMvCxGADBBnqGW+mNRcQGK+d9ue2BNqIBGyA0EYGukm72SYBAklUh67pXOjZ4dexf/UUeH0mOgwYD82VERA5sQdtnkFIZI7YAKFJl6n9cFsC9ZWADRDqKzH7/roSSET5N1RuzWbzEKYFcRmgwk0mnHDqPpSv+QS11VXoNPA0aEnZYQCh2XSgoSNxYN9PZI60cREdmGDtb9kSaDoJ2ACh6WTbdp6ciPJvDGkc4g2EnfC5r7LDlAOBYYIGp+7B/nVfYP+eLcgdeiacaV3VXdCobgP3v62lT2yMQbefYUvAlsChkoANEA6V5FvTew8WQGiozBoIMFQ3NWIQBFLgrZ9NDLoHFZtmo3zbEuQNOxOujGILLKA7rJcNFBo6lPb3bQnYEmh6CdgAoell3KrfQHkA5F4ZO8a9OUihgQBBIgLBIIQBBKfuRfnW+Sjb/D3yh46HK7M3AwfBGxgRYhjaeFRDc5gPdhtsCdgSiCkBGyDYE6RBEuBEQbRf8k7YGDtwg5oT+8uN0byAiSHIIFC/NcOLyh3foWLdPHQachpc7frHYBComTZAaMKRth9tS8CWQCNIwAYIjSDENv8IdtprjN33IEiyoc0MmFNEuCN7FxBAML2o3vMLKld/g+wBv4az/UBLHoRwE0Okftpmh4Mw+q3rFY2QjZOtZQ1dE61LqnZvLBKwAYI9HRougZbigyD4/ka8CCBQFIMwI3jLV6By5Qxk9R4HZ84QGyA0oqTtR0WQQCMABFuutgRiScAGCPb8aLgE2hJACOkr/WLA1HQBEao3oHzZJ8goGgNXh2HQNEcAPMTHJTaD0PCJ2MaeYAOENjbgB7+7NkA4+DJvfW9s8wDBz9kSTX0XKlZ8Dnf2AKTmHwkwQOBPEiAuWitAsOaNiDL1meOOD6Fa1MJpSWsinmBb2dDE7G7EcQvEL4mvtiF52AAh3uKwP7clYJVAmJOiyIlA2RDI6bAclZvmwl/rQbu+o6FpWYBJVR0TMfSS1rFqp5a7aQY9UlTNCtWXKJq1tSncaOAgEO6TyJLSQqdD4CvKI1j+gUTM4qX76Rd1RRKqnGPhH0UFM+Rfk0hbW9s9YQJRdUQYHDjalExsgNDa5rbdn6aVADtkKkUst0LTAZikSauxb9sCVKz/At2Gnw4tdRBgZgrF7SAF7gzR36FqKPQ3Uf2x5WnnYC8MaKYOv7cWhiHkY7KMIl30LV2GjraCozcV5zAB2ld4FB0aNKcTmiPByBUqAmYYMHU9kLQz9BniwTQVDT/JzQGHk2RsWLJ8hstZOtPSn2ku0qWci2UkUt2R0QBusxq3SOMnQaAqYNa0q+/gPF1hdZ6vskw5y8gEHC64kpKgOV0tcXnWW342QKi3yOwvtGkJ8CnNelIjHULamhSpF9Xla7Bj0cvoNvgIuLocB83sIMTFCtwVPAeGHBBFRIT1UiWeWpqsQwGCH6u+XwSfX4cpN83oAMEv5FqvU3bzkw7Fq5gEiBxJgEaAUINhCkfW+kAfhwwtUFsyhRMHn2GCjFemocPj8bERy+lywpEUnF91an8EHwQOTQ6QAxKIRmmcJseDzGSxx478cFr6pUHTNWgabf5SLgLh8egZugEdDvQdOAiZ7bJtgBDUZmE2mDrzIEgqRpwiLe8g1NJnumx/fVRSK+lyzG6E0bYHMi9ZUQdVtVCc6pShQ/eWYtf3L8OdloyOQycAZq7QNcwgtC2AAMOH2dOmoiA/Hw53SnQGQSPARRsM/bT0OUtMiQO67oBOeCcE9QleSF2Reho0NIk5VUezUkit2K6kSUEwA5ywLJixjB1kRZ5POviazGbQRXORvWJkQzRidnh6OgLAQbWPb1Fsg5z1IZ/xL3LseAxb9thxUXbDAfofiVIQLMER83p92LBlGw4/ehQ653W1AQKPP+u/gLTkLFNzwTJ9rcG00cxfrWQPas7LIAjlSDmEn1viALlWMj5Ru8EnfaVMhWKtL4vPylYqS/q6gxSzrMhAWtg0ffBs/wqbly9ErzGXwJHSm+gDuWCCJgZuSkhDQ1mJ1sAgwO/F/C+/wJDBh8PhToXBcohGU7cSEwMn2RQgMlDTS27S9DenQ8wBATKDl6ZOrIptMMR8CMlToFgFBgkGTFOXTrACMvDMNAgoEBB1SjZGPEcBD4eDtz8BEKidEinQ+w1GEfR9CUI0VYWUwEM0k5cyD0UCCAeCwA+NEuKMJiaVXRPsDJlrWBoamYpMEKPjr/Xil2Ur0WfIUHTqkl9v3XFoetawt8Y2Maj9Rdmo2MYlvWJYuUqbGqHM8LkQZ26Eb7J1N7OGdaypvi223eY78RUEEK1UJ7MA0mvbGfwMaQpQJwOet2FjGQND0UekQ+kxJFlSJk6TSGWlHAWQNv3l2DrjaeT06I70AecDyJBowPKuOgAhbMNoxnMs1toK9sIAdAIIn2PwoKFwulK56mVkcB0OZJtq9R6c5/JJntWjBAOmAT/5ExgmXG5XYNfX9SAt76SNm36cTng9HuiGDqfTKf1bhX51OV2ora2FOykZ9GjyUfD5vGJD5/lEAIHcBlwwTadkyYVfAt1D4JY2OndyMvs4GOTnQGZ1p5Ppc7/PD7/uR1JSElz0Ny5OJid7zPnYOsaPdKaDE6RLcKYBumYyr5XkcMJfVYNly1aieNBQdOzSxQYIgQOorqNmfxV8nlqxwBUwkBQUo18LwLSejnityPkj140Qf4heZtXbQigq6qtcfAdH3yT8lhDly7/4AY1su43JeUQDRw19RyKg60DfISanyfPWBc3hgtvlQmpqqvANsF5xAIJgEMQJjJ7KACHEe5ykraN8yXuoLFuLriMvh+buVvfknEh3Ex755nNjKEDwYN7MzzBo0BC43WmyIkUr7XgIHUA4PBi5Qidz8kOg3finn35mp8X+/Q9DcnISgwZeqX4/9u0rRU1tLbrkdkF6ejpv4GXlZdi+dRvy8/PRvn176IaBtevWoqqqCof1G8i+B8qfQPf7hS+CwyXZAAOaJhwdad7ur6xEye7d6NypE7JzqBw5eeSTz4QBj9eLFctXwOVyoaioCBnp6SJPKK2ZqM6lzWfeNUZL+FBlSFOXafCO5GeQACQ7XXBU1WL5slUoGmwDhKC8af76/Phu9lzoXi+jTZ6QFl3Nsd5y3bMLF4FOeUJyEkI16bQl4sHpUgBBPYIoHY+3VtjAmvlFnshJ7uRmySIoHM/bIZ9sdWjwBWyRjSPapgII8Ty8G3JKEbs5Udx+VzIMVqAGjhl9LEDzuR4XO4uRmYLMC2o284FRzl25EHyVq7D9x/fRpd9oJHcYDmjktBbKINTjtS3m1nAGYd7M6Rg4YAjcSWmKvG0xfTnQhvIw0wlfjjfNNTr5V1ZW4q9//St27tqNP9x0E4YNG8Z/37RxI9Zv2ICffvoJpaWluPLKKzBixAje2Kd88AHeeust3HD9dRgzegyqa6rx0MOPYP36dXj26eeR1a4dTF7rGqprKnmOkX7SKboBOpKSHXA6XQxAfvzxRzz77//gsksvxgknnMCbP/3U1NRg+bLluPuee5i1OPvMM9ElL4//e9SoY5CRkcGiYMNDK8Z3ZGKgyBvT8AOGzsyBj/SGA0hxuuGs9mDl8lUoGjQUHWwGwbI8vH7M+exz9OzZE2lpqWEbOVFXwXsVQGB1Lu1cQVuvNCTISaa+Rn9lgBDuHX6gK7QJv0fOPG52uGrClxzgo60AIUCVaXzelU+McTxO+J1N1fF4AIEa2NB3ExR1oabGg1++/wFnn39evQCCKExlcTSTtC6nOQgABNEPE2UoXzYZ8OhoN+AcaO4O0udBWoNbaQL8cIAwnwDCYUPgShEAIdYOI8BXy64NwM6CZLpi60BwN/3www8xZ/YcLFmyFGvWrkGvXr34pF7YrRAzZ85E71690LNnL/Tt2weDBg1EcVFP3tSf+uc/+fOXJ01CYbcCrF27Dnf/+c8o6JqPB+5/BElJdFgRb5r+2XTMmTsPWRmZ8Pt9rE/Hjh2NMWPGwOPxYs6c2bj3r/dh4qOP4LjjRksdpmHevPl49JHHsLukBD16dEfl/kps274NJ554Eu6558/ISM8Q9Ubi6YgWPqeZQSCwZRDrQgyCCUqBRgCBGARndTVWLluJHoOHoUOXvFYNltRQJxbm6PPj25lfoV//fkhNT2OaK+Bkw1wrIVGBMdlYoACAZBGEWSJ0mwpX9QIcNHQDiDeDG+Fz0ZnAg6xbb7SnKwch8bnKrSerIIYtqkgSCHxfKs+gg5MStPgW2xlV3hSlnuqEKcVd5hG6Eb+X1m4c2Cg6mpzJdDGTBVRVVzMjduqECYDTndikYPQle8YRCWo0ySmBqFwpV4cAzFS8ybtrMUrXzEK7XscgNXekYBEYTZB7e+zNMrFGNb+76gCEGZJBSMmQDILUA1KEoZbGA5s5zU0K4f58ZGL46uuv8NKLL6G0dB9Gjz4Wc+fNZRp/4KBBeGHSy/j30//C8OEj0LlTRzYPVFZWMXPw+uuvo6JyP04YdwKysjKRl5eHp599Fnm5uSjs1gNpKSkYdvgw/Obs32DWrG/w6bRpyO2ciz179+KbWbNw0YUX4KSTTmSNtWTpUjz773/jzjtuR9++fdGpYyfMnj0bL06ahJ9++QUjjvwVg5R1a9fix59/xvHHHYd+/fqhe7ce/IzsnBxmEQJzPRBmIUZR7QHNbTwSa0/Qu0yYGcg/gzhYYhAojFSDo6oSa5atQI/BhyPHdlJUh04T5I28cObXjG5T09PhFz66clKQogsqu4C7VhibquJ61TmwpaoCZQYh2lCtCjoxCA/gGJc6OMoNhOx+nPwkHCDI54iwJelxT/cx+BLvUCWWI72NTy8yQQuPTMDzObFlUucuRhxhcf/hN5EZSb4nPpSo2w7BfERwGDzAJkeUCwA3GRk0HRU1Vfjxm7k48YIJgEOYi4LAKspLpR2XFWEg9Cv6veys6NmFinXT2Wehfe8zoDmzhb2N1I6DPM0PBKw1olCa4FHhAGHBjOkYQCYGK0CwmCOboAnN7pHkfFhdU4MH7r8fb73zNib89jx8/+MPOOmkk5Cbm4t777sPr02ahCFDhjKdT86L5Csw8fHHsWL5cgwYOADr1m/AsuXLUdStGx/Qhh91FNrn5GD2N1+jV58++Otf/oLa2hr87b6/4eSTT0ZaWhr+ct/f2Kdg/Yb1cEpdQnOOHBAHDRmC3199FV555RX88ssvKNu/H6ecdBKqq6uxYsUK9O7TB7mdO2PtunUYMmgwm0Y6dOjApjl1KR0lwIHQUS15SgsGQUXskc8I6VoHDDpVuExoVfuxfukKdB9CAMEOcxTzgATm92HBzJmMOtNoAocYA2iTUyBBRkUq84JlqVoJZEWFN7uVnECDFEBQiUtoYVAWMz8FPctNXW3SnCBFbvic6Yw2bAd5DOtMH9LiDd9s2LOYw+VMbNq8iU8CgwcOQkpKinRGovc5sXPHDvz080/o3Lkz+vTuw88iReROcgv7o/RYJsUQDkIS6GbYLXFGLCz7axjJEvd14umJmBjiPirqDSQDBggOPypqqvHLN3Mx9vwJMBkgBJMlC3fGhlwi1FHjrIl++PatQPmG75GZ3x/JnQYAznSAijupULSGvKoZftcGCHUHhTbdd999FwsXLsSXX3/NGzSt1wEDB7Kj7LTPpuNXww7nSAcCCPl5ebj9ttvwzDPPIKdDB1x15ZUgE8U///lPDB02FGPHjsOECROQnJKCv9xzD3/vrjvv5GeR+WH9+vUoLCjAuvXrcfsdd/DvxT16YMfOnXj22Wdx9113MXPRrl079n+YOnUqXnntNUw47zzs2bMHixcvxsiRIxkQ/LJkCboVFuK+v/4VnXNzWXcp3cfAQIGDVgoQKAGa7qQQEhOoKmeA0GPIETZAsMBECRC+RN9+BBDS4WdPbnXRBmR1QRSzxrqlhCvd1gIQ1GmS0qgSJVhVWSlDlcjz10RScjJSU1KZeysvL4PX60XHjh05XMnr87InMgEF65WZkcnKg9iCSZMm4f0pU/DaK6+iU6dOAq/BRE1NLV566UW8+NJLKCwoZPqPFEtBQSHGHDcGLoeTnUjpoGtlbg58P2l9AGHJN3Nx/PkTYDiS+ITP4C1gnoktqXCuKBRQEFAkh1s3J0YyjQqUb/gaeukmdBhwIrT07jKfO5k2gomTDnxsmtc3bYBQdzzICXDqJ59g5cqV8Hg8ePe993DUkUeiuKgIZRXl+Ojjj3HhhPOx4NuFOPaYY5naHzRoEB586EFmJs844wzMmT0b8+bNwz333INvZn2Do0cejdFjxjBzQAeDu+6+G9nZ2fyOO++8E6tWrcKpp56KG264AX+4+WacesopKCouwsMPP4zHHnkUo0aN4o2+tqYGH0+ditffeIO/W1Nbg+FHDWdTBjk17ty9iwHKdddeh3ZZWQEGIXBAahMAwQGTGQQCCMttgBAyxYlB0H2YN/NLwSBkChNDkFHX4JApRYOQQboTWDWnRavydtOwY9qh1Yoy7anKZe43dLw0aRLb8wRTrsHtduOUk0/G2Wf/BosWLWJ7Ii3k3//+9xg0cCCH1/3v+efx/Q8/cF+IViSv4dtuuRXFPYv50c/9+9+Y9PLLmD9/PjMIdA+FQk2Z8gFefPFFdC0oQNf8fKxctRKrVq1mZXH++ecjJTkZSW4KoRL53Bt08TjFBwgh76jn2B5KBqG+ACGaJEK8UkwPDNr8DRc0wwfDuwklP32EFIeG9sPOhZacC2gEEJqWNWnQuB/gl22AUFdwPp+PT+mffPopfzhr9iwc1v8wPqF3LeiKd995F3/7298wefJkXHThhcwO7CsrYzDw3fffo0/v3ti9axd8fj+eeOIJvPDCC9i4cQNuu/U2fPLJJ5y3gAACmRX8Ph/rDDJPXHnFFbjppptw7733Yu3atTjm2GMx9eOPMfGxx3DssceirLwc0z79FF9/8w2Dg63btrLOGDx4CLp164ZFi75ln4RbbrkFQ4YMkXkZBLtJl0ogxAel1sIgcIIrkShJpVA3nA4YEiBsCAAEO1GSmOlcEcSHOTO+RB9iEAggWBgEkWsrNEMahwCHuRyG7xktGiBIPwBaILR3VtVUM5U3e85sjBwxkpE2sQCjR4+G1+/nzXzjxo1Icrvx+OOP44Rx43juvfTCixzeRMj/u+++w5IlS3DH7XegoKArg4kPP/oIn3/xBZ54/HG2VZJCef6//8Xk9yfzSWTEUcP5XatWr8LGjZs4dCm7fXs+WZwxfjxSk5I56UqDwkfZ3t70nI/MX3aA21L8r0UzMRwoQLCyCKFzmxQMsUJOaJS21dShGzXwlvyM3T++hU6HnYDUHhRilhaaTyR+F1rEHTZAqDtMBOwphPEfDz7I+Q3mzpuHvLwuGDZ0GFJSU/DJJ5/in089xYzhBRdcgAsvuAC7du3C3/7+d6b0L7roIny7aBE+/OhDvPLyK2x2vP3229CtsBuf6MmccMeddyIzIwMlJSX48z33sLNiz57FmPTSJOyvqMBtt92Gwu7dsWzpUjz11FMYMXw4+xtMmTKFQYbT5cKPP/3EIY/0zvTMDPg8Hlx7zXW45pprkJqWKkyinJEp6AslfNOVk2I9TwbNcEZLN3vRRabJHTAcgkFAdRk2EkAYTCYGGyDI4RMMwiwrg2ABCFwoRGY5CDAIRG/HGfwWDxBo/pDDjgQIt95+OzZv3ownn3gCh/Xvz74GXq8H/37uOd7MadG9+eabeOAf/8Bpp53G3yVmgE4Dl1x8Mb7//ntMfv99rhRGpgpajNXVVRyeRIlNaNMfNepo/POf/2KbYm5uZ4w9biw7FFHilNNPP50ZBnrOWWedhauvugrtMzJDnIoOaD3aACGUUJNwSZnY6vosqBOWNFuYfhjkk6DpqN26APvWz0XHob9Bcrv+gEaloFvXFQ4Q5keKYmhjToq0qa5evRq/v+Yapu7JF4HYwqOPPpr9B37+5Wf89z/P41//+hczgBecfwF27tyBBx54AO2zs3HdtdfyJv7K60oCQHYAACAASURBVK/j9VdeQUFBAb5dvJgjGJ5+5hl06tyJDxZkZiQfg9deew3HHHMM5sybi7HHHc/P2bJ5M5avXIGHHnoYTz7+OLMJBCYoSuKTaZ9iw7p1yMjIBLEdpfv24eijRyIzMwsbNmzAgw/+AyOGj4DTScdBcshWaaBlIGej+Dk1j3VQFyA4LQChHBuXkIlhmA0QgsMlohhmf/kV+kgTg26K9JNCOQoGwRoly7bcOE79LR0gCHKFTC0mh80Rg7Bs+TL8+a670b9/f97gaXEzzQ/won3uP89h4qOP4eSTT+E45W3btzO1SB7OBCDSUlNx9dVXY8XKlUwBfvTRR3j7nXfw6dSpcCclsRMSgQOyIxJlSLbCVWtWY2/pXpw4dhw/hzySzz77bLY7an4dlMK1QddBAgiM1KVMG+5UWbfH4QyC8EE4X/ogiPsT8UFQXEp0gCCjTAJNoPGnmHQdTqMce36Yglod6DLwbCRl5FnMDLE9G2KNYTSGqCnkGG8uhQIED+Z98RkGDRwMd3ImZ7LkiJE2BhAoQdLTTz/NbOCNN9yAJ558EkcccQSvYYpMuO6aa3DmWWfyRk7mBWIRyAmZGATaoAccdhiWL1+O0rJyvPX668jN6wLd54duGrjhhhs5qdEN112HKR9+iNdefRXjx4/H5ZddhhdeehGbNm/GY488wo6RM7/8Eo9OnIhn/+9pHD1qFB9E/vvC/zDt02lITU1BScke5HfNx77SUnZ+vvWWWzHx8YlsijjzjDPZiZF8qOggoiKsAofCFp4DIdAP6bIcZBCCAIF8EDawk+JQGyCEAASfF3O//Aq9+/VFSibFMwsfBAUQRGlRSTMp4NBGAAJ1s7KqCrfdcQdmzJyBIYOHMNVH9sBLLrkERx11FNsFX5z0Ep7/z/NsLjjxxBMZXNDpgWyMd999FzZv2cL+B+Sf8Pf778cVV1yObdu2cya1ObNmBcLwyDb5+muv4bPPPuO4ZopoGH/66cjJzsa0adM4HSvZDE85+RSQ8y1lUTvQrE4qr0LCJoYwhlGVm0+EeNR1E1p42uOw3SiKS0u8PYs/JwBLUQwOh47KmiosnT0XoydcCNNBf21KgEALhbJZeuEwDPj3rULpynkw2/dDx17HwJWcGWTqQnqSiNTCwUioKJoHQJiOgQOHICk5PQgQ5IgwyE5o9MRN8fYgSXzHeWKQ84n27sQkH6Ih67zTWh65qqoan3/2GUr27MW8+fOwes0aXH3VlZg9Zy42b97E+RGIbbz3L/fiwgsuxPnnT8CunTtx//33Y8/ePThi2DCsW7cee/btwxMTH0NGZhYmv/ce1qxbz35P5557LiacN4Edmsnp+bzf/hZdunTBxk0b2TGaTJbkA/XBlA+ws6QEk154kZ0gS/bsZuAya/Zs5HXJRXnFfmRn5zB7MXLkCNx9513sm/Dqq69zxkfSU8VFxRH6GvonJVf1bwIplqKsgXpMjka4VY27KMcmHeUoayonvtKA6v0QPggEEOxEScFB83ixYOZX6Nm/H5LaibSbgcFnoBBcdOq/2gKDoORAOc7vuOtOLFz4LU479VTOm06OQ8eMGoU+ffqwieF/FHXwwgvsIDRu7Dip8DSUV1SwM9LHUz/Gow8/guOPPx533HkHh45S5AI5OM6aNYsZBjpNvEHexqtXYfPGTey/QFqT6EByily9ajXOO+88XHbppeiSm1uXPQgLR2yENRWsWiedMwNzw2qG0uIHMZK3drz8Ag0BCNQuihlwaAZqavdj6ZzZOOa833HaZTWX68MgJC47ZcykGGvyfaqBp2QZSlZ9jYy8w5HdcxQ0Cn08wODKWP4lhx4geDFvxnQMGjgIbgIIXCdPHSuEBAObSTykwBE5scUUXiGx7hhRXpHQh9TlbSj/SKzRDc0cGxnkqMwaso8meKOuqqrBq6+/htSUZIw+9lgGCx1ycnD2Ob/Bls1b8M6773IU0sgRw1FRVoZvvvka7bIy+dBRUVHB1D85LFLdhMeffArbtu3A4UccgV//+iT06FHEdRx0vxFMjcwCMxg0EJBYunQZCgoLOOkSHWIob8KcuXNQsqcEAw7rj0WLFmP+woXo26c3Tj/tNPTv158HaNfOEtZh5LjocqvEYlJIbE4OQgKrA3oQIKh6DtEEK3m5uMgsHHpYx0l9OdZD4kNC6x0ME2ToOplXjJpqbFyyAt2GDEaOnWrZInyPB4tmfIWi/v3gap8R4oAoCjAFaey2CBAq9u/HnXffhU2bNuHv9/2NF62ntpYdfwgoEPr+3wsv4KUXX8TEiRM59ami/olBoLCkDevXc2zyf59/HosWL8Y7b7+NzMxMjlCYO2cu03oERMhUQc6M5WVl7OxEioccGnM65CA9PQMPPfggxo0bx+GNZN4ICXNsAoDACpKiOiwAQZ3I1eYlankd+hqYdAgghempKceKebMw4twrYFhqMTQNQLCcNKVzl2ZWw7djIXb+/AWy+x6HzB7HQnMK4F33LBZXayaOVQ7CneEmhrkEEAYMRnJyKgzNKeoT8KYSqGQhgEKc3OVcWpt+ONFUZEmRuS82zohVtjj4zCBACE8QJrSbKpEcVZyqBLg6JZnBmUXrldYCFVXyeD1sNnS6HCAdQm1PSk7iQmK06XprahhCka5g+7/DyXrA7yfHVy7DCIfLxeZM4TBN7RNyFSYAytgp/KSIoSA9kZySzH5NXDmS9m3OGGjC5PTCJgMB8p9KSUkWlR7JgOxM5ufRu0VdstA5SW0V+dmCJZKDwEkmUGIZxLniTnVL1dQ6j1J9jwcQrMZB1Zfgd8IBgqFRxVbA7XRAr6kVAGHwIGTn2dUcxcKl6WADhOi6AODFfefdd2Pr1q14YuJEZg3I2YcynpXt24eysjK8N3ky3n77bU5SMuqYY9jxkBKX3P/A/bzZU2jR+++/j+uvvx6//e1vubDLe++9x2FIc+bM4cW7bt06/Ov//sW50znRktPJ76acCmedeRYXeqH/vuVPt2DwIJFcKeS81FQAIUxn1M272DyKZCuA4GWAMBvDz72cAYLIZR80lMVTMfEOu/H0oIMVcjmqN32DXcvnIO/wc5DS5QhojnCnRV598R7XrD6PBBAGDxyMpOQ0GIH00pooI2y55BkyRl/EHHKo0rBiGwzcL74fr5pLIhBQPCe68cMBLd5mx7uoNXW8FVgEM/VxiWe3k02NtJ4dXJlRzUODU3ir07lD0ifEtInWieqk5A/GeppxgEyKFpAtsSEqLX4wWyht9AQQNAm2CBAZpvArYCdECo2WQI5ao2kUvSBrjEQACLSCqMQ1/89SxjyEQYjrth5vGqsxiT02sd3jFZtnnTuRGSW+U4Iel2myrhUAYSW6DR5oAwQ1XDZAiD1xST7kg/DX++5jgPDwQw9xUStaxXv3lTJrMG/+fAYKO3ft4ixpZP+jSANKdLRt2zbcfvvt7HtAEQ5E41Fyk53bd+ClSS9hwcKFmDd3Li/eLVu34tlnnsHCb79lNE9onzKeLfx2IUYOH4EzzjwTTz71FDMH55xzDqd0JTozQDU3FUCIwiAEJWcDBCULVkes1HWY/nJUrPgcVeVbkVl0LDLyhkFzpohbA9hAKbXg6TCeKj2Un0cCCEMHD4WTqmha8qUIgBDc4DmDaFQwJGh/2uxk7JnsYl2QoZK01Q20VslXVN2YyFJSQCMyoyHaLNiPSMBNbt2yKqA8bvOpnpgTUaND7r18uhdpuynjKjECdA9ViyUQRBlQhbO3IUtFC+DCW7jDwT5g9BvJTWzsonSzNe09yUoABMXQyGJ5cm7xZ9weirwJ1hMhNoJ7x8+lEHYCLqoIWdipm+qbyIJwgS3cAhL4bguzcUB4lydVcHOntkUC6QxmYrxAQavQ74bOQ9aVXNNG8iGaCbepweUAPFXV2LBsNboTg9CFcpkcypV2cN4dt1hTkwGE8P61YGF7vT589/13HM1AGdKysrJYgXg8tfjp5585/JFz89Ok0w02HRQVF2PGF1+gR1ER5y9ITkrCzp27kJaexvHJzz7zLL7++mv07t0Lb7/9Dp8wKEriwQcfxK5du5Gfn4ctW7agQ8eO7PF85x13sPPj0mXL2CGJEihdd/31HAplPWY1hZh5wVke3JoZBKWqDnx5Cl8EcRnQq/dgz7q58JZtQk6vkUjLOxwakgRdLNCEqN0Q4IISoGoPvHEN/mZQ+VL+FC9mT5+K4UcOpxgOchENgIBwgCB2sRgbL4EDhx8mpamWJ2jrWCjgFfSHCttG1O4lzV3h4yimrzSEqVj/wEZndTmMZSoTvjZc3p5ZItrcaemrpzuEIy7/Kk72BA7YPEB8f6DonfDW4JE2dAYBbD7hzdzB5glhHhdmBTIjUrI6YgWCAEGiEWlCEO+RuX8sCkFCBsvp37K7s6zUM8XYiPENjqPAEQK4cT8Yh2kB/oTaRjFuAUfnA1FAMmyefXjUO+R4qblA7+HRi/F8hTNC/g2sK2JfBGATRJcpzDgEEDTAbQK15fuxYc16FAwahOxc28QgF2LTmBjCNVFLDnsM2tpjz34xMWkSCyVRVVmF5OQktvnR7076FyZnUVswfz4zE5SvvV+fvjAMnc0O8+cvQPv27dAltwumTZ/GDMThvzoCZ4w/A243bSwmhz0SJUZ53ElJ2QBBSKAxTAwN3kHV2UdOeAp/9FTuReXGb+DbtwHZPUciJXcY4MgMAwhiAxP1KJvvFQIQTANfffguMtxu+D1ecXq2KORQE0Gg/JvsXPBJpPjFRkt1SmQMfmDLEUCKfRRk2S3rKlREDG8f8rAo6PDQi78j+XFup6pYy6dJtY3KLNmBPTTyOdYEke5BcwYzAxbfBSokTL4BglUQOdEDRdnVRkcneqqnQm8n84I8wYvuU0liEZxEZ2ZiGzw1HgYZTqdbMoYKIAhAw/iITAmaQ1bblQ540mDBnwVEIvpM/+82TbgNg+3wajNW4aoCHAjfA80k4GZKWl7j9wjZy41XAjsBjpTcQkcqkjT5HdwVB1yGxpFA9AfRVjHiPKz8PgOmI1ZVYGosJS8TTVAF4oReVjVrJEgkDMbVHAX4cVJoZ42fyz8PPuFEZOfZUQzBFdQEPgitDiAkUi9ddppPA3QqYHqQKE+xUBTQoCQqTBtKqqu2phYut4s/pzoOCiUTq6ByotPzqPaDegadJsiWKE4VQZ17IAA+3nbU1hiEePKI/Xm4chSK2vTuQ/nqz7B3w3fIHzIeqd1Gs4IiOjnCVtawJjTht8MBwtxpHyE/JwdOvwaHYgjCJgzZwlnl80lUHfUtk5b/UypuuYuJ99BGJGY0b8cq3a9sBG+McsLTJkM2ZXW2NcNAgmAgaAMRpDptIsr5NhB9IXYq4n2iS5BOz5LqF2tY+BXwmylkjqN7CBwIBoE3Ng3QqX2cvlg4DRLEcPHmGpSo8OEQFyX2I3Bg6gYMvx/r161Hp865yMiksFlyxqTnCGGpkzEDEQYISgsE3IlhlYcwXQiJuw0NyYaqGhJ0NQ6CBNJhwkzBjtEBkCDfE2gH+TWwlrPYz0K1UTQXU64rQzQ/nHDRmgiMK4E+CbKYZ6MygrFTyztMpzRECAAnXCokcuS8NsSE+CXiJIBAWUwMBiYOrx+795ah/7GjkZPXRjIpGoZhWpNe1A2NMgGPF4tmfImiw/rB3T5TbkqKbBL2L2uoI0/jetq7wzeZJtRhh/zRtHBlpG2QKgy0SgADpsxk6eZI1dNidSL0LGZZhPUcE2H1lBtYVP9wCW4sCXBCTwJqnhxasfPZWxNnQYpiWD53NkacdzkMZm3ElZgLW0P7Een0RM80YNbuhmfTLOzcsBSZRSOR1W043MntRGnogFDVIDYF1Gto36y2YZo3fsz69CP06lYMh6o9Eeg+u9DLbV7Z1tlFLoxGlm2iDV0TdWTFrBRKPSAWzQGX6eKNxGoQCAm5kiXTo8c6KF1GTxcnYrGdCR+CQGsDERcRzrzkPyCd9tR2roJ8VZvFmVttmNK6zrS8Kpcsyg7Tqd3al8DGLil3+pzAgeHTsWzZMnTvUYT27bMl4yH8Cig6gR7LBwb6ESFF8lKbtegHwzOZSZnpdQZKDjhNl1w70jnSEq6qNnyNT+7iEs59AvgoPKC0RODN9Zy+BNhobFm2gcL3EiCo3sSJhJGcgYSa1ICAC6gcWgJxIvOp4ih4tmkGHFQht8aLrdt2oe/Rx6BDW2EQYgIEVRvb68HCL2ag52H9kNIhGz5Dh5cmnkTtDo0cawSNFlxGajmJf6PRR9ap2nD11MyfoGg6mYFRTNjgdFcSEycP8VvjVGMMyiXxdalYDXkSiRpCJtE3nx4iXfKsl/iLm2wQk0w6CRmora7E0nlzMer838HUgnkQos5dGQvdOA2LBhCkitarULN9HvZuWonUrG5oX3w4nOkFEEXp6Viny5BSYRu2WsQTT0jTOD2JPtqyL4ZPAITuxZywS2w+aj4Ebd2sN0xi0uigoTYhcZ/qH2/VmnDYsx4m1OdC3dNmJh0ZLfMt6L8vbPdq2xXbY9jE5FO6Hw4qSccsg5zfQttJPwnRzrp6TY2txduC/mQxUzCVzRtxqKcObdxBM4Og1SnaJag5RYSAbIX0cwB00sN+A2uWLkdh9x5Ia98ukK1S+CjIZ1A9ARZ5MJOl2rQVYBLPF74OosyM9KlgJkPUPLXCfTVCatSo0fw27q/cfLm/KvLD2p/w2RMcCatJR7ji0PwQrI5DI5JfEP9CrqwlxbgE7NTW0QnTStQP2Zcg/FJjTMwLewYFksvxJ6T7dD+0Gi92bN2JnkePQk5+GzExKIBQZ7GzpHTxo+uY8+k09CguQmZ2O/h0Pxch4pAcckIhz1v6X9RNIDi1IqumeJ8notAiL9m6W2M8qJLIu2LdE7svzAaQaNmYGMXhSVFeih5saJMO4PuBlgVzjkZOyKgcmZoBAIjdTaK4xSm02lOLDT8twegLL+KqitYZET47rNvDAYix/l/heLVa+PauQcXqWTCTk5DTcxQcaT0Ek8B6UIADiou3qlyhiC2vPARjEnw9hen58M2nH6JnjyI4HcmhbbU0VDL3gQOG2GDU9qX+Vfo/0ghZNk75FsW+SRI51Is2cLBVuRgsoyw3SbGKeXcPGUOVhiF0C5JMW+CPYlSCkRCh0FNsOsHHqtN2aKwPE/1hACH4JWIP6MdrGnAbJrb8shJ5hQVwts9iZ9AAkpC0v+qGFfBwq8KASiCLYNg0EveqPwbHhPsiAjL4EiyI8tuQvHKACQm2Pzgu6pmhAIHBkgQ06umCp5aylQAh0CLJHAXbQZ/Ie+tk7bPCSktHyQQkAU4ACskmewwdjmoP9mzZgV5Hj0ROW2MQ6moy3sUA3c9o6tM3Xye4imSq6EUOGxIACw9aggfBU2/9tWLb+YYA9PIkJPNVkyJhctUwOLMiVXcUph7lgnNo5BOaUiQasBJL8hDsRfUWip8cQ506fBrQznRh7GW/A9DMAILyRfFVQt+/HqVrF8JbXYqORUOR0mkQkEQmB0pbTLxxKFnenAGCgwFCkEK3cooCIIj5JTYiwYwoR7REJxc79cm9Xq2fWNylOuWGsgTxYKaqGiLuU9uVYDjEH5iWlhR9pKcJgCAMs5E21eB3hJlDvYkYDXURUCE/BB87EQLbl65E565d4SCAEDAjiOxSQfNIOOAJhSSiPwHjZ+BdQj8pW31oj4IAQW3dYgDURkv9DMIFBZyAyv1lXLCKqluGX3QXczBhAIHhRhRFI2Qa7I9gGMT76kZVRR5j0XKrOUk6SMJEtWnASQBh8w70Hjm87QAEM2YKMwkSfB7M/mQqCgsLkJSaCpOSbATy5pvQRFCufSUoAeWAKBYkhT6KMDZPbQ1mz5mDsWPHCafEGEomwVc16DaLyo79HBlL3aCXHYQvq/wD1V4vti9fg9GXXNRMAQKdvmvZc1/31KJm9yJULp2BrIKhyOg3ElpyAaClBBzdxDwS8fnNlUFwOJIEYS1P6OEKg3SIOseLDU0U72LKJEH0WQcgqMQDlrllPdULwKLYisRewi2Tzn+BCASZ0yDgG8EsYXSFqBiEYDbJ0FN3vQGCqWHHkpXoRGXi22fKKAUR+UC6hnwCol3S8yEIBpTfUYLr0doXsR2rvgg/BBG5QvuDLsaXHDJ1He+9+w58Pi8uvPBCBgrWKxpAEHkZYmzujQIQRAIqdan21zBA8GLP5u3oZQMEJR45yb0ezJ76EZcZTUpLhUHgQAIEVrrCYGVfCUrAChBIdqo6Wk1tDeYqgKDSpyb4zKa6TWyqsQdXKPTEFGxTtTP6c4OnJopNJ1/nGk9zBwgmDIPCAomdIwfFWvh2L0XF2vnQMjKR2n0oUtqRyaEdeanxBmA43RxvroLLhDwO/rgEZ0qoiSEcICjGILgzWRmE4JmT+5Dg1FK9pX/JNk9OehTuG0z8Q6QosQwkJdq5RO4B6ebPr1FrMSSySKYtZ+dhBggCCnCLOQuh4NiFKhRhifEBQtBjK3RTDcCksGyMZB4LZRDYxAATSaaG7UsEg6AxQBDPUM7OsQGCsviLkbD0LKGlqgCCyLjIJDMXkBOwgNK9E1jSBUMkAZvf58cbb7yO/RVluPnmm+WYaDxmYmw0aJS5UJp4WD58CEmMQRD9ODAGQQDS4ISzAUI8BoEGx1uDOZ9MRdeu+UhJT4fptNIwxDLY6CCh1SRvEopGTHYSPyslaGCAMHcOF3OiOg6kzJrDFc39MAgjE9Tgh6QzSoYaJ68h21i1x9PMGQQKtyLTHtXSkBFCphf+/dtRvvNnVJStR0Z2F2TnjoQjJROGOw2mI4U9zcW5W5zAxb9CWR+sKxwgzJI+CAIgBE+K4TZo9riXJ8ygNTpx9kDBIXXK9Pp8nL1U9/tRVVWFbdt3oFPHDijq0QPJKSmchZQyn5buK0NKahoXO2qXlYVdu3ah1uthVm/vXip73Al5eXlcZ4Xubd8uCz2LRUVDqqtAhY62b9/GjF8RPaNdO1BaZFarUbL2iNEITzcYpOYDtgq5Zaux4/wJFthHQIUAAmX62750FTp3zYfWPitgymH3wBibakBmYV440aM86s6iACEkna0pV8vu3Xs4myzpL5JhdXUVCvLzOWR37969XCRq+vRpqK2pxvjTx2Pnzp1sVi0u7oHKyiouW19QUCiAgsOB3bt3c6K43NwucMSo+Crwk0VncuPqmkyirQW6nUGNxZmOTDkEbmwGIaLU5OmLAcLH6JrfFSkZ6cwehNi1iB5sHnvZwdKDDXqPYhDEhDShUwiNpqGmpgbz5s3jYkuc+ztu2E6DmpHYl9UxKdbdzXrwLQCBkt9oBqqYQVjdbE0MrNZMOgHTiUrY5CkrIXQvDK8XNfuWo2r3Iug1QFJef6TnD4A7JQMuJME0KXpefgdUeY+j+hMb60a4KyJA6F4Eh5PqTAQzJYYCBBl/LnesYKh1/dutQrZpQ/l24beYNm06m0bdSUlYuXwFTjv1FIw6ZhTmzJ7DZY67de+BrVu3obhnMacnnz5tOmdF7d6tO9dSoSyldD9lQ/WTM+DmTbj+uuuQn5ePRYsXYcGCBcjMzMCevXvRuVNHnHvOuchqR5lU5Yk3YZnGZ3sUQKBHqlByj2aEMQjkg6AgogyXrhc+jM8YRusSybxyfyUe+MeDnNk1MysLn3w6DT///DPuvON2pKWmYsbMmZwQbsP6dfhu8SKMGDmS69Zs2LAR559/Hmea/XrWbFx22aXo0KET15Z5+eWXUVhYiF//+teheV0Skm2iHgjiYSIVRiiDQCChxtRtE0NdeYcBhK4FSElPCwEIfLqUPgj1mocJDW7km1ReAKUMVCgg03sycUasUreB++TjeaO2bMaxvtuAZge+Gu6DoABCbU0N5i+Yz+VYyS4nIh0O7RWTYLLIT3KAYdYIy4yIMDkaG1OGv0I8X51HKYOaAUPTUeXxYNvSxACC3LOEwj+oQ0HhpaKADs0CdlczdLiIIterYfhKULHjJ5RuX4OUrGxkdx+E1Ow+8OvJslpgEtUGlADh4GVfrA9AUPIMpBxuJIBAjBxdn37yKWckvfaaa5DbJZdTlu/YsQM33XQjA/G01DQcNXwEFnxLJdW/wdVXX40PP/yQgQWVYM/NzcXjTzyJFSuX47FHHkVqetr/t3cd8HEU1/vbvaJi2Sq25Qq25V5wwU22sTE9hFBMLylA6KETDElI8k9C6D2U0HsJhACudFwwHeMC7t2Se5ElW9d3/7/3ZuZu73S6Jp0sW3v5Ecm63dmZN7Pzvnnve+/h/vsewLhxY3DkkRPx0MMPY/jhw3DUUUdyltMHH34EJxx7LI45VpRzT++TKUAgCwIEB6FL5zBJUdiQmhYgkNzJqvKHP/4JZ55xFvr368fKnYrN/f3vf0evXr3w/EsvYujgIVi0cAE+nzMXd975T7Rr3w6vvPIq73fHHH00nnn2OeYmjBw9moHZrbf+AbfcMhn9+/dPT6R8dXp7qA0QokWcpBZDfIBALgZlPmtqgKBMd7SYKPmHUvb0QpCvkcAC+xwloUUBBpUnnJUuZSR0isyEyiTJGc4osyEXS8myKrCQbZiQIwuuUHnXL+Z9gYnHHsMAgbIjNrYSTe8Ni6RjFZHN5AqJPmFEfJDKKyvN2hzXLuSo7lC+UMVpFalvIyFtMUsz6p+CnhQ5USrlH31PJDguAg2YKhUmS4W0EDxeLyqWLMOEX4ooBiuqEdHe9fck4m4R9p/swQaRf4JESH0KcXwj+b9DcLAADcCxD4G9Fdi56ltoOyuQWzYOrva9kNcqD5ruBrR8Ob6I8slmj6Okxhn0ApgzTYQ5anEsCNkCCHSSpfdn5owZ2LF9O84/73z2i3/77bf48IMP2O8dCAaxccMGrF6/HmtWr8XWrVtw/XXX4+OPP8ZPy5fjb3/5M1dDffmllzkJ0T9u/we7AR99/DEUFpVg4oTxuOuuuzBq5AgccuihXB/hf++8g4H9Y5p+wwAAIABJREFU+uHqa65OWr667nuYHkBQsvNBhDluXrwUpV27wlFcyG/p/gAIyl368iuvYvu2HTj11FPw4YcfYvuOnRwiP3LY4SyjX//6V5g+fTr2VO3GX/58G+8TH330MaZMnYbb/vgHTJk+DU6nmwvaTZ8xE0uXLcUtN0/m0tjpb81pAgQV5igFrFwMPnL3cRTDJvQcU25HMUQtYL8Hs8nFQBaEgnzmIKiNUQGE8PKWGs26zbKCkH9IrnqjrxCnARM57hwmsVAtdMWEpeQroggSKVlRz5zqEdDv6sMAgVwgug5PbS1XVhw0aCA6duwkToXSFUjEGU5x6tA5nbHaSBXQUO0p60Xq46m7FTAuUQ9XAEHXEKr14su58zD+uKOhURQD1V/fjwiBFBSngae0r2YA8FZDM/cCqIWJIA+MVoIwYpOZWHDpxV/lGrEQpgSeF7xp/o9Z1uSuUrnrpTlcstgVr53S1YqUtS5mGHPxG7lMrJkkRIiWNb8En6HEPEtvpKGHQEBs/ZLlOOpXv5IKVF1BK030xRriqWLfxVUiYY1MdyMAEMVPxzWWKGgUUcvW+xKTP2X1P2sCKpmaLuzRYTkFgEAVvBVLsbVyITSXifySjmjdoRfcBZ2g6WTuphodDpY3hXpyfT4VYm+14nM1HCmL8HisY4gHL0V64rpASQAESpTUs3sZoBMQi3YxREQmUi0rD3tECWTmYiCTtcvlwsyZM7Frx06cd965/O8ffliAN998C1dcfhn+8/b/sHVTJXr07Yeg14e1a9bgxptu4gJqxDe47bbbkJObg2effZZdEJMn38z7wzPPPItWrdvg8KGDceddd2HggAEobtcOXp8PbqcDw4YMxrhx49LD4TFQOP7N0cwA3vOgI2CG4DaD2LT4R3Q85BDoxcUiFwGtfCa5Jq5eGWd3SkpKTjQ4ktGSn5bg+edfxPARw0GF7IiPQJaEn51wAtauXcuWmjf+8wZ8tbW48aYbGCB8/MmneHfKFNz+j7/jpx9/wiezPsOpp07Cww8/jLPOOosL2nEq57StqhkAhIj2YOIvvRY+2hVqa7F9QyV6jmlBeRAShzlKSfk9mDV9Cjp36cpmtigLgoxgsLKSBfMzsmWEU3gmOG+p06Y1kIUUFFU2XLN2LYqKirja4Y6dO1BUWIR+/fqioKAAO3bsxO5dO1G9dx+CwQBGjRiJPdV7sGTpUuzYuQut8vP4JW7fvj0WLlyEJ59+GhOOGIfevftg9OhR3P6qVat4E6AF2KdPb5SVlbGFQR3fqRiK+iheQIPO9rznqiIssmQr5dzf58WXc+ZiDAEEt5Mpwekt7wbsS3VuFfUiCCCQynQZPuzdvg4I7AbMKhjwC4Ag88ZHWMoWbhYpUl4LBmdBE6BIWhRkjLLgajqYsS+wUCQZSngN6Q4YuhMGE90oIx/Fdzuh6S6YlDyINkEutiJ+ihz0dI0LuuYmWrUIXXK4obnzEfT6sW7ZSoz95S85XDBimRBPVNHU4mdEqUVC3QUsEeCJpklW46uzvmlEKpZdZJSLQJFkM6tAVj1zKjGHGCnn3EWgdhW8O5Zjz45NcHj3oU3b9sjv2B96q56Ak8hrBBAooz0QrmljGZ4wx8Yqe1UjIcHa4hoLMcqcag1woiQBEDQH5ZuwAAQZKihalSCkzukhM4BAFgR6fz/84EPs3rULZ511JtwuN76f/z3e/u/bzDW4+9778de/3MZ72nfffY93p07FzTfdhPffn8lVUv/y578w8fDll1/B5s2bcPXVV7NV4qmnnuZqrKSw7nvgfpxy8skYWz4agWAAixYvRvdu3dg1ERWp1JivpWyLVlUYIBhebFq8GJ26dYOjuK3IyMjpmMkamrgEcmMDBGqvuroat/3pLzyrk06fhGFDhuL6G25Ah44dMWzYMJx80s/x6quvwu/14PobrucN4+NPPsHU6dNx+z/+wUTGZ597Hm2KihjU3XvvvSht317mOUhXmMnes+j2Yu2jDnpbZLSIw7NPAITycrtYU+TFFVEMCQFCDNteKQP1vnPy0ySmgzBAsChjQqO02J579jns3LULbdu2Q9t2JVi9eg169eyJ0047FV9//Q3emzIFZT16YOCA/phw5JF48uln+OTQ9ZBDUL2nCjt2bGef1tYtW/HoE//GsUcfhZ69emLE8OH46OOPsGH9BpT1KMOu3bsZhPzipBMx/PDDBSFGlRqV/SKAINB7A472XC9elBall4NdDFSgaa8HX86eg/LjjwYYIKTDJ073xUnhet7ETfbdOyj9bKCW4/OJO22oTFmU0S1c747aFKd4LssrQQGBCJ0TtKu6DoIsSGZyTmZL7asUufw3keqUK1ZwZkFpcWDlL3EbXRcKIRTuo6xzaIQ4KkSABHVyl2lqHQ443G5ogQBqtu1E4ZDBMJ35cDpz2PLkdLnhdraC5sgFXHmAIweangvNQX8jk72LLVG0MSvoQM8IBX1wuHLYEhL5KBdEdgBCZGQWFWsGoIWqYXi2wbdzE3zbVgO+Pcgr7ARXp97QCzpDc7eHRm4VSt0s7NCWw79a09aXNUOAwHNHAGGKBAiU5DrysIiNxgIQ6izJ9AECt0Y8DV3HrFmz+J0/68wzWNkvXrQYb//vbZx91tl4/PHHueR6+w6dULFxIzPpJ99yCz7++CMmzP3h1luRk5ODt956i6MdLr/icrZiPvbYY2hTWIhzzzkHb7z5H6xcuQpDDhuEqj27sWTFClx60UXo1bMXuxyiCqWl8Lqlc0k0QKhF5eJF6NK9B/TiEqo9yB4owUHgM3AaTUeryDRuFFBPRmU9+ujjWLz4R9z8+9+j/4D+uP/++/H19/Pxp1tuQe9ePfHiSy/BW1uLG264jqvZfjp7Nv737rv45+1/5/3w9TfeZPfC2WefhXPOOQdOqplCluB0hsI9aiBAMEUUEEWLODx7sX1DhQQILaRYU9JESTLMMbEFQaQPVp9YCwJPU2xUT8zKqw8gVFVV4cEHH+YN/7rrrkGrVgWY98WXeOPN/+JPt07Gjz/9iGnTZuDq312Fvn16Y/GPP+Lll1/G9ddfzyFHtGCfeOIJtC0pwWmTJuHuu+/BpZdegn79+mHVypV44cWXMGnSaYxsA34/3ntvCtZv2IjLL/0tWyrESVGVAiWdnW2AMBvlxx/TLACCSgfN27olBNla752nXeVKUP6aMOtAmhBklTylicj0GVFrwsLAp2AuCasK5MiQI1UGjMylDEaEhYH5EKZf5Mxn14Zog4h93AYT/AgoBDgigJNRGXS9H5rPix0bNqJ0xGAE6e/BEPw+LwKBEAyfnwvgCLuGA27dgbx8N3LyW8F05cJwF6BN+17Q3XlAbiuAajn4/dBcBYBOyYtIWrQpCWWoXB5CDVpPc9Y0urHbsFD/yuKgVGj4/Qpv+NG7pUhYJt1rBC6De2FUrYZn80/YuWU18kuK0KrDIcgr6QMtpwxwFoga2ArLqFz6EuZRhT6RfCgBc4EXgAyljLrMChB6MgBuMoAgOUjEMSALwqCBg9iiQCBg6dKlOPzww7lM+uy5c6mMAYYOGcyiHTBgANauWcu/035ASp4Y+ERAHDp0KAOGBQsWwO12o0/vPqiuqcb3332PlatWoqi4kC2VgwYNgov4TWlHMaSnipsjQBBp5InLZaKychMqNlZg9OjRyMvPw+rVq7Fo8Y84euJELnH/ww/z+Z0bO3Yc76/rNm7AwsWLceKJJ7J8Z7z/Pl559Q3cccc/0bVLF2FxVRkd0xJVYwOEjehZPgbFnTun1YsD9eKUSYr1AQTejC2ZFJWBMuInlVXCYgFBrDlWEfeiCHwmqvdUM1u4Z88ynHveedwKmaD+8td/4HdXXIr1Gzaw6+CKKy5DcXEJXnnlFd4Ibrj+eg5tIiX38UcfYc68L/G7Ky/HPXffgyuvvALde3THF/O+ZLPgRRf+BiVtSzg2+qsvv8IHH36Myy+7hOOfhfFUnPTpdwII4jDcMAuCyNMigAeFU0UsCNEAYX8urHC0CHVCldLlE3+EU8LWFCWLcMKkWDO1qsEn1B6rE1m0RpmXIzyViKNBHEn44cJkyzpVfS9OOuT+EWRTEXqrXOjcJ/lvdepQ7AKz1oe1SxZj7Lm0nshaQRXcRPltM0T8Cg8QCEAL+KAFamDs2wrvvt3w+T0IGDr8HieCMJBTkAd3fj5atWmPgo6DAWd7mflPcWBErQRhShHaU7kvxLYVWUPR5X8UQLDOvsrTF4nKEJK0fOId/kjp+2sQ3L0Mtdt/greqAkFTQ+sOveEu6Q5XQUc4CNwQodF0Udk/ZpeEKMRSF3Q35oBYXQ9yOBESqgAqtIETCVRABp1dDLOnk3Wv6QCCNQKJSyEzmVn44n1+X7gkNK0ZrnBogvMi0B5GlicCBU6nS1qhTHhq98HpIv4EiYbMzSZf4/X6uAaNSsLkcJGMxIefmSBevzHe6eYIECLjEu8/hTOSrASPTEOI0/aLdS9S9JP1VCaWYjIuwvkp3nn3XbRr1x6/+c1vxHvMuWLqMl2Sy7KBAIFdDFYLgg0QYnacxC6GWIAgtvPoiUzFaKWyZMWSAokj8MCDD6F3r14488wz+AXftWs3bvvzX3HF5Zdgw4aNWLZ8Ba668gpGpi+88CK7Cq679hpGorQgp0ybiu+/m4+rrroC9913Py677FLmGcyd+zm+/34+Lrzw1wwuSGF/8/U3mPH+B7jskkvQubMACLw9yiM0bQjsMrEAhHQNoQpcKD8lmcmp8A67GObMRvlxxzAHQWQhE9OR2cuR/PVJdAXPm6zqxn1gf6ZE8hIB8tmdWXvC/J/wI0+qaiO1nn/DWdTrvUZcERWOGnVKU+brSKvh7oRBZ4ATJQX3BbB+2Q8Yf+a50HMK6ipZ5ZpQPAkVaGgG2b3i27MVRtADv3cHqnduhLFrJ9p27I/cUrIstIGWQ64JJ5MDiScRIW1KDgaBwjD5MKJ6o3vOo7WU+1W1/gyJNSxE0LAJQGEORfiQMmEAHxTuoZqt2Lt1CaqrliFkeJGX2xatW7WFo01X6K26QsstgOYUaZGFq4jIjcTlEL1TVhDhYZIAlxI0MReFMvtRtT0NLtMhohgIIHQnDkTTWBCiAAK9PwS+5QwTyVm9c6TEXU4xNwwU+F0jMCFcA3wSNg3mNUlWquQNCb8+KTuVIjgqLFoeHqxZDxv2Fsa/O3sAIfZ5qezesfeINM+ikB+tA2EVVIRz+ofidTGJXJLYaU/dWFEBioKgv11w3rnM6RD7UDoVM+qTePKxRF9BEJyi3RRAqMYOdjHYFgQpYWkzTMBBoC0jNuNfrIuBT5kxvqPY3Dr1AwQP7rznPiZhTb7592zmmz//BwYCt946mc1WDBCuuJz9jPPmfYEZ02fguuuuRadOHTkr10MPPYLioiJccMF5uOOOOxmVDh06BN9++x3e+u/bOH3SafxvWsDvvjsFFZUVuPjii9jFwADB4mJobIDAHIRmDRCEohIAIVJ4RZ1+WYWZqq56NrZCK0BSJ3H1N+uiquNQr9MZE1TnPQSjlgDCAow/6zw4GCDEthMf4gpeAymMgGibNj7DD8/29ajasABuzQfDdMLVqpCjUOBwQc8tQI67EC53a+gu4jbkyqqMxAGg04n8KS0g4b4w8U+Ok0z9NAfMx5AnIgasKkuiKutrMUrwECxZFOXJDaYfpuFF0L8Hgb1bYdZsg7lnK0JePzymDr0gB/ltCuDKaQ93644w8wthajmyLeqPCHHmyCBOr+tiiwO5YwhI81qRxcfIzSMAQneAMoNaXCPZ4iDEAgSSF69aVR9BRqBwKWNm+EdbYQSAINmLsGfO8CiRZjikOibXSmzeFOYnZTl5GAEECn0NUhSDEctBIOuNJCnSrKTvuLe8O8mVavy3XgAvYYES60LIUwiT7S0SuCv9QN9R1suKykq2HhQVF0VCzsOWw4buMYktCnUAgklkdQ1+jTgI1ZKDYAOEtAACn3St86aIfZZWMgUIXq8Xd99zP1auWIYBA/qjfWlHrF6zii0Kv7rgAnw6axaWL1+JKy6/lJ9WXV3DoUlkeejWvTunTt26bQcuufhCjlAgkuL2rVsxatQojBwxHJ/Nmo1lS5cxoZFSHW/buo2zrZWXl/MJIRWAwL6xNF5CqwVBAQQ6uZh7PfhizmyMbQYWBNFHazEb1ohhI7kVILAFIS0iVPovOfMOEhKU6loQ6p6FiGpkIOQJYsPSHzD+rPMlQLBeGXaS1QUYXH2TlLQwo2sEjHSw6Tror4IjUAXDtxPBqq1M7PUHa+HxeYQPn0IMDSdMRz6gu+FyO+F26Ex8c7lzoefkQnPlwEGRFxyZ4YbG/+ls9hf/EZigl4vmhUo/twZAlgqLYMIvIj2Tro8ADXmOkycy2rqD0IM+mMFahHzV8FRvhnfnShj7dkALOhB0FiCY2wZ5BW3Qurgt3K0KQCmT4cwVzyebgYNy/4v+sguuZr343d2RwcTcmeRi6AqTQoetGeokkIigoFhFJAjC6XxiIwd4DYcJ1HUbE++sNf2z4MywnUxZAiyFl8LvraL9xSkexE9hLkeanU9noDJcOKQ5EDSDcIe8qJAkRWdxW4REGURZLTLdMMd4HUnPTM8iIAggXajKRib0hGAZM6/L8qgQ17SQlSDIGsWlzK01fiIgWEXjRlkg+R/JM/oyOTrBR1kzFIPXQQCewhwlQCALQln5WBR37pLmjB2Yl6fAQSC7obfeKAaWnjSFyzDtMDlaiST21Wc0HxPParUgqPvYPx8M4pFH/oUeZT3Qpk0hqmv2ctGoXj17oKioGDt27OCc62U9e4aTIxE4WLBwISo3b0HrggKMGD6MCYtkfSDA8MUXX3IIzYjDD+cTAkVFrFm7Hrl5eThsYD907txZLFBpnrSSFJUFIcrUzaa01B0N9QEEo9aDz2fPxhHHHA3d7ZKnHiGN7Kvg6AUcDRAi3ykvel2AkN0XQBAlrZtutEQ4hC5O7YrwNkSnGI2YAwaM2iA2LvsBR5x9ARxuSiYUCxCUxC1/V7VmxD4kT4ghmHoIhulAMKjB5aCNLxDOLMoWh5AfId9uBANVCIZ8CPiDMHy1QHAXnP4amN7dCHr3wO+t4ep2Oa4cPpVrJpk2RS0Cg8GBCwZFWLhczFcBgYn8HtBdhXC43EyMEyZdwJlD4ZwU3kmKmzoluB/hD/uN6DsievJRE2RZQNADM+SVp+cAamq2wVe9FeaOFQhs24g2rdsgmNMWhruUy04XtClCTut2QGFbwFUMDQHsnv8SvF4H8rudgDYdeuDr9z9Aj7JuCDlyhAWBlbJwU0VLPXaXyGzF1wHq4ciZuuuTJcKKKvrdVThGvadK2fO/5eFHgOV64gOkayriIIpicKT0osQvmhS75p1MwHUaPqxbvBiHdCuDq7iYEyWxEUOyXhqG3TOxIIgnC3CrqowKIKYsOQIgRNYkFxyTa0JwisTcMFhjuYvoKCbNxpGgCvcNjznONWIk9QM3doNwWg/1BKrfIvrtI3uNdw+HOXYvH4/izl2zfihKaaFk+aIkAEE+PUmYYzi/irw89qBnVab0OxXfmDV7FufdVmYn8R5HR0NQ0iIiJxJXYOy4MRhTXo5QiLLLiSewlVVOpqigJpCp8lnFmgTVemTzaGQXCKdnpgbJauD3+fD5559j+/btEf8lhdSFDCYUWtVlbm4Ofn7iiUxyJBdFJumR2dypOxD0eDFn9iyMP/poJkYlPDDLly3L66Oe5mMVdRP0gpV/ZLMS24Q1Ri+SPyGiCCW5VKYrFlESGkL7AqhYugBH/PI3rESFrz+KMxh5+aOOKVYfP4X/ifUqgjhEYRnRkLxJlbplIiRZHoLCAiE8suEwT7JIiHBOybEIBmAEvfB7amCEPDCDHoQCHmZ9B4M+wCAQEoAWDEKn0EbynVN7IT80IwAzJEiX/JOuZbM5vRsOQRwj0zrlkZDrHQQ4eGfVYVIGT7JUsDKnGiFBaKYXJj23thb+6mr4vORmUdE9OjtuiLeQl6PB2LOMQUqtsxMcbUdiyyYX3HmdUM1cBpXrQlinote3NeWVmsFkb0Am6y4eELG2k/jkL1JvKUZ9ciuBuiLdkdTXsrTrsfRCDCR15JkGNq1ejcJ27aAXFEB3upgcSCRRgyxESU7NmUgx1XvEu0HvmAv5uXn8rpBVmN45OlQxr0m5cFUktFTiTGTUie9B74pgXVDWyPhHMRWOmwmgiVCl/Qxz6d0QfaN3hZ4dcATgDu6B6TXRa/wJaNOpe5w1nKpUDpzrUrAgxCcpkrmQ9xQZ059syFaQQCd8ii2WkDKMHJnLYDlZ0MKhwidz5szhEKTDBg2S15KCj0X9kVDEZH2J2g5i3AO0yQcDAVRWVHB2NAIMbMlggFAXAFDWRbJukHVCpUxO5/lCLwmTGkVRzP7sM0w8+mjO/Jbs06BIimSNN6vvIymfRbdE9r4ISBB/i00DrRQ1zZ/g1IX4dGDsDaFyyXyM/fWFUSb4uiBBCkHt7uFdW4CDcF94EslCEZ2I2QIVwms9fLSz+ONj16MCEJpG3n2mxAqAEX4/yGpHiYj8YuNkhC5Ot+T3Z7BBmUWpFHSIlLm8n3/S38mCJ65T1xLwpb8xoJChoqLNADRD9IPWdygUEOuclKTcA3QHteOE06jFvjWfABR6WtgTroIBWLvUg5LSvvC3csNI4DVIV4Fmtjxpzuo3MQvbRuIPZ6Hk/ALC09OUn0jfxKk6ECR2P+A2TFSsWIXC0lLkFFJEinSV6LSvRJeJbsr+8mvBa1KHGXLATdEilHTI5+MvInkiaD3KyDCWqwC0pA8oaozJoLR2JBcnvtjle5JB3gN+T1UCN1NjFw2dAzmrLrnwTA1erQaafwf21vgwYNyJKO5IFT2beAE09eQJ/Z6Iey7xKrsY3uOsY9ZiTSQeYi8n4+MIFGlZ3qzbhXAVO5W/tTDmw1dQ1MLOXcjLy+Vc3IIQqXB0tMTS4QFE3WnZGdi0p3yXhGAdIgBNWTfqikuE0wkXQ+YLhl4C8mV/9ulnmHjURBGBkeTD4aUt4SN9ulFUSCbxkbyVDznx9i4AgmDlm/uCqPhRAgS5y0dmLiZhR6yWDy89pWiU0VLlPYhMiDB3pv8Ra0xZGuQDVcpqaT6mlimluHC7CNa4Nd8z/129VNbfw5kdxQsXATU0bqn4o/gBMn01cy/UThprVqFTqg4zUIVdS2dAQx7ySocgt6grvvvoGww8bDgcrXJhWHNWpy+WRrqj/vwTqQAEkZtfZQtt+vcvyoIgD2h0qp7/+Zco698PhaVtw3a2sGskKexpJNHGayYsVLlG6RplhbVYcYUysLwwSl+IcqZsfaJU4YnfKAmWLZbGZCOLtfCIx0o6LYEY0w3NbAUfahDatwkbVm9A98GjUdRBuBgyeb+T9ak5fZ8CQCDitg+fTnmXiXx5+fnQWGkK4aQCEBQQUANXJiWxPhKLWK0vxY4WLonsiTDCDxB9Sw464oOVdHuoAMLs2bMxYcKEcIhmonZaigWBQRuBBBljH5EJKcWIvzDe+S920+dsh7VBbPjpB4z9FVkQLBmguOFYgBDzfXhHEUpcwATxNsQayTMFCGJ8KtmEfCADAQVKZP0D/kr1TwJu60YrNzthk415z1QkJN8fAd2RclfKx64sGFLqsrgWBTPyyqfCZ2YtW/SIUR/wbIfb1QaGng+HZmLWzJkYdvhI5noIkmLEP57uO9I41yfePJKBBCVl/pnFfai+sSqeF4HlEJFMTQPukInv532J3gP6o3WHduGkdEQeZh5EGgTqxpFxbCvSUlVHcde/90cpbl6rok4LE4Pr6AzrRCRKQFZ3dBHAJb6jsmjCFSnfbCMfmlGEgOaBtm8TNq5aiy6Dh6JI1vLJjryaT6uJAYIyTfq9+PC9dzmjVX4+JVQRIUIi2QWBBImkEizEKHJIHPZvMpEoglBkKUS/nYrDkKydlL7PoH+qXcGLkGQsJtvU8xJYUI76lcDPl199hZEjR3Ab5L6wfuI1lQjAKJlxSucD+CPUV4hLNfOLy7u44iCEJV//ji0tU8IwpCFY68Wmlcsx4Te/VUSWBNKpX82LdNvRW4xV0g2Weh0FJDe/cMbKut5YSWCXEEP1zyoji61EEe7CAEEEH1ofK+poWMzy7K6J3qSJ98DeD434Ox7kka/ZCEEPBTBr5gwMH1XOERp0CqwLwJpyYUZznDJ9MiX5SnawybTtVO4T0IxWH/FLTE5TvmDuPPQdMAD5HdoLoh1bPbkag8xgKV+bVB7QqNfIvkoOQbS5OUWAwAdRHbpBUWURN14Eo0XghGgxvTdP3S2DW+VBROS7oTBkp5nLvwdqd6By5SocctgQFHXomO5jGlWqTdVYAoAg/ZyhIJsxP3r3HYQCAeRQLnt1qCFwQBPG/ktxJKlLPRIEPJFZLL2JiwhBxNBSWtx4LXB3ZIhMg1A9FSaSiVIynwBKsCJLOCdqJAaEKEVPURklJSVhsqOwEkh4FaMwmsq6kbksGufOSP5BVddAbQKpbdTCPS/CA9mCEAwiz+HE2DPO5vj85Ane4yjiKMpkZGWn1qMM5BKtta2vRvh3a0VJ+qOodBF7Y/QbZO2vujL2DrYSqnakBcHqVlTUCHpe0OdHbi7tEQbMIGVSnI6R5eUwXS4BPjLdAjIQWewtAjA3vAOCW9/wdjIbkrJxcBYEkcpbM/Hj7C/Qd0B/5HW0AAQifYTJvJk9reF3CReVQQRdSjxFe7gkHypCORXXEkmUwNwrlYAq9tkEEqxSrwt/6Vt5jSWPSKIxcBuyUXIfKWsl/SbWK1nISMRO+L17+GBxyMBhKCrtlLk6a7hQm6yFpADBCPg4VWnN7l2RxCGWbYdfFRWWUr/6bqDeVsl6BHmlzouvUGMj+R5UYo9MZkEkZRG+2oT42DqQmH5zPDATyKIzKUbVPEgBKfPmv9/Ni5lIMfYeZaGK+XsmJzmZstnldCOb7fv6AAAgAElEQVS/XVtChCm86PUDBHW2tjo69pfqiJWaom01ZAbElluPiCSSEKdVEaZGQN5J8e+0vYaCmDt9OkaMLodBrPoEgqkP/zSk79Z7lTJRESfiuwh8SmfOOHAvhiTdWP1M3o4CCGTHEeRResUXz5qHvv37I79Tey7prSwICWYv+aMa4Qraw0JmEP6AD8uXL8PqNau5SF7HTh2Zt0XVeClibNv2nfB4ajFixHCMHDESFB0m1oSw0KU2PxIQpbkvWMPz1bpQVVSMMEBwIeDZjc2rlqLrwOEoLLWLNUnmNC1CC1ZT7k85YyJrYh1baNTSEieZzD8qiliwptULYm1PLZ+GPCVee5n2OdE5Mhb3xnuGIEpKYrp8RyJM9QgBPv5rw5u6qkNAzaf2dmU62KzfJ4srW4r91D/uRJ0hnl3Ymk7TwNF8Vh98fXfHBwiq3oNVxFmzIGQg5fS8sfEfoMZT7xKSXEgBiimEzYNcSvrEiCGAudOnYdTocgQpnTHnoshgIFG3NKwBESkV3QcVDs2AIWKtDl8kiNSRw4kusxNGwq0b1qf0JGK1IAgISBbexbPmok+/AcjrWBpxMXCv4/ns03tiw6424Qv4MG36NHw261Ps2LkLv7vqKoweNZLTVb/11tucs4aKYdXuq8XCRYvwywvOx6hRIy3h7KnIV0LZ8AJL5R4JB6RIo99dVWbNhIuXjAtBzy4GCF1sgCCXBGuomG3Gyo+SCE+ZZhItpPRzcUVaE1MtyFiJsKSkTTVsPTcK90julvX2JJXvowI/lASi4zdYMHVfhNRfjQaLqkkaEHs2bXT1JaOKnDISKTJuRi3nsOZLlha3fpUfVRBKSqI5AQTqUmNA5oTryQoQKMbd7+WQXz44mH7MnTENo0aOQdBBAIH6Ew/gRy+j+p/XsJVNx5RQSKTzXbt2LQpat0aP7t3DBZcoPn/z5k0cKdWpcyfUVNegqLiYzd705F27dmHnjp3oUNqBk7ZRcqrY7I1N8kLwWy8qmJJEdUcIi2d9it59ByK3tDNbEJgLmuZJOlt99/o8mDJlCopKijB79hz84qSTOJMtWQzuu+8+9O8/AKefPokff/s/70C7tiW44oorRWRYPXtc/L42xI0tHiVWZ8R2wTsPl5vXYXqqsHnlCnQeNBSFtovBAhLC/sdESyjxVtQYG1UytRoGEtla6Sm1m5q1JJnRLJVWmsd4UxJKGhcpJRBZMapMS7w1JK4W39QrU+uNUY2omLXY7qWRFTOOEm5uICEN4Wd8KfOZZbVTLuzEIWIEEKZj5KhyTsDEQZSy9kgsdBF6INlbkXH3wjcuXPwj/v3kk1zwjeq0jBs3Dpdfein27NmDJ558EitXreKEPoVFhdi6ZQsmT56MAYMGYtrUqZg+fQZcDgeqq2pw/bXXYsyYMaLegKVWS8N7mLwFXl8yIyUrMD2ARbPfR58+g+Au7Ypg2K0Y7bNP3nK2rhAvHZXYfvqZp3HC8Sdg1OhR8Pv9nBY/LzcXZ511FkKGidv/cTuOOuooHH/CcYKkbZFtavAwtavqH6moPCuCe4QFRnARQtD21qBy1Rp0HjQYRaUtnqRoFWFjqPeGL75EvWjosmh476JbaIy+JpN6cxtz48kw+pQZCb2LfoJ1/MlycYTvtAFC401TzBbB5FyJ4sUJN4DPZ0zDyJHlnJ1RAQSGdLGWySbgyxBB7osvvsKGio2s3Kly4N/+/nf87W9/w7JlyzBnzlz86U9/ZJLw1KlTOcX7U0/9G126HsLX/PqXv0SfXr3x4Qcf4cOZ7+PBBx9E+/ZU4rvuJ5vcnwhAEM/VdR8WzZ6J3n0HwdX+UK4UKr+p1+aWnUWQuFUCCE89/RROOOFnGD16NJ/Wv/76G/5bp06d4PP6sHPnTtxxxz/RoUMHYS2VSZN4nE3A+winuCaAYBA8EOuWIqi02ipUrlyNLmxBsAHC/lhD9jMPMAnE1qTIRveVTrfq9jqn9GRoSnUsqhHJB6mDtGwLQtrzKCkyIiEVQwBoZhCfT5+C4SNGQ3NSFIM1Jl/KPu0HZX4DuYS279yFxT/+yJlca2pq8OZbb7GV4Ouvv8Zhhx2G0yZN4jLQK1euwM2TJ+Pvf/sbdu+uwv0PPMBVX6lWBmVaffH5F/H4o4+iX7++8eBB8sCYzIcRxYcgYSuA0KvvILibKUCgfYJk/tTTT+PEn/8cY8vLuaAeVdP9ackS9O/XF6FgCGvXrcXEI4/kXDCOGBeOytzZANElvdVaibMuQNiNTSvJgjDEdjEklaR9gS0BmWFSCSJbp6aEACFVYBA1W5YW45ph0gMIcU+QLW11KIAQlie5GAKYM20Khg8fDd3t3u8AgVKnv/3Oe1iwaBErpFYFBXjiiSdw1VVXYd68efjZz07E+PFHMIeisqISN950E2668UasWbsG77z7Hk468UTkuFwMIGo9tfjZcSegQ4fSOpFCyl2SrSUgLAjknycQRmWVyYIwA736Htb8AAJFttA+YRjYuHEjnn7mGZx00klswaF09vc/9DB+8fMTceSEIxEMBvDSyy9j3bp1+POf/xyVTTacXC9bQpXtWgODlYuB2R6awRaETStXS4BgWxCyPBV287YEUpNAvQAhY3BgubGBAEGclaM/B6/rJ8F8SdeC1S6gGX7Mnvoehg8fBUcOJZvZvxaEXburcNc992L0mHJWUlVVVTjjzLNw0403sFWhe7fuOOecs+F0OrFs2XJcd/0NuPvOO/jf/3r0Udxx++0oKS7imP11a9aiR4/ucDpdXNbY+hERD9ldBaoWDRHodN3LLobmCBBEyLZAj6T4iXNAVhqKWiDS51133Y1JkyZhwoTxbBl57vnn8MOCBbj7rrvC2WTDZaObgKMStX45hJ/KTkuAsG83Nq0igDDYdjGktnXbV9kSyL4E4gEEPuNnBBBkPE3C/Tt1C0L2R3+APCEeQAh5MWf6VAwZNhLunDwZ5mgloWY0gRkLpGbvXjzw0MMIhgyMO2IcFi5ciHfffQ+TJ9/MCv3VV1/Deeedi3bt2uOzzz7DG2/8B6+8/BLKynrg1ltvxaCBgzBsyBDM/XwuKis24q9//Svatm1bpz+xHIGMO5zgRo0SfqkMg83ZggDA4/Hgp59+wpYtW/DelCkYP348+vbti4EDB+HJJ/8NSg5HkQ2UIOm5555nkiJFNThkJtmmBAjR0XYCIFAEVUgLQmeAsAadBw5GoZ1JMRvL2m7TlkD6EmhUgJCk9K3Ijm0DhLRnqQ5AMKEFfJg7cxoGDxkGd17BfgcIVLHyu/kLMHX6dOYIDBo0iC0FJxx/PDp07IjPP5+LpUuXolWrViguLsEHH7yPv/7f/6FXz5749ttvMWfWbISCAeTm52PSaaegf99+9UbOZNmAwOx6Zvizi8GPxWRB4CiGQ5odSXHbtu14+ZWXUV1djdpaD3Jzc9G+tD3OPfsczqw4Y8Z0Bg8U/dKlS1ecdtqp7P5RuVxoLTadi8F67tCgswUBCGlGBCDYFoS0twf7BlsCWZVALKUtYwtCOFNSou5GxUfsfx/CgeDDsAAEkXXdhBb04vP3Z2DQYUOQk99aAISo4lCxc5BdszxVvKRy7ntra/nBpKiqa2o4zI5OuHM//xwTJ05Eq4JW+GH+AgYFV199FTp06AinQ4ff52dfOgENyvTn1EUp+EiobXT0TXZfCFELR5AUA1g8+0P07jMA7vZdEAq7PFTaYdmTLIs33ng5k2LIgD/gr5NCmaISnC4nZ9/01Ho4ssXlciO/VSteP+TK4VwjqvtN4mKI7DQEvlR2BAII2FfNLoYuNkDI6tK2G7clkJEEYqMYUmkk/j3WvyYzc8vMYNaHNfVGe4AABLW1iu6a0A0f5syYiiFDDmcXA5WEplMvf1+nqnbDktykshZEcLtI284cAXaNi95u2rQJz7/wPNZt3MidKyhohVNOPhljysfA7XbJcEHBLSDFRcpZVaMVpMRID1T9lNT6lOFVJuBk0zfg1KkWw2fo1bsf3KUdOCGVym8rovgjmUL47028fjkrbDhPieAkUP4IkiMBNrYUyMJ29DfifHC6e6rxYxFP9rtNpE9Rd0Ql9xfJ2TS2IAQ9e7FlxTp0HXQYCks7HPAZalNZeUnKPafShH1NS5ZAU4Q5ZirfeKo/epOJtUvU86TYwi/Z36miO3KAAARSkiHZVz7bGj7Mmv4uhg8fAacjRxTK4nTLIiuq5WyYqOJDptMf9z4reVClWKafwWAIAb8f6ysqOEFPmzat0aawNUcskDJTGIAVV0ztlFhCItdRyYwgk/JYyRDmhg6/Tj8JIMxDzz59kFvaTmRSDGdbjEhZQAXKSGoBNMnwcSo9SvF9iJWbNDoJMCBBBIOHJk48pYbIwMCknIkGAwVOZC1LpXPtTI8HW1asR9eBh6GwQ6kNEFJZG/Y1LVsComaEOJFlm7mdrqTjqf9odoENENKVab3XxyMpBr2YPWMKhg4dBpdbWBBYGchy6NEAgbRM9rkfsQDBOh4+0TL5T6xnYfJ2MqnRqlOTrXNRaK0hyeWTzwoBBLJrBAggmMBPc75AWV8CCG3DAEEkto5Obk0n4jBAaAxwYBVMkm7zEpGWgvouTeWa5NLJ7AqSlW6GuLw5rUaawZBckvR70OPB5hXr0WXQYSgqtQFCZlK272pREmjuFoTYPdAGCFlanhIghNUigcagB3NmTsNhgwcjJycXxAEQxbGoTry1xJsCBykeRRswBGYMxHuMWigWdmG4hH263VKl57NoRWALgulAUAecBrBkzhfo3qcP8ktFuedwsiqEwtUvIkXP0h1QAwR+AN1KK9JBAIEDciVACNceMhGo9aJy1Xp0sS0IB9Cs2l21JVCPBFJzMaQgvlinrb2/RglNlFAWSolTLdOH/hiqxayp76IgJwduLgGtbN+6qMmgTp8Uy0//NbpCjbMCYoluys4tuyzc94p2KO6vO93qL4qUGEYX4bFHvBCNdUyPXqcUaeOkNMAOHW4D2Lp8NYo6lMLZpoA5BuFpsNTRESmDVXXHplnE9UgohZeuqS8R8MlphOBkC4JwEhEAC0hMafgCqK7ah8HHHIOSzp1sF0NTT5H9PFsCzVICTcuUapYiSNSpMEAgkyw5Cgw6fVH1Ji++mDkV+QZQkJ8TNneTl5fOtQQSSLRk1XEaJkRAmfrEU6yZKNvYe+IrRqHQBVpQ5EOlZqPwIdf3klYQS18VDU+RK7h4lVUwjT6rAmQRUMiHg+PzC9uVwNUmX1gQ2Jyvi75KYiL9XXjY6d5G71CdBrmip5Rqfc+z1lBhsappkMgskxnPZGQsJXaVkouBHDHCFkbrmUCCi1xPviC2V+3FwGOOtgFCJkK277ElcFBKIDUdc1AOPZVB1QEIHB1gwNT9+HL6FHQr7QhnXi5MneMHuGw3AQQKexSKDHAxOSwhDEmhKymoE6UYJW8mrI84/0UkqqHu8TBSTD5yXez5WDDedd0B3UGETPp3Cn1KYWSxl1BJ6pDhhxkKId/UsOyHheha1gN5JUVhgOA0NbhDDpYr+9OJRMqgrCkiRjIY1H6/xURIC8GgFNZWCi2vTxPB6lps2LIdPcvH2ABhv8+V3QFbAs1FAjZASKy6lYtBWRAIIBgmTM2Pz2dOQa9DusNwusPhd2xBYBeDODLqEiAkr8iZirKVx1bZY6XCIwMQpagZmEgLRuQa8XdSD6IvpFYj5EnhfiCQEwkdFKQ7/oJqAnMCI07NawktjI1oqNunTBa6Ceg+aEaQAcK6JcvRrmsnuIta86mXPg5Th9MQGRc5woTD9SRAyKYFwWI5UM9WI4y1EbEspJsnqkvyQiXaTCSU9j0mWbEMOMjFINcIkRTJxeCgMdX6sH59JfqPPQLtOne2XQxpC9i+wZbAASeBFLR/CpcccMNuxA5bLQisUhVAMH2YNXMqevfoCU13Sj69cC0IL6/SXRpvymTajVLkUdrFgkLq6Tub9GWSIEq+Qyd560kwnAeBwAv5AGR4HZuXKZTRBBxOh6BPhILsInC7c2BQwh6DrhcPNs0Qm+jDuRT4xMm2gzBjgc+gYe0WH9ikAnfqnyZ6AvUxiFzDwPqflqBj167IKSyUtETBpVCl0hnuMDdBWW6yhxBIXhQqqqKbyJoSJPlx+CfhKPFsna8xuIqjCm+kEEcxd5QhUuRKoJ/cViOu2fhNEUnRhJPDHMUVJDO/TjYXDfo+LyrXV6LPmHFoSxyEFvCx8yC0gEm2h1ifBOIpHbHVR31sDkLiJRQWI52tNSYqshSDXnwy4z30LOsJlyuHT9isYOvkQJD+30wXqgQWlHWP8vZ7vF44dSdcbnf4JEhNazqdpjVWSKSEKLIiZIS4iqCPsiSaJlrlt2KMwUOia3LzEAgFBVTRgEDAj5raGhS0ygNlAqT2DKn4OG+hBAXhFVRPzuWGgQMpKM2EYQSREwpg408/ofSQbnAVU20IAkY0BgI1kXDLus9sXJWraBwkUwfL2mRXCwEBfzDItD++hoCL7uAsiZwtMRgUBEGHEy6HA36/nwcYLvcs54JtOTJ7ZKZLJdl9IoJBSkpmBA0RWiDAUuvD5vWV6DW6HCWdbJJiMlna39sSOMAlUN+pNMYbbgOEeudZnRJV+IKKTmCAEPDh4+lTUNajO9zu3LjxAI25gFSWw1defQW9evbGqJGjOL2vIAsSN4DyMIiTLf1H35HCJyX15ZdfoaamBscdcwzy8vM5mx8pOgISpGJdTiccmoaflvyIOV/OwXlnn40cAiCajhBZFJjTINYNJ/ohK4r4R50h0l8iERyZWqrFs+jZrpAXGxcvRsduZXAVt2OAIFoNAZpyODSmpOO3xXI1TASCAZbbV199hR5lZTi0W3fh9lAuHV1HwAQ+nT0LC35YwABh3NixGD1yJJyajqo9ezBr1iysWbMG+fmtcPqk09CxtJSjYHgOszUUJpdE5CVIlsRLINOSBqcngG3rKtBj1GgU2wAhW7Ngt2tLoLlIwAYIjTYTkUNXmCFPAOGT6VPQo3vTAARS+B6vB3/84x8wbuw4/OIXJ4vER+S+4GyIGnSHS/wMZ0QUZ+21a9eCigqNGDEcTodDuBw0DYFAALpDZ8Xn0DUsWPgDXnjpBfzfX27jWg5utxtevx+6rrEVYs2a1ejXpw/cLjeMkMFuCAFMImqNRBUGCBlPgAAIhhmCM+RFhQQIzv0MEAhsrV+/Di88/xKX0L788stw9DFHQ+Oy2EKmQdPABx9/gqeffQ7l5eUIBYNYtWIFJv/+9+jSsRNef/11LFiwAOVjxmDFiuWo3lONWyZPRtdOnevUc8hYfHFuFMmx6gcILk8A29dVotuoUTZAaEzB223ZEmieErBdDI02L80AIBDngADCrbdMxtgxYzFm7Di2ChQXFaGkbQl0zYFgyETtvlrs2bOHiy516dIF+fl52FO1Bz6fD6WUQtc0UbO3Btu2bWPrQodOnZiHkJuTg2XLl+H5F5/HTTdcx9fTp137dpyS+dvvv8eMme/j4l//Ct26HoK8vDw2qpO5PRYgiBN1Q6QfsSC42YKwCB279cT+BAjkaiE5ffTRx1zCubJyE4YOG8rlmzWHi4EWjTkQDOGe+x9AUdsS/Pbi33IkxoMPPojDBw9B/3798Mgj/8Jpp56KEaNGoXbfPtx555049ZRTMGH8eEtxrIbILv69KnumIpXGWhBcniC2r6uwAULji95u8WCWQNjMfEAOMhYkxAm2s0mKyWe2WQAEHV6vFzdOnozCVq3Qo6wXamv38Qn1rLPOREnbdlixchXmfz+fT/Vbt25FaYcOOOnkk7F40SJUVlbi/PPOxY4d2zFt+jTU1FQzTyHgDyAvNwdjxoxl//hD/3oYY0aNguZwYtPmzRg+bChGjxqJl155BT/++BMmjj8CR44fj969e7MVIZ4FoTEAAomcXAy5hg/rFy5Cp+49JEBwNrmLgfYAcivQTwJlNO7XXn8dvXr1wjHHHsNcBLYgUF6BUAjPvfgSdu7Zg0t+KwDCk0/8G0eMHYuhgwfjqaeexsCBgzBhwgRs37EDDz3yCH574YUYNnQouxkahKsSrGQR1RJmSrCbSLkYTIcOtiCsrUC30WRB6NhAgJf8lWoOV9gkxeYwC3YfmrcE0mWUZWsHa85SakYA4fqbJ8P0+3HNNdewG+C555/HyOHDMeHICXjt9TfQprAQ4484AlW7q/DkM0/j9DPOxK5du7Bq5UrceOMNmDNnNmbPno1zzzmbrQtLlyzBf/7zJi6++GIUFhbixsm34MrLLsGIkSPxzTffYv4PCzD55pvw9dff4MOPP8FlF/0GvcrK+Nn0ITJjNiwI7KoggIAA1v2wQACEknaAuf8AggohrfV48NKLL6OsZxmOP+5YaAQQpFuHAMKS5Svw2BP/lqWdgfzcXNx43XVoU1CAWbNnY+q0GSgqLMS2nbtwaNcuuObqq1FY0Dq7b0C4qqR4jAIIQQptdWgCILCLYaQNELI7E3brtgQOIAnYACH5ZMUDCH4fPpnRhBwEdjF4ce3NkzF80EBcfNFFzIR/5rnnEPT7ccqpJ+POu+7GEUccgW6HduPog/++/Q569+2L1q1aYePGjbju2mvw3HPPoqCgABdccD7zE/ZUVeHOu+7CSSf9HEVFJbjn/vvx0P33oV27dli3bh0ef+JJ/P6mG7Bh4wa8O2U6brnxehS1KWTLBYVNZhUgwECu6W8GAAEwDBH+SeP11NbihRdeQllZGY4//tiwFYWtHkYIb787BR9/8gmOPe44mMEQFi1ciF9fcAEO7XoIiGS6e081Bg48DFu3b8OyJUtwxeVXoGdZWXbLeVGIpQq1pYAUaUFQAIFIigQQutsAIfl+YF9hS6DFSOAgAQix5XbjzV+ySoVx59win/Cv9EvAi09nvIfu3XvATcWasmYcFr1y6MLFcN3Nt2LiuHKcefoZbNp+5bXXsGf3bpxyysm48nfXsNJqXVDAoWtESJx45ERs2rIZlRUVuObaa/Dww4+gV6+eOPXUUzhOn/zg9957L44//jgUFZfg0Sf+jXvvvBOFRW3YLfHQQ4/gpptuZLAwbcb7uPn6a1FcWCRi+9msLqIo1EeRFBuW7li0RzEWuWYA6xcsRIdu3fefBYH6Qi4GGcVBMnvxxZfRs2cZjjvu2Eg0iabB5/fhyt9dh9PPOB0TJozneXvzjf9gc8UmTDrtFDz73PP47SWXoF//gRwR8cADD6Br5y745fnn87WJs1Nmbr6zlp0WJgQCCQZHMVDNC6fHj63rKlDGUQy2i6HF7P/2QG0JpCyBVMBC5ntUyt3I9MJkICEzgGDlccgs9nT6CtTik+nvoUf3HnDFAIRGp3XIRDoeTy1u/sOfcdT4MZh02umsmF597XVs374N5593Pv712GM45pijMWzoMI5kWL9hA9q2a4fPP5+H9evX49rrrsPTzz3LORAuvPA3nPtg29ZtuOfue3D22WejuKQYjz/5FO675y4UFgqA8OBDD+OmG2/E6tWrMX36TCYwti9pW29yHwYISdaIIMrFLxktZCei9em6XDOIDQsXofRQAghtAZMiNSjfRCic9THT9ZLqfdwX4iHIlNkEEF5+5XUOcf3ZCcdzmGjQH+CokKARwpVXXY3rrr8ew0eOQMDvxxtv/AcrV6zApEmn4dVXXsPFl1yCHmU9+drHH3sMHUpL8avzzuNoEfVRv3EcigorrQNCLQm5ZJoKa4ouK3DjKMdwDszICiUQRhkVnbUBbCGAMHqMHcWQ6sKwr7Ml0OIkkAwkNGOAkJW5sqRSpJxzfDJmgCAsCD26dYODEiVZz34WGcVJTZV2N7k4khHi0/5tf/kbJk4Yh1NPO41P8K+99ga2bN6EK6+8Em/+9222FIweLRjy3373PTPm16xbiw0bKnDl736HeV99hekzZmBseTkKW7fGsuXL8d233+K3F12E4pISPPXM07j77rvQunUBNm3ajIcffhg33nADNlVW4tlnn8cvfn4iRgwfzi6I+pYCA4R6kiiJwVNuhfgAQVgOIgmnco0ANi5cjNJDu8FBAAEuAR44gVP9baQt5PpuUGNhH76Bb77+Brt37cKns2ajc8dOKB85AsOHDsX2LVuxdMkyjBg9Eq+/+Raqq2twzHHHMvFz6vTpmDjxSAwdOhTPPPc8ioqKMWDgQNTW1uLjjz/BuWefidEjhkellVDFoFS31NqLej1NSTom1wfjKiuYFYTHcIpvniwKTVXXCD8DyZDTLe/1YevaSpSNGYdiSrXcAj42SbEFTLI9xMaRgDp9J+VRtzSAYNH8vLVK/y0CPnxGHAQCCE5ndAbFhMox/flikVNBHb8f7/zvPfTt25uVDVlEvv7mG1RVVbGLYMuWrZgzew527d7NMe99evdlsLBi5Urs2rUb4486Gjt27cb383/AujVrket2oWPHDvj2m29w8i9+gQ4dOmLOvLk488wzmIRYVbWbFdjxxx/PnIMZM2bAs3cfjjrySI5iiFuricZOJ2H6We9aSQIQVLZHmMgz/GGAoBNJEYKkKDI8JkOz6cu6zh0SIJC1hkJH33jjDezZU4V9e2vhdDoYZJ147HHw1XqxdMlSjBt/BIKmyRyEvXv38T0dOnfCkUdNhNPl4rmYP/8H7KuljJg6+vbtgxHDD0fr3FzyCkU+lOAw+p+ynLW1h+KKCAglwBQNmqgWiLpIgQOeGl6jIqohoJnQ9/qwaU0Feo05AiVdujSC4Jp/EzZAaP5z1Kx7GFaajbzhN+9BJ+mdDRDEqUwChLJu3XjjVzhCiceaLEiZzRsy76ryACkcTlAkM/dx4SjKsc91FkwEg0HOb0AfUmqCJyDM1AED+Pb7+Vi4cBGOP+44tGvbFmvWrMJbb77FTPoOpe3Z7E0mcwrbo7TNVLeB0jqTW4LbNUzkUGKg8DthVdJUoplSDQuQUL9LR9QuiPdR51tW/5qJHNOPDQsXowNZEIrbgSDA9/YAAAuuSURBVKoJiOJR2bce8Mik9iU5Eg+B5KtqJzAnARpyqcIl1bigueGxOxAKGWHegul0EIlE1LxQ7goul6GyJ5pwshUgGvBYXzVRICvWHhWBEELdRwOE2KsJIHA5Kwl6VOAjERVR48PmtTZAaMg7at/bAiXQ4kBCVFGhOBPeksCSGr7ct5UFgfVGwIdPKdVyt25wu1xR5tywYpFHN4P9EpkjK1IkVKbX4NoDVlJgXYIgIQFOC8yKgEIQ1QmSlKoDFZWb8Oyzz6J63z7k5OZiU2UFzjpjEo4/9jg4ND18apWelPAJ1boSqBqgUP7C7K7GFgYE0oLAyjL2o3QgVRWMs7zoa4I3IY184wYDBOFi6A4H12IQhbF0UrBNYEAQdH+hmuM9jlS0M1LrKlw0SsmExyOKYcq02AQMqHhWtPoX4CDyhFjZCLeLcimEJ5VlL+QgJBevuqYSMz2D63Fy0ke6jyCFCQII2l4fNtsWhBao4ewh2xJIWQLRm1T82xqm7FLuSnO6MC5A8OPT6e+hrHt3rm0QKWakjLyCWSbY4yQzVUMgs4ExKU8jSln9WjGsoCVICJdqlo/kIkMGsHPnDmyoqMA+Ty3at2uLrl27cvpkhyksEzqXdk4EDmNBSvS1rE7DZuyYdvhW4YKoe16W9EWNlJYBQwsh1/RhwwLJQaBUyzIPgnCli15a/z8z6da30kWJZHHyrsejQlaEmCkRdgJpuak3LkG9R+KdE6o62tYUngMGiGDLjJKt1bEgblNWGatlJbriJYEDGg/bIgggKFhBHIR9PlSSBaF8nO1iaMxFZLdlS+DgkYANEOLOZQxA4I074MenM6agV4/usvSyuJO+izV+i02dFEacTJYpLR7qgLIeNOzYrDKDMuM+GGDXBLkU2Fguj+9c2UEqENU961NJWSkwEi9yJCTNFvW6GBggxI5DqUOylIgQR1M34A75sXHBIg5zdBS1hQnhzlGGlPrP3CkJNuFF1EUqjxxr+rfexGq+DkBIBURH1gJHEiDEY1afSAvCVaP+izw7+hlsyeEy39KNIVdjdCFpAUR4LWlUhhxwkWsEGtz+ECrWbESPMWNR3LlLQwxeDRd8E7VgcxCaSND2Yw4WCdgAIWWAYITwyXvvoF/PnnA5hHINqzjL8Zs2birg01BCHbkL6H/cdDyMwG75xOAhQCpIXmcGg3A5HewXdzvIuqHLUL7ohL+qRTUkVi8JvCUKXLAlol53FJ3K4/sI1HmaiiSTE8IV9GDjAqrm2AN6cQlzEEQPhTKstyuShNcQHqPoC8k8EeGSUz5KY43oTRRXQLkWpCAjoElxQ8glRFIVxM2wvC3riW1P7Bdgh4J0G0UAggiDVFEdkTUgGAcRaxC3r1HKaCE3snw46V6HjtyAiYq1Feg6dgyKbIBwsGzo9jhsCTSmBNTmkkjRpHI6asw+NYO24lkQTBOfTpuKwrxcGMEAb7axyoqN6KaJABPuGkaq01grR5PS0pKMBoSIaKeDyYZ6yITb7UIwGJLOD034yQ0ZHqdwSORgz4/j0309WplBkmHCKf+rT3lrxDIgEkE87U391Az4NBdCmo58p4Y9q9Yhr6gIoYLWMOBgKbg1E7m6kEgCvJKWiKwXC5uNBp+uIaBZbAiWh9UH1ghU0EdhlPidkHNJfA4ihoaCxHKMY0EQYwxSGWkiftJ/MVcx+GTuUESmAtxY7BCU2Er+pwieyvJhODS4Q4B3nw99j56IIrvcc8brxr6xBUigxRETw3OaihJrgQBByifqNG2aWL96JXbv3MkhgGLTrquqBBEsjh06zfdIbObRJ8J0mpC3i75IIqqYSeGJpp+kaIiJn+iTzMbEMMYgZZS4FRFyF/8jztMCPjg0E84QuR00BEhVSquEQwMz/7MBDlSv2OPC/v/ET4n9VowsxZ4xB1KSByMZkeq0QH2oC8ziPzkCvKK/Z4DAYCJyBVuUSM6mibzcfBzavz/y27RJEIGSzqpr3tfaLobmPT/Ntnc2QEg0NS0XIFilwiFrzOZPQxk02xUf6VhDXSGqpRTVYxyJSPIia9mIqo32pcvbJHkwW2JN7LBp/Kcmk1lj9CcKl0lwEJkzQR7NKONo44sj6y3aACHrIrYfcHBJwLYgpDqfKqZd5RlI9b7mfl2ydNVN03/lZ0/wND4FN4bKbJoRHShPaSnggGG92TxW+4GyNux+tngJ2AAh1SWgogFSvf5AuK75bJfJAULz6euBMLMp9pHcHfFyV6R4+4F2mQ0QDrQZs/u7nyWQzMPMuDt1/+p+Ho39+PQk0JyUbrKTbHPqa3pSbsZXy7wdqdInmvFIUuqaDRBSEpN9kS2B+iQQDzDYAOFgXS/NSenaAGH/rLJkct8/vcrOU22AkB252q22GAnYAKHFTLWsEdBcxpuKompOgKa5yK2h/UhF7g19RnO53wYIzWUm7H4coBKwAcIBOnEZd7u5cCtSUf4tSZllPKH2jfVKwAYI9uKwJdAgCdgAoUHiOwBvtgHCAThpdpczkoANEDISm32TLQElARsg2GvBloAtgYNTAjZAODjn1R5Vk0nABghNJuqMH2TNBZAs1U7GD7FvtCVw0EnABggH3ZTaA2paCdgAoWnlnc7T7LlJR1r2tbYEYiVgAwR7TdgSaJAEbCXUIPE19GZZMyFS4s/q+hHpKFQK4ugCPg19sH2/LYGDXwI2QDj459geYbYloJSUek6SwjXZ7s5B3b7VW8C1HoLAPg+Mvfu46iIV1tHMEHSXE47iImi5+ZT6jkUSzrFvexkO6iViD67xJGADhMaTpd1SS5VAbLp7WwFlbyUoWZsGEPTDqNyI0PeLoO+sQsgIwjD80KkUcq4beYMGQu/RC1rbDoDuEADBnpvszY3d8kEnARsgHHRTag+oySVgA4SmE7mSdSiIQMVGhL7+Cu6t26GHQtJEEALMEEIaEMpvBa1XPzhHjAZat24xFfiabjLsJx3sErABwsE+w/b4si+BuAXz4tfRsxPXNHA6lKy9XnjmfQXXsuVwBnyAbkQAAuh3HdCc8OW1gWPsODj79ILp0KHZJoQGToB9e0uSgA0QWtJs22PNjgQSAYQYs7YNEBphCqiMcXU1zDlfQlu3DpoREACBmYpUTYdcCfR/OoKaG+awoXCNHA44nY3wcLsJWwItRwI2QGg5c22PNFsSiAsQLA+z/d6NLHkTRtVuYNYX0DdVCqIiWQ14HshyoAACYOoOGAMHwTFmlAUg2BPSyBNiN3eQSsAGCAfpxNrDakIJ2AChCYVNjxIAwZw1Dw4CCAwOyIJAX1EYQwQgGJoDxqCBcI4ZCThdsp92tc0mnjD7cQeoBGyAcIBOnN3tZiQBGyA08WTEAAQzFP/5JhDSnNCGDIY+epi0IJCFwQYITTxh9uMOUAnYAOEAnTi7281IAskAAnXVtmo30oSRsA0YNXthfPE1sHYNnBTBEMX1IB6CBsPQ4HG5kVM+Cs6BfQDdKcmLNkBopMmwmznIJWADhIN8gu3hNYEEUgEI1m7YYKEBkyLJiBTmuGIlPN9/h4Iaj+AoMhCjCAZyNegIOJzwdeuKvNHD4ShsDRgOwOGQiZPsSWjAJNi3thAJ2AChhUy0PcwsSiBdgGBbFBowGTJSgdwKQT/8q1bD8+0C5PpC0A0DJmdDMqHpDoRat4F75DDoh3YGHJQYwQoQGtAF+1ZbAi1EAjZAaCETbQ8zixLIBCDYIKEBE6LqXxgwggEYW3bAt3k7Al4Pp1k2dR0FxW3hKCqCVlQA5LoAnYoyuKSLoQGPtm+1JdCCJGADhBY02fZQsyQBBggKJWRgus7gliyN5ABqVsg7AANmyIDL0KBRJANZFpQbgWo1iHQIggSiOSJhkAfQSO2u2hLYXxKwAcL+krz93INIAirETpkFMtD4GdxyEAkww6GYBA8oyBEOzpEYU1nTCtzCkQuicJP9sSVgSyC5BGyAkFxG9hW2BBJIIFYpZciQtwFChqssXf+OLegMBW3f1gIl8P82E88y2bN8YwAAAABJRU5ErkJggg==;" vertex="1" parent="1">
                    <mxGeometry x="380" y="300" width="520" height="252" as="geometry"/>
                </mxCell>
            </root>
        </mxGraphModel>
    </diagram>
</mxfile>